<svg width="638" height="508" viewBox="0 0 638 508" fill="none" xmlns="http://www.w3.org/2000/svg">
<g clip-path="url(#clip0)">
<path d="M529.436 311.087C529.388 318.269 529.292 325.495 529.243 332.677C529.243 334.451 529.195 336.224 529.195 337.953C529.195 339.15 528.906 340.657 529.436 341.81C530.255 343.761 533.002 343.229 534.014 344.869C534.11 344.559 534.207 344.248 534.255 343.938C530.737 345.534 529.822 349.125 529.533 352.45C529.292 355.642 529.147 360.785 533.677 361.405C533.628 361.006 533.58 360.607 533.484 360.208C526.641 363.09 529.388 374.351 532.279 378.873C534.399 382.198 537.532 384.902 540.76 387.296C542.591 388.67 544.423 389.956 546.302 391.286C547.41 392.084 548.519 392.838 549.579 393.636C550.157 394.035 552.615 395.276 552.711 396.03C552.904 395.808 553.048 395.586 553.241 395.409C553.289 395.409 553.289 395.409 553.337 395.409C553.434 395.719 553.53 396.03 553.578 396.34C553.626 396.296 553.626 396.251 553.675 396.207C554.06 395.453 552.855 394.788 552.422 395.542C552.374 395.586 552.374 395.631 552.325 395.675C552.133 396.03 552.229 396.34 552.566 396.606C552.904 396.872 553.145 396.872 553.578 396.739C553.867 396.65 554.157 396.384 554.108 396.118C553.916 394.744 552.422 394.123 551.265 393.325C549.579 392.084 547.844 390.887 546.157 389.646C542.977 387.385 539.748 385.124 537.002 382.464C533.918 379.493 531.797 376.035 531.171 371.912C530.641 368.543 530.159 363.134 534.207 361.405C534.737 361.184 534.64 360.253 534.014 360.208C530.159 359.676 530.689 354.622 530.978 351.918C531.267 349.258 532.086 346.465 534.93 345.179C535.267 345.002 535.363 344.559 535.17 344.248C534.159 342.652 531.701 342.963 530.785 341.544C530.063 340.48 530.544 337.997 530.593 336.712C530.593 334.938 530.641 333.165 530.641 331.436C530.689 324.697 530.737 317.914 530.834 311.176C530.882 310.245 529.436 310.2 529.436 311.087Z" fill="#E8E8E8"/>
<path d="M530.207 311.442C536.953 311.752 541.676 316.496 545.724 320.929C547.651 323.057 549.675 325.052 551.651 327.047C553.675 329.042 556.325 333.076 552.663 335.027C552.036 335.382 552.325 336.268 553.048 336.268C558.638 336.401 561.095 342.652 562.83 346.598C564.902 351.386 566.541 356.307 567.745 361.317C570.203 371.602 570.685 382.198 569.287 392.616C569.191 393.458 570.637 393.458 570.733 392.616C572.227 381.001 571.456 369.208 568.324 357.903C566.878 352.583 564.95 347.219 562.348 342.253C560.517 338.707 557.674 335.027 553.048 334.938C553.193 335.337 553.289 335.781 553.434 336.18C560.469 332.456 551.747 325.362 548.904 322.303C543.844 316.895 538.736 310.466 530.255 310.067C529.292 310.067 529.292 311.397 530.207 311.442Z" fill="#E8E8E8"/>
<path d="M554.397 327.402C557.77 316.407 562.493 305.811 568.564 295.836C568.227 295.925 567.89 296.014 567.553 296.058C568.854 296.767 570.203 297.477 571.504 298.186C572.179 298.541 572.805 297.831 572.516 297.255C569.046 290.871 579.455 286.792 582.973 282.98C582.683 283.024 582.394 283.068 582.105 283.068C582.78 283.423 583.503 283.778 584.177 284.132C584.515 284.31 584.948 284.221 585.189 283.911C589.044 277.881 595.839 274.512 602.392 271.409C602.055 271.143 601.669 270.921 601.332 270.655C599.26 276.906 602.537 283.733 603.163 289.984C603.5 293.354 603.549 296.767 603.26 300.181C603.115 301.866 603.26 304.393 602.537 305.9C602.537 307.008 601.862 307.629 600.465 307.851C600.031 307.895 599.645 307.939 599.212 307.984C598.248 308.072 597.236 308.161 596.272 308.25C595.887 308.294 595.501 308.516 595.55 308.915C595.598 309.801 595.887 310.067 596.61 310.644C597.525 311.353 598.248 311.442 598.682 312.683C598.923 313.348 598.923 314.102 598.923 314.767C598.874 318.358 598.296 322.037 597.622 325.584C596.947 329.042 595.983 332.456 594.827 335.781C593.815 338.574 592.466 342.741 588.707 343.184C588.225 343.229 587.743 343.716 588.08 344.204C590.875 348.15 586.731 352.938 584.707 356.351C582.491 359.987 580.467 363.711 578.587 367.479C574.829 374.971 571.745 382.73 569.239 390.665C568.998 391.508 570.396 391.862 570.637 391.02C573.48 381.887 577.19 373.021 581.72 364.509C583.84 360.474 586.394 356.662 588.611 352.672C590.201 349.79 591.454 346.421 589.382 343.495C589.189 343.849 588.948 344.16 588.755 344.514C591.598 344.204 593.429 342.342 594.682 340.081C596.561 336.623 597.573 332.633 598.489 328.865C599.501 324.697 600.176 320.441 600.416 316.185C600.513 314.767 600.657 313.171 599.983 311.841C599.597 310.954 597.14 309.58 597.092 308.959C596.851 309.181 596.61 309.402 596.369 309.624C599.067 309.358 602.922 309.979 603.838 307.141C605.042 303.595 604.994 299.206 604.946 295.57C604.946 291.669 604.512 287.812 603.741 283.999C602.874 279.699 601.332 275.399 602.778 271.054C602.97 270.478 602.248 270.034 601.718 270.3C594.923 273.537 587.936 277.039 583.985 283.29C584.322 283.201 584.659 283.113 584.996 283.068C584.322 282.714 583.599 282.359 582.924 282.004C582.683 281.871 582.25 281.871 582.057 282.093C578.009 286.482 567.36 290.649 571.359 297.964C571.697 297.654 572.034 297.344 572.371 297.033C571.07 296.324 569.721 295.615 568.42 294.905C568.083 294.728 567.601 294.817 567.408 295.127C561.336 305.235 556.518 315.919 553.096 327.003C552.711 327.889 554.108 328.244 554.397 327.402Z" fill="#E8E8E8"/>
<path d="M520.329 282.093C512.233 282.625 507.945 273.891 509.294 267.596C510.595 261.434 517.148 257.089 523.846 257.266C532.665 257.444 537.194 265.379 535.604 272.783C534.207 279.389 526.979 284.265 519.751 281.65C518.883 281.339 518.498 282.625 519.365 282.935C525.148 285.019 531.894 282.581 535.074 277.748C538.447 272.606 538.062 265.246 534.159 260.458C530.207 255.582 522.642 254.917 516.908 257.266C511.173 259.572 507.415 264.759 507.559 270.522C507.704 276.817 512.763 283.911 520.281 283.423C521.244 283.379 521.293 282.049 520.329 282.093Z" fill="#E8E8E8"/>
<path d="M594.297 184.693C591.502 189.481 588.273 194.003 584.611 198.259C584.033 198.924 585.045 199.855 585.623 199.19C589.381 194.845 592.706 190.234 595.549 185.358C595.983 184.604 594.73 183.939 594.297 184.693Z" fill="#E8E8E8"/>
<path d="M594.248 185.757C595.983 189.968 597.814 194.18 599.694 198.347C600.031 199.145 601.428 198.791 601.091 197.993C599.212 193.825 597.381 189.614 595.646 185.402C595.309 184.604 593.911 184.959 594.248 185.757Z" fill="#E8E8E8"/>
<path d="M593.911 186.377C593.574 202.869 591.261 219.273 586.972 235.277C586.731 236.119 588.129 236.474 588.37 235.632C592.706 219.494 595.019 203.002 595.357 186.377C595.405 185.491 593.959 185.491 593.911 186.377Z" fill="#E8E8E8"/>
<path d="M602.248 213.465C603.501 222.952 603.211 232.528 601.332 241.927C601.188 242.769 602.537 243.124 602.73 242.282C604.609 232.75 604.946 223.085 603.693 213.465C603.549 212.623 602.103 212.623 602.248 213.465Z" fill="#E8E8E8"/>
<path d="M596.706 231.908C598.392 235.454 601.332 238.691 601.525 242.681C601.573 243.346 602.488 243.612 602.874 243.035C604.56 240.331 606.295 237.627 607.982 234.922C608.463 234.169 607.211 233.504 606.729 234.257C605.042 236.962 603.307 239.666 601.621 242.37C602.055 242.503 602.536 242.592 602.97 242.725C602.777 238.425 599.742 235.1 597.959 231.287C597.573 230.445 596.32 231.11 596.706 231.908Z" fill="#E8E8E8"/>
<path d="M267.923 456.367C296.98 453.885 326.085 450.648 355.238 449.54C384.633 448.432 414.172 449.141 443.566 449.85C460.432 450.249 477.297 451.003 494.066 452.466C494.982 452.555 494.982 451.225 494.066 451.136C464.576 448.565 434.989 448.254 405.401 447.944C390.56 447.767 375.718 447.634 360.924 448.077C346.516 448.476 332.156 449.584 317.797 450.781C301.172 452.2 284.547 453.619 267.923 455.037C267.007 455.082 267.007 456.412 267.923 456.367Z" fill="#E8E8E8"/>
<path d="M419.135 436.772C431.23 438.856 443.18 438.767 455.372 437.747C467.901 436.683 480.381 436.018 492.958 435.486C518.208 434.467 543.459 433.536 568.661 432.56C583.069 431.984 597.477 431.452 611.885 430.876C612.8 430.831 612.8 429.501 611.885 429.546C586.586 430.521 561.336 431.496 536.038 432.472C511.173 433.447 486.164 433.935 461.347 435.885C454.601 436.417 447.855 437.127 441.108 437.215C433.88 437.304 426.652 436.683 419.52 435.442C418.605 435.353 418.219 436.639 419.135 436.772Z" fill="#E8E8E8"/>
<path d="M91.2672 427.373C113.723 427.95 136.178 427.861 158.633 427.107C159.549 427.063 159.549 425.733 158.633 425.777C136.178 426.531 113.723 426.62 91.2672 426.043C90.3035 425.999 90.3035 427.329 91.2672 427.373Z" fill="#E8E8E8"/>
<path d="M115.795 445.195C123.986 443.599 132.66 444.619 140.948 444.974C149.285 445.373 157.573 445.727 165.91 446.126C182.872 446.924 199.785 447.722 216.747 448.476C217.663 448.52 217.663 447.19 216.747 447.146C199.496 446.348 182.197 445.55 164.946 444.752C156.32 444.353 147.695 443.954 139.069 443.555C131.215 443.2 123.215 442.358 115.457 443.91C114.542 444.087 114.927 445.373 115.795 445.195Z" fill="#E8E8E8"/>
<path d="M245.708 411.413C275.488 413.275 304.786 406.182 334.518 406.271C335.433 406.271 335.433 404.941 334.518 404.941C304.786 404.852 275.488 411.901 245.708 410.083C244.793 409.995 244.793 411.369 245.708 411.413Z" fill="#E8E8E8"/>
<path d="M223.397 273.625C223.638 272.872 223.879 272.118 224.265 271.409C224.506 271.098 224.698 270.832 224.939 270.522C225.951 270.433 227.011 270.3 228.023 270.212C228.312 270.389 228.553 270.921 228.746 271.187C229.469 272.118 230.24 272.916 231.348 273.537C233.468 274.689 236.022 274.955 238.287 274.157C244.214 272.162 246.431 264.936 253.659 265.645C255.586 265.823 257.418 266.532 258.815 267.773C259.875 268.704 260.694 269.857 261.803 270.744C263.778 272.251 266.236 272.473 268.597 271.675C271.488 270.744 273.705 268.749 275.873 266.842C278.813 264.315 283.102 261.256 287.005 263.961C289.559 265.69 291.052 268.35 294.233 269.281C297.22 270.167 300.401 269.635 302.907 267.906C303.629 267.419 302.907 266.222 302.184 266.754C298.714 269.148 294.377 268.749 291.342 265.956C289.318 264.138 287.583 261.877 284.595 261.567C277.56 260.769 273.898 268.66 267.922 270.478C263.393 271.852 261.899 268.128 258.911 266.089C256.695 264.581 253.9 263.961 251.153 264.36C248.262 264.759 246.045 266.355 244.021 268.172C241.66 270.345 239.155 273.315 235.492 273.315C233.035 273.315 231.155 272.074 229.806 270.3C229.035 269.325 228.409 268.527 227.011 268.394C223.975 268.128 222.674 271.054 221.952 273.226C221.711 274.069 223.108 274.423 223.397 273.625Z" fill="#E8E8E8"/>
<path d="M297.702 250.705C299.437 246.05 305.509 249.996 307.822 251.725C309.846 253.232 312.207 254.784 314.954 254.695C319.483 254.518 321.893 250.262 325.603 248.488C330.759 246.05 333.891 252.39 338.903 251.769C341.119 251.503 342.276 249.863 343.673 248.444C345.167 246.937 346.709 246.937 348.829 247.38C350.805 247.823 352.829 248.267 354.805 248.71C355.72 248.932 356.106 247.646 355.19 247.424C353.214 246.981 351.191 246.538 349.215 246.094C347.866 245.784 346.516 245.429 345.167 245.784C342.517 246.538 341.746 249.774 339.096 250.35C336.252 250.971 333.458 248.045 331 247.114C328.928 246.316 326.904 246.316 324.928 247.291C322.808 248.311 321.218 250.04 319.339 251.414C318.086 252.345 316.688 253.188 315.05 253.276C312.544 253.409 310.472 251.813 308.641 250.483C306.424 248.887 304.063 246.981 301.027 247.203C298.859 247.336 297.076 248.4 296.353 250.306C296.016 251.148 297.413 251.503 297.702 250.705Z" fill="#E8E8E8"/>
<path d="M515.558 121.34C515.125 129.631 514.835 137.965 514.739 146.3C514.739 147.142 516.185 147.142 516.185 146.3C516.281 137.965 516.57 129.675 517.004 121.34C517.052 120.498 515.606 120.498 515.558 121.34Z" fill="#E8E8E8"/>
<path d="M516.522 121.961C527.653 120.542 538.977 119.168 550.06 121.562C550.976 121.739 551.361 120.498 550.446 120.276C539.122 117.794 527.509 119.212 516.136 120.675C515.221 120.764 515.606 122.05 516.522 121.961Z" fill="#E8E8E8"/>
<path d="M549.145 122.005C549.386 138.852 549.048 155.743 548.085 172.59C548.036 173.432 549.482 173.432 549.53 172.59C550.494 155.743 550.831 138.896 550.59 122.005C550.59 121.163 549.145 121.163 549.145 122.005Z" fill="#E8E8E8"/>
<path d="M515.944 168.068C516.185 170.196 516.281 172.412 516.715 174.496C516.956 175.516 517.341 176.225 518.305 176.846C521.341 178.663 526.256 177.599 529.581 177.422C534.303 177.156 539.074 176.89 543.796 176.624C545.916 176.491 549.289 175.959 547.988 173.255C547.603 172.457 546.35 173.166 546.736 173.92C546.976 174.407 544.278 175.205 543.796 175.294C543.025 175.427 542.206 175.383 541.435 175.427C540.037 175.516 538.592 175.604 537.194 175.649C534.351 175.826 531.508 175.959 528.665 176.136C526.063 176.269 523.172 176.757 520.57 176.225C517.293 175.516 517.727 170.639 517.389 168.112C517.293 167.225 515.847 167.225 515.944 168.068Z" fill="#E8E8E8"/>
<path d="M507.174 166.427C502.933 172.146 498.548 177.777 494.115 183.363C493.97 183.54 493.97 183.85 494.115 184.028C494.886 185.136 496.187 185.579 497.584 185.18C499.656 184.604 500.668 182.432 501.728 180.924C503.463 178.442 505.439 176.092 507.559 173.831C508.475 172.9 509.39 171.969 510.354 171.082C511.462 170.063 513.341 167.89 514.932 167.669C515.847 167.536 515.462 166.25 514.546 166.383C513.101 166.605 512.137 167.669 511.077 168.555C509.679 169.752 508.33 170.994 507.029 172.324C504.523 174.895 502.21 177.644 500.186 180.525C499.608 181.323 499.126 182.299 498.403 183.008C497.632 184.028 496.813 184.116 495.85 183.274C496.139 182.919 496.428 182.565 496.669 182.21C497.97 180.57 499.271 178.929 500.524 177.289C503.174 173.875 505.776 170.462 508.33 167.004C508.956 166.383 507.704 165.718 507.174 166.427Z" fill="#E8E8E8"/>
<path d="M514.691 168.068C520.666 168.201 526.401 164.876 528.762 159.822C530.882 155.255 529.725 149.315 525.244 146.3C520.088 142.886 513.486 145.458 509.487 149.182C507.125 151.398 505.15 154.191 504.668 157.295C504.475 158.536 504.523 159.777 504.861 160.974C505.053 161.684 505.343 162.349 505.728 162.969C505.824 163.147 508.041 166.028 507.077 165.984C506.162 165.895 506.162 167.225 507.077 167.314C508.571 167.447 509.342 166.206 508.908 164.964C508.571 163.945 507.511 163.235 506.933 162.304C506.065 160.841 505.873 159.157 506.114 157.516C506.933 151.842 513.486 145.901 519.847 145.99C526.111 146.034 529.388 152.462 528.087 157.516C526.641 163.014 520.763 166.871 514.691 166.693C513.727 166.738 513.727 168.068 514.691 168.068Z" fill="#E8E8E8"/>
<path d="M521.534 126.66L521.485 126.616C521.485 126.926 521.485 127.237 521.485 127.547C522.112 126.882 526.449 126.926 527.605 126.793C529.436 126.616 531.316 126.483 533.147 126.394C534.978 126.306 536.857 126.217 538.736 126.173C539.556 126.173 543.844 126.527 544.133 125.818C543.796 126.616 545.194 126.971 545.531 126.173C545.579 126.084 545.579 126.04 545.627 125.951C545.724 125.729 545.627 125.463 545.434 125.286C544.374 124.311 542.447 124.754 541.049 124.754C538.399 124.754 535.797 124.843 533.147 125.02C530.689 125.153 528.232 125.375 525.726 125.596C524.473 125.729 521.341 125.552 520.425 126.527C520.184 126.793 520.136 127.192 520.425 127.458L520.473 127.503C521.196 128.212 522.208 127.237 521.534 126.66Z" fill="#E8E8E8"/>
<path d="M520.859 133.133C525.726 133.754 530.448 133.576 535.315 133.399C536.231 133.355 536.231 132.025 535.315 132.069C530.544 132.246 525.967 132.424 521.244 131.847C520.329 131.759 519.943 133.044 520.859 133.133Z" fill="#E8E8E8"/>
<path d="M517.582 138.143C517.437 138.276 517.293 138.453 517.148 138.586C516.715 139.029 517.004 139.694 517.678 139.739C526.063 139.872 534.448 139.517 542.784 138.675C543.7 138.586 543.7 137.256 542.784 137.345C534.448 138.187 526.063 138.542 517.678 138.409C517.871 138.808 518.016 139.162 518.208 139.561C518.353 139.428 518.498 139.251 518.642 139.118C519.22 138.453 518.208 137.522 517.582 138.143Z" fill="#E8E8E8"/>
<path d="M527.942 145.413C532.327 145.724 536.712 145.546 541.049 144.881C541.965 144.748 541.579 143.463 540.664 143.596C536.423 144.216 532.183 144.394 527.942 144.083C526.979 144.039 526.979 145.369 527.942 145.413Z" fill="#E8E8E8"/>
<path d="M516.185 163.368C512.281 163.546 508.957 160.398 510.209 156.763C511.173 153.881 514.787 150.822 518.064 150.334C519.654 150.113 521.389 150.467 522.593 151.487C524.376 152.994 523.895 155.211 523.075 157.029C521.678 160.221 519.124 163.102 515.221 163.501C514.305 163.59 514.305 164.92 515.221 164.831C520.232 164.344 523.798 160.398 525.003 156.053C526.159 151.975 522.883 148.605 518.305 148.96C514.064 149.315 509.39 153.26 508.619 157.117C507.8 161.418 511.607 164.92 516.185 164.698C517.1 164.654 517.1 163.324 516.185 163.368Z" fill="#E8E8E8"/>
<path d="M517.004 150.911C515.076 154.723 513.293 158.58 511.703 162.482C511.366 163.28 512.763 163.634 513.101 162.836C514.691 159.024 516.377 155.255 518.257 151.576C518.642 150.778 517.437 150.113 517.004 150.911Z" fill="#E8E8E8"/>
<path d="M519.22 154.723C517.968 157.117 516.763 159.511 515.51 161.905C515.125 162.659 516.377 163.368 516.763 162.57C518.016 160.176 519.22 157.782 520.473 155.388C520.859 154.635 519.654 153.925 519.22 154.723Z" fill="#E8E8E8"/>
<path d="M160.995 82.3271C160.995 86.3614 160.995 90.4401 160.995 94.4744C160.995 95.3167 162.44 95.3167 162.44 94.4744C162.44 90.4401 162.44 86.3614 162.44 82.3271C162.44 81.4847 160.995 81.4847 160.995 82.3271Z" fill="#E8E8E8"/>
<path d="M161.91 95.0507C166.006 95.0507 170.054 95.0507 174.15 95.0507C175.065 95.0507 175.065 93.7207 174.15 93.7207C170.054 93.7207 166.006 93.7207 161.91 93.7207C160.994 93.7207 160.994 95.0507 161.91 95.0507Z" fill="#E8E8E8"/>
<path d="M175.017 93.632C175.017 89.243 175.017 84.8097 175.017 80.4207C175.017 79.5784 173.572 79.5784 173.572 80.4207C173.572 84.8097 173.572 89.243 173.572 93.632C173.572 94.4744 175.017 94.4744 175.017 93.632Z" fill="#E8E8E8"/>
<path d="M174.487 79.5784C170.295 79.5784 166.103 79.5784 161.958 79.5784C161.043 79.5784 161.043 80.9084 161.958 80.9084C166.151 80.9084 170.343 80.9084 174.487 80.9084C175.403 80.9084 175.403 79.5784 174.487 79.5784Z" fill="#E8E8E8"/>
<path d="M167.114 95.76C167.114 100.282 167.114 104.76 167.114 109.282C167.114 110.124 168.56 110.124 168.56 109.282C168.56 104.76 168.56 100.282 168.56 95.76C168.56 94.9177 167.114 94.9177 167.114 95.76Z" fill="#E8E8E8"/>
<path d="M150.152 109.104C155.501 104.405 161.091 99.8831 166.873 95.5828C167.596 95.0508 166.584 94.1198 165.861 94.6518C160.079 98.9521 154.537 103.43 149.14 108.173C148.466 108.75 149.478 109.681 150.152 109.104Z" fill="#E8E8E8"/>
<path d="M168.656 96.0261C174.439 100.06 180.221 104.095 186.004 108.129C186.727 108.661 187.449 107.508 186.727 106.976C180.944 102.942 175.162 98.9078 169.379 94.8734C168.656 94.3414 167.934 95.4941 168.656 96.0261Z" fill="#E8E8E8"/>
<path d="M144.563 110.7C147.743 110.7 150.923 110.7 154.152 110.7C155.067 110.7 155.067 109.37 154.152 109.37C150.972 109.37 147.791 109.37 144.563 109.37C143.647 109.37 143.647 110.7 144.563 110.7Z" fill="#E8E8E8"/>
<path d="M153.285 110.966C153.285 114.291 153.285 117.661 153.285 120.986C153.285 121.828 154.73 121.828 154.73 120.986C154.73 117.661 154.73 114.291 154.73 110.966C154.73 110.08 153.285 110.08 153.285 110.966Z" fill="#E8E8E8"/>
<path d="M143.502 110.346C143.502 114.247 143.502 118.148 143.502 122.05C143.502 122.892 144.948 122.892 144.948 122.05C144.948 118.148 144.948 114.247 144.948 110.346C144.948 109.459 143.502 109.459 143.502 110.346Z" fill="#E8E8E8"/>
<path d="M144.081 122.848C147.068 122.848 150.008 122.848 152.995 122.848C153.911 122.848 153.911 121.518 152.995 121.518C150.008 121.518 147.068 121.518 144.081 121.518C143.165 121.518 143.165 122.848 144.081 122.848Z" fill="#E8E8E8"/>
<path d="M162.681 110.656C162.681 114.513 162.681 118.37 162.681 122.183C162.681 123.025 164.127 123.025 164.127 122.183C164.127 118.326 164.127 114.469 164.127 110.656C164.127 109.769 162.681 109.769 162.681 110.656Z" fill="#E8E8E8"/>
<path d="M163.404 122.537C166.343 122.537 169.235 122.537 172.174 122.537C173.09 122.537 173.09 121.207 172.174 121.207C169.235 121.207 166.343 121.207 163.404 121.207C162.488 121.207 162.488 122.537 163.404 122.537Z" fill="#E8E8E8"/>
<path d="M163.886 111.321C166.488 111.321 169.042 111.321 171.644 111.321C172.56 111.321 172.56 109.991 171.644 109.991C169.042 109.991 166.488 109.991 163.886 109.991C162.97 109.991 162.97 111.321 163.886 111.321Z" fill="#E8E8E8"/>
<path d="M171.114 110.479C171.114 114.114 171.114 117.749 171.114 121.429C171.114 122.271 172.56 122.271 172.56 121.429C172.56 117.794 172.56 114.158 172.56 110.479C172.56 109.636 171.114 109.636 171.114 110.479Z" fill="#E8E8E8"/>
<path d="M183.113 110.479C182.968 113.36 182.872 116.242 182.872 119.124C182.872 119.966 184.317 119.966 184.317 119.124C184.317 116.242 184.414 113.36 184.558 110.479C184.606 109.636 183.161 109.636 183.113 110.479Z" fill="#E8E8E8"/>
<path d="M183.739 110.789C186.919 110.479 190.1 110.124 193.28 109.814C194.196 109.725 194.196 108.395 193.28 108.484C190.1 108.794 186.919 109.149 183.739 109.459C182.823 109.548 182.775 110.878 183.739 110.789Z" fill="#E8E8E8"/>
<path d="M192.798 109.415C192.461 112.385 192.557 115.311 193.136 118.237C193.28 119.079 194.678 118.725 194.533 117.882C194.003 115.045 193.907 112.252 194.244 109.415C194.34 108.572 192.895 108.572 192.798 109.415Z" fill="#E8E8E8"/>
<path d="M184.221 120.276C187.401 119.833 190.582 119.39 193.762 118.946C194.678 118.813 194.292 117.528 193.377 117.661C190.196 118.104 187.016 118.547 183.836 118.991C182.92 119.124 183.305 120.365 184.221 120.276Z" fill="#E8E8E8"/>
<path d="M166.922 122.936C165.139 125.419 163.597 128.035 162.199 130.695C161.814 131.448 163.067 132.158 163.452 131.36C164.85 128.655 166.44 126.084 168.175 123.601C168.656 122.892 167.403 122.227 166.922 122.936Z" fill="#E8E8E8"/>
<path d="M167.355 123.468C169.138 125.685 170.68 127.99 171.981 130.429C172.415 131.182 173.668 130.517 173.234 129.764C171.885 127.325 170.343 124.976 168.608 122.803C168.078 122.094 166.825 122.759 167.355 123.468Z" fill="#E8E8E8"/>
<path d="M159.597 132.424C160.609 132.424 161.621 132.424 162.681 132.468C163.163 132.468 163.597 132.512 164.079 132.557C164.946 132.601 164.85 132.335 164.994 133.044C165.331 134.729 164.946 136.901 164.801 138.63C164.705 139.473 166.151 139.473 166.247 138.63C166.343 137.3 166.44 135.926 166.44 134.596C166.44 133.842 166.681 132.601 166.247 131.892C165.813 131.227 164.801 131.315 164.079 131.271C162.585 131.182 161.091 131.138 159.597 131.138C158.682 131.094 158.682 132.424 159.597 132.424Z" fill="#E8E8E8"/>
<path d="M158.633 132.379C158.778 133.931 158.922 135.438 159.067 136.99C159.163 138.231 158.971 140.049 159.501 141.246C159.693 141.734 159.934 141.911 160.464 142C161.717 142.221 163.597 141.645 164.849 141.468C165.765 141.335 165.38 140.093 164.464 140.182C163.597 140.271 162.247 140.758 161.428 140.581C160.513 140.359 160.705 139.207 160.657 138.32C160.464 136.325 160.272 134.374 160.079 132.379C159.983 131.537 158.537 131.493 158.633 132.379Z" fill="#E8E8E8"/>
<path d="M169.524 132.202C169.427 133.488 169.379 134.818 169.427 136.103C169.427 136.414 169.861 139.34 169.717 139.428C169.958 139.384 170.198 139.295 170.439 139.251C170.391 139.251 170.343 139.207 170.247 139.207C170.439 139.428 170.584 139.65 170.777 139.827C170.777 139.783 170.777 139.739 170.777 139.65C170.584 139.872 170.439 140.093 170.247 140.271C170.295 140.271 170.343 140.271 170.391 140.226C171.307 140.049 170.921 138.763 170.006 138.941C169.957 138.941 169.909 138.941 169.861 138.985C169.524 139.029 169.331 139.34 169.331 139.606C169.331 139.65 169.331 139.694 169.331 139.783C169.331 140.049 169.572 140.359 169.861 140.404C171.114 140.625 171.114 139.561 171.066 138.719C170.873 136.502 170.777 134.33 170.969 132.069C171.018 131.315 169.572 131.36 169.524 132.202Z" fill="#E8E8E8"/>
<path d="M170.391 132.512C170.391 132.202 173.475 132.113 173.909 132.158C175.114 132.335 174.873 132.424 175.065 133.222C175.21 133.754 175.017 134.507 174.969 135.039C174.921 136.148 174.921 137.212 174.969 138.32C174.969 138.941 175.451 140.803 175.114 141.246C175.451 141.157 175.788 141.069 176.126 141.024C176.077 141.024 176.029 140.98 175.981 140.98C176.077 141.246 176.222 141.468 176.318 141.734C176.318 141.689 176.366 141.645 176.366 141.601C176.607 140.758 175.21 140.404 174.969 141.246C174.969 141.29 174.921 141.335 174.921 141.379C174.824 141.645 174.969 142 175.258 142.133C175.306 142.133 175.354 142.177 175.403 142.177C175.788 142.31 176.174 142.266 176.415 141.955C176.752 141.512 176.607 141.069 176.559 140.537C176.511 139.34 176.415 138.098 176.415 136.901C176.415 135.704 176.463 134.463 176.511 133.266C176.559 132.734 176.704 132.025 176.318 131.537C175.499 130.517 172.897 130.828 171.837 130.961C170.632 131.094 169.042 131.227 168.946 132.557C168.946 133.355 170.391 133.355 170.391 132.512Z" fill="#E8E8E8"/>
<path d="M170.536 141.512C171.981 141.423 173.427 141.556 174.824 141.867C175.74 142.088 176.125 140.803 175.21 140.581C173.668 140.182 172.126 140.049 170.536 140.138C169.572 140.226 169.572 141.556 170.536 141.512Z" fill="#E8E8E8"/>
<path d="M188.654 120.542C187.498 122.892 186.486 125.33 185.57 127.769C185.281 128.567 186.678 128.921 186.968 128.123C187.835 125.774 188.799 123.468 189.907 121.207C190.293 120.409 189.04 119.744 188.654 120.542Z" fill="#E8E8E8"/>
<path d="M181.282 131.049C183.691 130.429 186.149 130.118 188.702 130.207C189.618 130.251 189.618 128.921 188.702 128.877C186.052 128.788 183.45 129.099 180.896 129.764C179.981 129.985 180.366 131.271 181.282 131.049Z" fill="#E8E8E8"/>
<path d="M181.233 130.429C180.8 131.67 181.137 132.823 181.282 134.064C181.426 135.571 181.426 137.034 181.378 138.542C181.282 140.492 181.812 140.714 183.932 140.537C185.378 140.404 187.353 140.758 187.883 139.295C188.365 137.877 188.221 135.97 188.365 134.463C188.51 132.867 188.702 131.227 188.847 129.631C188.943 128.788 187.498 128.788 187.401 129.631C187.209 131.493 187.016 133.399 186.823 135.261C186.727 136.015 186.775 136.946 186.582 137.699C186.293 138.941 186.149 139.029 184.751 139.162C184.317 139.207 183.932 139.251 183.498 139.295C182.679 139.561 182.438 139.34 182.775 138.586C182.583 137.965 182.872 136.99 182.824 136.325C182.775 134.64 182.053 132.379 182.583 130.783C182.92 129.941 181.523 129.586 181.233 130.429Z" fill="#E8E8E8"/>
<path d="M190.678 121.784C191.786 123.335 192.75 124.976 193.666 126.66C194.051 127.414 195.304 126.749 194.919 125.995C194.051 124.311 193.039 122.715 191.931 121.119C191.401 120.365 190.148 121.03 190.678 121.784Z" fill="#E8E8E8"/>
<path d="M192.317 128.611C194.726 128.611 197.135 128.611 199.545 128.611C200.46 128.611 200.46 127.281 199.545 127.281C199.4 127.281 199.256 127.281 199.111 127.281C198.195 127.281 198.195 128.611 199.111 128.611C199.256 128.611 199.4 128.611 199.545 128.611C200.46 128.611 200.46 127.281 199.545 127.281C197.135 127.281 194.726 127.281 192.317 127.281C191.353 127.281 191.353 128.611 192.317 128.611Z" fill="#E8E8E8"/>
<path d="M191.594 128.567C191.786 130.251 191.931 131.936 191.979 133.621C192.027 134.818 191.594 136.857 192.172 137.965C192.509 138.63 192.943 138.719 193.714 138.719C195.497 138.675 197.424 138.276 199.207 138.054C199.496 138.01 199.737 137.655 199.737 137.433C199.689 134.419 199.641 131.448 199.593 128.434C199.593 127.591 198.147 127.591 198.147 128.434C198.195 131.448 198.244 134.419 198.292 137.433C198.484 137.212 198.629 136.99 198.822 136.813C197.665 136.946 196.509 137.079 195.352 137.256C194.967 137.3 193.859 137.611 193.521 137.345C193.28 137.167 193.521 135.793 193.521 135.527C193.473 133.222 193.328 130.916 193.088 128.655C192.943 127.724 191.497 127.724 191.594 128.567Z" fill="#E8E8E8"/>
<path d="M138.106 132.202C140.611 130.074 143.165 128.079 145.912 126.261C146.635 125.774 145.912 124.621 145.189 125.109C142.346 127.015 139.648 129.054 137.094 131.271C136.419 131.847 137.431 132.778 138.106 132.202Z" fill="#E8E8E8"/>
<path d="M145.478 125.685C146.924 127.591 148.128 129.586 149.092 131.67C149.478 132.468 150.731 131.759 150.345 131.005C149.333 128.877 148.128 126.882 146.731 125.02C146.201 124.311 144.948 124.976 145.478 125.685Z" fill="#E8E8E8"/>
<path d="M131.697 134.64C132.998 134.552 134.251 134.463 135.552 134.374C136.13 134.33 136.756 134.197 137.286 134.241C137.961 134.02 138.154 134.064 137.865 134.419C137.672 134.685 137.576 134.951 137.624 135.261C137.094 137.433 136.997 139.739 136.901 141.955C137.335 141.778 137.72 141.645 138.154 141.468C138.106 141.423 138.057 141.379 138.009 141.29C137.383 140.67 136.371 141.601 136.997 142.221C137.045 142.266 137.094 142.31 137.142 142.399C137.576 142.842 138.347 142.487 138.395 141.911C138.443 140.005 138.636 138.098 138.925 136.236C139.069 135.438 139.696 134.108 139.166 133.31C138.732 132.69 138.009 132.823 137.335 132.867C135.455 133 133.624 133.133 131.745 133.266C130.781 133.399 130.781 134.729 131.697 134.64Z" fill="#E8E8E8"/>
<path d="M132.66 133.355C132.612 133.355 132.564 133.355 132.468 133.355C132.227 133.355 131.986 133.488 131.841 133.665C131.07 134.862 131.118 136.946 130.877 138.32C130.54 140.271 130.203 142.221 129.865 144.172C129.817 144.527 129.962 144.926 130.347 144.97C132.612 145.413 134.732 145.325 136.901 144.571C137.768 144.261 137.383 142.975 136.515 143.285C134.588 143.95 132.757 144.083 130.733 143.684C130.877 143.95 131.07 144.216 131.215 144.482C131.359 143.596 133.046 134.685 132.564 134.64C133.576 134.773 133.576 133.443 132.66 133.355Z" fill="#E8E8E8"/>
<path d="M145.767 133.133L145.719 133.177C146.056 133.177 146.394 133.177 146.731 133.177C146.683 133.177 146.683 133.133 146.635 133.133C146.635 133.443 146.635 133.754 146.635 134.064C146.683 134.02 147.55 134.02 147.743 134.02C148.273 133.975 148.851 133.931 149.381 133.931C150.393 133.887 151.405 133.931 152.417 134.02C152.224 133.621 152.08 133.266 151.887 132.867C151.791 132.911 151.694 133 151.646 133.044C150.731 133.133 150.731 134.463 151.646 134.374C152.176 134.33 152.562 134.197 152.947 133.798C153.381 133.355 153.092 132.69 152.417 132.645C151.02 132.557 149.622 132.512 148.225 132.601C147.55 132.645 146.153 132.512 145.671 133.089C145.43 133.355 145.334 133.798 145.671 134.02C145.719 134.02 145.719 134.064 145.767 134.064C146.056 134.286 146.538 134.374 146.779 134.064L146.827 134.02C147.406 133.443 146.394 132.512 145.767 133.133Z" fill="#E8E8E8"/>
<path d="M145.189 133.443C145.044 135.261 144.9 137.079 144.804 138.896C144.755 139.916 144.129 142.532 144.804 143.463C145.141 143.906 145.478 144.083 146.105 144.039C146.731 144.039 147.406 143.64 147.984 143.507C149.14 143.197 150.345 143.108 151.55 143.108C152.465 143.108 152.465 141.778 151.55 141.778C150.49 141.778 149.43 141.867 148.369 142.088C147.888 142.177 146.972 142.665 146.538 142.576C146.201 142.798 146.056 142.753 146.153 142.399C146.105 142.044 146.105 141.689 146.153 141.29C146.201 138.719 146.442 136.103 146.635 133.532C146.731 132.557 145.285 132.557 145.189 133.443Z" fill="#E8E8E8"/>
<path d="M151.405 133.576C151.02 136.547 150.827 139.517 150.875 142.532C150.875 143.374 152.321 143.374 152.321 142.532C152.273 139.517 152.465 136.547 152.851 133.576C152.995 132.734 151.55 132.734 151.405 133.576Z" fill="#E8E8E8"/>
<path d="M536.327 319.555C547.699 342.564 555.65 366.858 560.035 391.818C560.18 392.66 561.577 392.306 561.433 391.463C557 366.415 549 341.987 537.58 318.89C537.195 318.136 535.942 318.801 536.327 319.555Z" fill="#E8E8E8"/>
<path d="M596.32 280.63C582.25 300.403 570.01 321.239 561.336 343.539C560.999 344.337 562.396 344.692 562.734 343.894C571.359 321.683 583.551 300.979 597.573 281.295C598.055 280.586 596.802 279.921 596.32 280.63Z" fill="#E8E8E8"/>
<path d="M531.412 343.849C539.218 345.8 545.916 350.233 550.398 356.44C550.928 357.149 552.181 356.484 551.651 355.775C546.976 349.302 539.989 344.603 531.797 342.564C530.882 342.342 530.496 343.628 531.412 343.849Z" fill="#E8E8E8"/>
<path d="M550.205 325.451C547.555 329.485 545.772 333.874 545.049 338.574C544.904 339.416 546.302 339.771 546.446 338.928C547.169 334.362 548.856 330.062 551.458 326.116C551.94 325.407 550.687 324.742 550.205 325.451Z" fill="#E8E8E8"/>
<path d="M565.191 300.536C567.552 302.93 569.191 305.678 570.444 308.649C571.022 309.979 571.504 311.353 571.938 312.683C572.371 313.969 573.383 315.875 572.805 317.161C572.468 317.959 573.865 318.313 574.202 317.515C574.781 316.23 574.202 314.944 573.769 313.703C573.19 311.885 572.564 310.067 571.793 308.294C570.444 305.102 568.661 302.132 566.155 299.56C565.577 298.94 564.565 299.871 565.191 300.536Z" fill="#E8E8E8"/>
<path d="M581.527 305.634C587.55 299.25 595.357 294.728 604.223 292.511C605.139 292.29 604.753 291.004 603.838 291.226C594.778 293.487 586.683 298.142 580.515 304.659C579.937 305.324 580.949 306.299 581.527 305.634Z" fill="#E8E8E8"/>
<path d="M564.517 341.234C568.853 337.687 573.961 335.204 579.358 333.342C581.816 332.5 584.273 331.835 586.779 331.17C588.177 330.815 589.526 330.505 590.923 330.15C591.598 330.017 594.441 328.953 594.971 329.219C594.875 328.909 594.778 328.599 594.73 328.288C594.682 328.333 594.682 328.377 594.634 328.421C594.971 328.333 595.308 328.244 595.646 328.2C595.598 328.2 595.549 328.155 595.501 328.155C594.682 327.756 593.959 328.909 594.778 329.308C594.827 329.308 594.875 329.352 594.923 329.352C595.26 329.53 595.694 329.441 595.935 329.131C595.983 329.086 595.983 329.042 596.031 328.998C596.224 328.687 596.128 328.288 595.79 328.067C595.116 327.712 594.393 328.022 593.67 328.155C592.032 328.51 590.393 328.865 588.755 329.264C585.623 330.017 582.491 330.86 579.407 331.835C573.624 333.741 568.131 336.357 563.553 340.17C562.83 340.835 563.842 341.81 564.517 341.234Z" fill="#E8E8E8"/>
<path d="M539.941 395.941C550.88 398.379 562.011 396.562 572.949 395.365C584.804 394.079 596.706 393.857 608.608 393.68C609.524 393.68 609.524 392.35 608.608 392.35C596.995 392.527 585.382 392.749 573.865 393.946C562.734 395.143 551.41 397.138 540.327 394.655C539.459 394.434 539.074 395.719 539.941 395.941Z" fill="#E8E8E8"/>
<path d="M574.443 392.173C593.911 391.242 613.379 390.266 632.847 389.335C633.762 389.291 633.762 387.961 632.847 388.005C613.379 388.936 593.911 389.912 574.443 390.843C573.528 390.887 573.528 392.217 574.443 392.173Z" fill="#E8E8E8"/>
<path d="M518.69 264.182C513.92 265.025 508.089 260.813 508.234 256.158C508.426 250.882 515.606 249.109 520.184 249.065C525.244 249.065 528.81 252.656 527.605 257.355C527.075 259.394 525.678 261.079 523.943 262.365C522.931 263.118 518.835 265.867 517.678 264.537C517.1 263.872 516.088 264.803 516.666 265.468C518.208 267.241 521.389 265.424 523.027 264.581C525.533 263.207 527.798 261.123 528.762 258.552C530.689 253.365 527.268 248.178 521.341 247.779C515.703 247.38 506.981 249.774 506.836 256.158C506.74 261.744 513.39 266.443 519.124 265.468C519.991 265.335 519.606 264.049 518.69 264.182Z" fill="#E8E8E8"/>
<path d="M148.803 285.063C147.02 286.925 145.478 288.965 144.177 291.181C143.743 291.935 144.996 292.6 145.43 291.846C146.683 289.763 148.128 287.812 149.863 285.994C150.441 285.374 149.43 284.398 148.803 285.063Z" fill="#161616"/>
<path d="M148.755 285.595C150.2 287.457 151.646 289.275 153.092 291.137C153.622 291.846 154.875 291.181 154.345 290.472C152.899 288.61 151.453 286.792 150.008 284.93C149.429 284.221 148.177 284.886 148.755 285.595Z" fill="#161616"/>
<path d="M148.659 288.211C149.092 303.861 149.478 319.51 149.912 335.204C149.912 336.047 151.357 336.047 151.357 335.204C150.923 319.555 150.538 303.905 150.104 288.211C150.056 287.369 148.61 287.324 148.659 288.211Z" fill="#161616"/>
<path d="M151.502 336.446C172.897 336.446 194.292 336.446 215.687 336.446C216.603 336.446 216.603 335.116 215.687 335.116C194.292 335.116 172.897 335.116 151.502 335.116C150.586 335.116 150.586 336.446 151.502 336.446Z" fill="#161616"/>
<path d="M212.892 335.116C214.386 335.648 215.832 336.18 217.326 336.712C217.133 336.224 216.892 335.736 216.699 335.249C215.976 336.446 214.964 337.377 213.712 338.086C212.507 338.751 213.615 340.48 214.82 339.815C216.41 338.973 217.711 337.731 218.627 336.268C219.012 335.648 218.627 335.027 218 334.805C216.506 334.273 215.061 333.741 213.567 333.209C212.17 332.722 211.591 334.628 212.892 335.116Z" fill="#161616"/>
<path d="M582.973 95.6714C581.045 93.3218 583.792 89.7307 586.779 91.5041C588.129 92.3021 588.755 93.9424 587.791 95.2281C586.924 96.3808 585.141 96.8684 583.792 96.2478C582.973 95.8488 582.25 97.0014 583.069 97.4004C585.045 98.2871 587.454 97.7551 588.851 96.1591C590.345 94.4301 589.815 91.9918 587.984 90.6618C586.201 89.3761 583.695 89.3761 582.153 90.9721C580.756 92.4351 580.515 94.7847 581.816 96.3807C582.25 97.0014 583.503 96.3364 582.973 95.6714Z" fill="#5222D0"/>
<path d="M623.064 264.271C622.968 262.187 624.655 260.769 626.871 260.769C627.787 260.769 628.51 260.99 629.377 260.636C631.015 259.971 631.642 258.242 632.172 256.779C632.943 254.651 633.521 253.631 636.412 254.296C637.183 254.473 637.665 254.828 638.484 254.562C640.894 253.72 639.448 249.907 643.11 250.528C644.026 250.705 644.412 249.419 643.496 249.242C642.339 249.02 641.231 249.109 640.219 249.774C639.304 250.395 639.207 251.148 638.677 251.946C638.629 252.789 638.003 253.143 636.846 253.01C636.605 252.877 636.316 252.744 636.075 252.656C635.545 252.611 635.256 252.345 634.678 252.39C633.618 252.434 632.798 253.055 632.172 253.764C631.256 254.784 631.015 256.025 630.485 257.266C629.955 258.508 629.425 259.394 627.787 259.527C627.064 259.572 626.389 259.35 625.667 259.439C623.113 259.793 621.474 261.966 621.571 264.271C621.667 265.158 623.113 265.158 623.064 264.271Z" fill="#5222D0"/>
<path d="M165.91 333.919C172.704 321.372 173.764 307.23 177.764 293.886C178.776 290.472 179.788 286.482 182.583 283.911C186.679 280.142 191.883 282.802 193.569 287.236C194.822 290.605 194.87 294.506 195.111 298.053C195.352 301.866 195.545 305.678 195.786 309.491C196.316 317.648 197.232 325.85 200.219 333.608C200.508 334.406 201.906 334.052 201.617 333.254C198.484 325.096 197.617 316.451 197.135 307.851C196.894 303.639 196.702 299.383 196.364 295.171C196.075 291.802 195.931 288.122 194.196 285.063C192.847 282.669 190.244 280.719 187.209 280.719C184.076 280.719 181.474 282.714 179.884 285.019C177.812 288.078 176.848 291.935 175.885 295.393C174.824 299.25 173.957 303.151 173.09 307.053C171.162 316.008 169.186 325.008 164.705 333.254C164.223 334.007 165.476 334.672 165.91 333.919Z" fill="#5222D0"/>
<path d="M172.511 278.945C171.548 277.66 173.523 275.931 174.68 277.349C175.788 278.679 173.716 280.009 172.56 278.99C171.885 278.413 170.873 279.344 171.548 279.921C172.56 280.807 174.198 280.896 175.355 280.142C176.656 279.3 176.8 277.704 175.836 276.551C174.873 275.399 173.09 275.088 171.885 276.064C170.825 276.95 170.488 278.502 171.307 279.61C171.789 280.32 173.042 279.655 172.511 278.945Z" fill="#5222D0"/>
<path d="M183.161 273.049C182.39 272.029 184.076 271.098 184.799 272.162C185.57 273.315 183.402 274.601 182.679 273.315C182.245 272.561 181.041 273.226 181.426 273.98C182.053 275.177 183.739 275.487 184.944 274.822C186.197 274.157 186.775 272.65 186.004 271.453C185.329 270.433 183.739 269.901 182.583 270.566C181.474 271.231 181.089 272.65 181.812 273.67C182.438 274.423 183.691 273.758 183.161 273.049Z" fill="#5222D0"/>
<path d="M178.969 263.296C178.583 262.276 179.788 261.212 180.751 262.054C181.715 262.897 180.607 264.094 179.499 263.739C178.631 263.473 178.246 264.759 179.113 265.025C181.619 265.778 183.739 262.852 181.763 261.123C180.896 260.325 179.547 260.192 178.535 260.857C177.619 261.478 177.137 262.631 177.571 263.65C177.908 264.448 179.306 264.138 178.969 263.296Z" fill="#5222D0"/>
<path d="M197.376 275.133C197.232 275.044 197.424 275.177 197.473 275.266C197.473 275.31 197.473 275.354 197.473 275.399C197.473 275.443 197.473 275.443 197.473 275.354V275.399C197.569 275.354 197.473 275.399 197.473 275.399C197.424 275.399 197.617 275.399 197.665 275.399C197.81 275.399 197.954 275.443 198.099 275.487C197.906 275.266 197.762 275.044 197.569 274.867C197.569 275.221 197.569 275.576 197.569 275.931C197.762 275.709 197.906 275.487 198.099 275.31C197.714 275.443 197.328 275.487 196.943 275.399C196.075 275.133 195.69 276.418 196.557 276.684C197.183 276.862 197.906 276.862 198.485 276.596C198.774 276.463 199.015 276.285 199.015 275.975C199.015 275.62 199.015 275.266 199.015 274.911C199.015 274.601 198.774 274.335 198.485 274.29C197.714 274.113 196.798 274.024 196.316 274.734C195.931 275.266 195.979 276.108 196.702 276.374C197.039 276.551 197.473 276.463 197.714 276.152C197.858 275.753 197.762 275.31 197.376 275.133Z" fill="#5222D0"/>
<path d="M277.849 98.6418C278.09 98.7305 277.56 100.947 277.801 101.479C278.138 102.144 278.909 102.543 279.68 102.632C280.74 102.809 281.656 102.366 282.523 101.878C283.391 101.39 285.463 99.7058 286.089 101.568C286.234 101.967 285.752 102.942 285.896 103.474C286.33 105.247 288.161 105.159 289.462 104.228C289.944 103.873 290.233 103.43 290.619 103.031C291.101 101.967 291.823 101.745 292.739 102.366C292.739 102.632 292.787 102.898 292.884 103.119C293.365 103.784 293.606 104.228 294.57 104.183C295.486 104.139 295.486 102.809 294.57 102.853C294.618 102.853 293.558 100.858 292.98 100.637C292.305 100.371 291.534 100.592 290.908 100.947C290.474 101.169 290.137 101.523 289.8 101.834C289.077 102.499 289.125 103.474 287.968 102.809C286.86 102.188 287.776 101.213 287.005 100.326C285.752 98.8635 283.632 99.6615 282.282 100.459C281.511 100.903 279.584 102.499 279.102 100.149C279.054 99.8388 279.343 99.3511 279.343 99.0408C279.343 98.3315 279.198 97.9325 278.524 97.6221C277.753 97.0901 277.03 98.2428 277.849 98.6418Z" fill="#5222D0"/>
<path d="M227.445 202.337C228.023 208.544 228.602 214.751 229.228 220.957C229.324 221.8 230.577 221.8 230.674 220.957C230.674 220.824 230.722 220.647 230.722 220.514C230.818 219.672 229.373 219.672 229.276 220.514C229.276 220.647 229.228 220.824 229.228 220.957C229.71 220.957 230.192 220.957 230.674 220.957C230.095 214.751 229.517 208.544 228.891 202.337C228.794 201.495 227.349 201.451 227.445 202.337Z" fill="#EC615B"/>
<path d="M228.554 202.825C230.577 202.426 234.095 201.85 235.637 203.401C237.035 204.776 236.697 207.48 236.89 209.342C237.227 213.066 237.565 216.79 237.902 220.47C237.998 221.312 239.444 221.312 239.348 220.47C238.866 215.15 238.817 209.564 237.854 204.288C237.131 200.165 231.541 200.919 228.168 201.539C227.252 201.717 227.638 203.002 228.554 202.825Z" fill="#EC615B"/>
<path d="M240.889 177.821C242.431 192.008 242.961 206.239 242.48 220.514C242.431 221.356 243.877 221.356 243.925 220.514C244.407 206.283 243.877 192.008 242.335 177.821C242.239 176.979 240.793 176.934 240.889 177.821Z" fill="#EC615B"/>
<path d="M242.624 177.821C244.6 178.087 247.009 178.087 248.84 178.708C251.298 179.506 250.912 183.584 251.153 185.668C251.587 189.702 251.876 193.737 252.165 197.771C252.695 206.15 252.888 214.529 253.081 222.908C253.081 223.75 254.526 223.75 254.526 222.908C254.285 213.243 254.045 203.534 253.322 193.87C252.984 189.348 252.743 184.781 251.972 180.304C251.298 176.491 246.335 176.979 243.01 176.491C242.094 176.447 241.709 177.688 242.624 177.821Z" fill="#EC615B"/>
<path d="M254.864 169.486C256.502 186.333 258.189 203.135 259.827 219.982C259.923 220.824 261.369 220.824 261.273 219.982C259.634 203.135 257.948 186.333 256.309 169.486C256.261 168.644 254.816 168.644 254.864 169.486Z" fill="#EC615B"/>
<path d="M255.779 170.151C258.092 169.752 260.454 169.619 262.815 169.841C264.79 170.018 266.188 170.373 266.284 172.324C266.332 172.989 266.332 173.698 266.332 174.363C266.477 177.688 266.622 181.013 266.814 184.338C267.441 197.062 268.164 209.741 268.886 222.465C268.935 223.307 270.38 223.307 270.332 222.465C269.561 208.721 268.79 195.022 268.115 181.279C267.971 178.397 267.826 175.56 267.73 172.678C267.682 171.393 267.682 170.107 266.381 169.265C265.176 168.511 263.297 168.467 261.899 168.422C259.731 168.289 257.562 168.467 255.394 168.866C254.478 169.043 254.864 170.329 255.779 170.151Z" fill="#EC615B"/>
<path d="M217.085 165.23C215.495 168.112 213.953 170.994 212.362 173.875C211.929 174.629 213.182 175.294 213.615 174.54C215.205 171.659 216.747 168.777 218.338 165.895C218.723 165.142 217.47 164.432 217.085 165.23Z" fill="#161616"/>
<path d="M217.278 166.56C217.952 169.132 219.446 171.393 221.663 173.077C222.386 173.609 223.397 172.678 222.675 172.146C220.651 170.595 219.301 168.6 218.675 166.25C218.434 165.363 217.037 165.718 217.278 166.56Z" fill="#161616"/>
<path d="M216.266 167.181C215.976 186.599 218.723 205.973 224.457 224.681C224.698 225.524 226.096 225.169 225.855 224.327C220.169 205.751 217.422 186.51 217.711 167.181C217.711 166.339 216.266 166.339 216.266 167.181Z" fill="#161616"/>
<path d="M226.192 225.834C237.468 224.859 248.792 224.327 260.116 224.282C270.669 224.238 282.09 223.839 291.824 228.228C292.643 228.583 293.366 227.474 292.546 227.075C283.102 222.819 272.308 222.908 261.996 222.952C250.045 222.952 238.095 223.484 226.192 224.504C225.277 224.593 225.277 225.923 226.192 225.834Z" fill="#161616"/>
<path d="M285.896 223.662C288.499 225.125 291.004 226.721 293.317 228.494C293.366 228.139 293.414 227.785 293.462 227.43C291.486 228.804 289.559 230.179 287.583 231.553C286.86 232.085 287.583 233.238 288.306 232.706C290.282 231.331 292.209 229.957 294.185 228.583C294.522 228.361 294.715 227.829 294.329 227.519C291.872 225.657 289.318 223.972 286.619 222.509C285.8 222.11 285.077 223.218 285.896 223.662Z" fill="#161616"/>
<path d="M220.747 189.658C221.47 190.456 222.193 191.254 222.916 192.052C223.205 192.362 223.831 192.274 224.072 191.919C227.927 184.959 231.734 177.954 235.637 170.994C236.649 169.22 238.046 170.683 239.492 171.171C240.408 171.481 241.371 171.393 242.287 171.082C244.6 170.284 246.142 168.068 247.202 166.117C248.937 162.792 250.479 159.334 252.165 155.965C252.599 155.034 253.081 154.103 253.515 153.216C253.756 152.684 254.045 151.576 254.527 151.177C256.02 149.935 259.683 152.773 260.936 153.482C263.008 154.635 265.995 157.206 268.694 156.541C270.718 156.053 271.681 154.014 272.26 152.329C275.054 144.748 278.62 137.877 284.114 131.626C284.547 131.138 284.162 130.296 283.391 130.517C280.885 131.271 278.62 132.424 276.548 133.887C275.874 134.374 276.741 135.261 277.416 134.951C279.295 134.108 281.222 133.222 283.102 132.379C282.764 132.246 282.379 132.113 282.042 131.98C282.62 134.64 283.198 137.3 283.728 139.96C283.921 140.803 285.318 140.448 285.126 139.606C284.547 136.946 283.969 134.286 283.439 131.626C283.343 131.182 282.764 131.049 282.379 131.227C280.5 132.069 278.572 132.956 276.693 133.798C276.982 134.153 277.271 134.507 277.56 134.862C279.44 133.488 281.463 132.512 283.776 131.803C283.536 131.448 283.295 131.049 283.054 130.695C278.861 135.483 275.392 140.758 272.886 146.477C272.211 147.985 271.633 149.536 271.103 151.088C270.669 152.329 269.995 154.989 268.212 155.255C266.188 155.566 263.586 153.438 261.947 152.507C260.309 151.576 258.719 150.556 257.032 149.714C255.105 148.783 253.9 149.137 252.936 150.866C251.105 154.191 249.611 157.738 247.925 161.152C246.672 163.723 245.082 168.91 241.661 169.752C239.348 170.329 237.227 167.137 235.155 168.999C233.951 170.063 233.324 172.058 232.601 173.388C231.493 175.383 230.433 177.333 229.325 179.328C227.156 183.274 224.939 187.22 222.771 191.165C223.157 191.121 223.542 191.077 223.928 191.032C223.205 190.234 222.482 189.436 221.759 188.638C221.133 188.062 220.121 188.993 220.747 189.658Z" fill="#161616"/>
<path d="M430.507 79.4897C425.785 77.0957 423.761 71.0221 426.749 66.7217C429.784 62.3327 437.157 61.5347 441.446 64.7711C445.831 68.1404 445.879 75.0564 441.687 78.5587C437.35 82.2384 430.074 81.2631 426.508 77.1844C425.929 76.5194 424.918 77.4504 425.496 78.1154C428.821 81.8394 434.748 83.1694 439.615 81.3074C444.337 79.4897 446.795 74.7904 446.168 70.2241C445.542 65.5247 441.735 62.0224 436.627 61.4904C431.76 60.9584 426.556 63.1751 424.725 67.5197C422.701 72.3077 424.966 78.1154 429.833 80.5537C430.604 81.0414 431.326 79.8887 430.507 79.4897Z" fill="#EC615B"/>
<path d="M451.421 87.647C449.397 84.189 454.601 80.3764 457.203 84.1004C459.516 87.381 453.83 89.8637 451.999 86.8047C451.565 86.051 450.312 86.716 450.746 87.4697C451.902 89.4204 454.601 89.9524 456.721 89.11C459.227 88.1347 459.853 85.4747 458.456 83.4354C457.01 81.3074 454.023 80.465 451.71 81.9724C449.541 83.391 448.867 86.184 450.119 88.3564C450.65 89.0657 451.902 88.4007 451.421 87.647Z" fill="#EC615B"/>
<path d="M426.074 422.984C463.997 422.984 501.873 422.984 539.796 422.984C540.712 422.984 540.712 421.654 539.796 421.654C501.873 421.654 463.997 421.654 426.074 421.654C425.11 421.654 425.11 422.984 426.074 422.984Z" fill="#161616"/>
<path d="M563.601 422.984C570.829 422.984 578.057 422.984 585.285 422.984C586.201 422.984 586.201 421.654 585.285 421.654C578.057 421.654 570.829 421.654 563.601 421.654C562.685 421.654 562.685 422.984 563.601 422.984Z" fill="#161616"/>
<path d="M316.833 443.112C342.035 443.112 367.285 443.112 392.487 443.112C393.403 443.112 393.403 441.782 392.487 441.782C367.285 441.782 342.035 441.782 316.833 441.782C315.917 441.782 315.917 443.112 316.833 443.112Z" fill="#161616"/>
<path d="M391.524 437.792C413.353 437.792 435.23 437.792 457.059 437.792C457.974 437.792 457.974 436.462 457.059 436.462C435.23 436.462 413.353 436.462 391.524 436.462C390.608 436.462 390.608 437.792 391.524 437.792Z" fill="#161616"/>
<path d="M215.398 434.156C222 434.156 228.553 434.156 235.155 434.156C236.553 434.156 236.553 432.161 235.155 432.161C228.553 432.161 222 432.161 215.398 432.161C214.001 432.161 214.001 434.156 215.398 434.156Z" fill="#161616"/>
<path d="M241.901 434.156C244.166 434.156 246.383 434.156 248.648 434.156C250.045 434.156 250.045 432.161 248.648 432.161C246.383 432.161 244.166 432.161 241.901 432.161C240.504 432.161 240.504 434.156 241.901 434.156Z" fill="#161616"/>
<path d="M187.353 353.647C188.268 353.78 189.521 354.844 190.485 359.898C193.328 360.075 196.171 360.253 199.014 360.43C201.375 358.612 203.737 356.795 206.098 354.933C206.435 356.706 206.869 359.322 207.254 362.514C208.122 369.917 207.592 371.691 208.122 375.814C208.363 377.631 209.471 385.301 214.627 392.749C218.578 398.468 221.181 398.645 224.265 404.231C226.674 408.62 227.397 412.743 227.686 415.448C228.168 415.403 234.288 414.96 238.191 419.349C239.974 421.388 241.949 425.201 240.456 428.216C239.01 431.142 235.685 430.698 229.662 435.531C227.541 437.215 225.517 438.9 225.999 440.23C226.481 441.604 229.083 441.338 233.661 443.599C236.07 444.796 237.227 445.417 237.612 446.481C239.058 450.338 229.902 456.279 228.553 457.165C224.12 460.003 218.723 462.219 218.048 461.333C217.036 460.003 227.927 452.688 226.288 449.85C225.084 447.722 218.241 450.382 216.651 448.033C214.916 445.461 221.036 439.033 224.313 435.531C230.625 428.792 234.625 427.107 233.95 424.846C233.227 422.452 227.734 420.856 224.891 422.497C222.482 423.871 222.963 426.974 222.048 429.014C220.313 432.915 212.025 436.107 183.498 433.181C183.883 432.472 184.462 431.629 185.184 430.831C187.642 428.216 190.726 427.285 192.268 426.93C191.834 426.265 189.329 422.319 190.871 417.531C192.027 413.896 194.774 411.901 195.689 411.28C193.762 407.778 191.834 403.965 190.003 399.798C188.847 397.094 187.787 394.478 186.871 391.951C184.173 391.951 181.04 391.508 178.631 389.601C175.017 386.675 176.463 383.084 172.704 380.469C169.186 377.986 164.994 379.094 164.271 376.966C163.934 375.947 164.608 374.75 165.331 374.129C167.162 372.533 170.439 373.331 174.005 374.218C176.463 374.838 179.98 375.991 183.883 378.163C182.582 376.434 180.221 372.799 180.077 367.967C179.739 360.696 184.558 353.292 187.353 353.647Z" fill="#161616"/>
<path d="M185.666 385.478C182.341 386.808 183.594 395.808 184.799 404.01C185.57 409.197 186.871 416.068 189.329 424.093C182.582 428.881 182.92 430.255 183.112 430.61C183.739 431.807 188.22 431.097 189.618 430.876C191.112 430.654 193.232 430.299 194.436 429.59C197.858 427.506 196.075 421.167 195.015 411.059C193.473 396.429 195.304 390.311 190.196 386.808C189.521 386.321 187.305 384.813 185.666 385.478Z" fill="#161616"/>
<path d="M152.706 403.832C152.851 403.788 154.104 403.212 154.055 403.167C153.959 403.123 153.959 403.832 153.959 404.01C153.911 404.586 153.718 405.295 153.814 405.916C154.007 406.803 154.73 407.246 155.694 407.157C156.224 407.113 156.609 406.891 157.043 406.581C157.139 406.492 157.814 405.96 157.862 405.96C157.959 406.005 157.959 406.98 158.007 407.069C158.2 407.911 158.874 408.62 159.886 408.532C160.802 408.443 160.802 407.113 159.886 407.202C159.404 407.246 159.26 404.852 158.44 404.586C158.103 404.453 157.718 404.542 157.429 404.675C156.706 404.985 155.646 406.404 155.308 405.162C155.067 404.231 156.079 402.901 155.164 402.103C154.296 401.35 152.851 402.236 152.032 402.635C151.164 403.079 151.887 404.231 152.706 403.832Z" fill="white"/>
<path d="M185.859 368.1C186.678 367.39 188.076 367.568 188.654 368.454C189.039 368.986 189.955 368.499 189.57 367.967C188.606 366.548 186.389 366.282 185.088 367.39C184.606 367.834 185.377 368.543 185.859 368.1Z" fill="white"/>
<path d="M196.171 367.789C197.039 366.991 198.484 366.947 199.4 367.701C199.93 368.144 200.701 367.435 200.171 366.991C198.822 365.839 196.701 365.883 195.4 367.08C194.918 367.523 195.689 368.233 196.171 367.789Z" fill="white"/>
<path d="M187.738 372.976C187.208 373.952 184.944 377.321 187.401 377.587C188.413 377.676 189.377 376.833 189.955 376.213C190.774 375.326 191.256 374.218 191.69 373.154C192.027 372.356 190.63 372.001 190.292 372.799C189.762 374.04 189.184 375.193 188.028 376.08C187.787 376.257 187.642 376.567 187.738 376.168C187.787 375.902 187.931 375.636 188.076 375.415C188.365 374.838 188.654 374.262 188.991 373.686C189.377 372.843 188.124 372.178 187.738 372.976Z" fill="#EC615B"/>
<path d="M189.04 373.686C189.666 373.42 190.148 373.065 190.726 372.71C190.533 372.755 190.341 372.755 190.148 372.799C190.196 372.799 190.244 372.843 190.292 372.843C190.148 372.755 190.003 372.622 189.859 372.533C189.859 372.267 189.811 372.267 189.618 372.577C189.473 372.71 189.377 372.843 189.232 373.021C188.991 373.287 188.799 373.553 188.606 373.819C188.172 374.439 187.787 375.06 187.401 375.725C186.968 376.479 188.22 377.144 188.654 376.39C189.088 375.681 189.521 374.927 190.003 374.262C190.389 373.73 191.208 373.154 191.256 372.489C191.304 372.001 190.871 371.558 190.389 371.558C190.052 371.513 189.811 371.691 189.57 371.868C189.136 372.178 188.75 372.4 188.22 372.622C187.498 372.843 188.22 373.996 189.04 373.686Z" fill="#EC615B"/>
<path d="M187.594 372.932C189.184 372.976 190.678 371.912 190.967 370.449C191.063 369.829 190.051 369.563 189.907 370.183C189.714 371.247 188.75 372.001 187.594 371.957C186.871 371.912 186.871 372.888 187.594 372.932Z" fill="white"/>
<path d="M190.051 370.139C190.244 371.912 191.931 373.331 193.906 373.198C194.581 373.154 194.581 372.134 193.906 372.178C192.557 372.267 191.256 371.425 191.112 370.139C191.063 369.518 190.003 369.518 190.051 370.139Z" fill="white"/>
<path d="M482.887 286.571C466.937 304.348 451.035 322.082 435.085 339.859C460.094 345.578 485.103 351.297 510.113 357.016C510.932 347.485 511.125 328.022 499.608 307.673C494.404 298.452 488.187 291.536 482.887 286.571Z" fill="#5222D0"/>
<path d="M430.411 343.45C455.661 349.302 480.959 355.11 506.21 360.962C505.92 364.686 505.101 369.873 502.692 375.636C499.849 382.552 495.849 387.562 492.958 390.665C472.141 374.927 451.276 359.189 430.411 343.45Z" fill="#EC615B"/>
<path d="M426.704 422.319C473.091 422.319 510.695 386.85 510.695 343.096C510.695 299.342 473.091 263.872 426.704 263.872C380.317 263.872 342.713 299.342 342.713 343.096C342.713 386.85 380.317 422.319 426.704 422.319Z" stroke="#161616" stroke-width="3" stroke-miterlimit="10"/>
<path d="M427.76 341.411C427.953 341.234 428.435 341.367 428.531 341.588C428.58 341.411 428.58 341.234 428.628 341.056C428.58 341.145 428.435 341.101 428.387 341.056C428.001 340.923 427.616 341.189 427.519 341.5C427.423 341.854 427.664 342.209 428.001 342.298C428.58 342.475 429.254 342.342 429.64 341.943C430.122 341.5 429.977 340.879 429.543 340.48C428.772 339.771 427.568 339.726 426.797 340.391C426.026 341.012 427.038 341.987 427.76 341.411Z" fill="#161616"/>
<path d="M478.55 281.295C463.178 301.866 446.65 321.727 429.061 340.746C428.483 341.411 429.495 342.342 430.073 341.677C447.758 322.569 464.335 302.664 479.803 281.96C480.333 281.251 479.08 280.586 478.55 281.295Z" fill="#161616"/>
<path d="M428.339 342.253C455.516 346.731 482.501 352.007 509.294 358.125C510.209 358.346 510.595 357.061 509.679 356.839C482.887 350.765 455.902 345.445 428.724 340.968C427.809 340.835 427.423 342.12 428.339 342.253Z" fill="#161616"/>
<path d="M428.242 342.032C448.818 359.366 470.021 376.035 491.85 392.084C492.573 392.616 493.585 391.685 492.862 391.153C471.081 375.149 449.83 358.435 429.254 341.101C428.58 340.524 427.52 341.455 428.242 342.032Z" fill="#161616"/>
<path opacity="0.21" d="M426.748 264.05C428.531 271.365 429.736 281.783 425.351 292.423C415.376 316.718 386.415 317.915 375.429 337.732C369.453 348.505 367.96 366.327 386.849 397.36C386.849 402.592 386.849 407.779 386.849 413.01C381.259 410.128 375.091 406.227 369.164 400.907C346.661 380.647 343.191 354.18 342.469 344.116C342.517 336.845 343.625 313.216 362.563 292.113C366.851 287.325 382.079 270.922 408.003 265.646C415.569 264.139 422.122 263.917 426.748 264.05Z" fill="#6D6C6C"/>
<path d="M284.113 388.36C287.438 396.074 290.763 403.744 294.04 411.458C292.064 415.448 289.029 421.344 284.836 428.393C279.343 437.614 276.741 440.718 277.608 441.649C278.861 442.979 287.005 439.654 318.616 417.886C316.64 412.832 314.616 407.734 312.64 402.547C309.749 395.01 306.954 387.562 304.208 380.158C297.558 382.907 290.86 385.656 284.113 388.36Z" fill="#161616"/>
<path d="M372.971 253.232C378.32 261.611 374.513 274.601 373.983 276.33C371.044 286.393 364.394 287.369 340.011 308.604C324.735 321.949 320.35 327.357 317.122 333.298C312.737 341.455 311.147 349.036 310.52 354.179C312.496 364.819 314.472 375.415 316.447 386.055C311.388 389.069 304.304 392.66 295.245 395.187C288.884 396.961 283.102 397.847 278.331 398.246C273.898 387.917 267.537 368.853 270.958 345.667C275.102 317.427 291.342 298.94 304.834 283.6C325.362 260.281 349.118 245.163 369.453 235.41C368.779 238.735 368.393 243.523 370.417 248.577C371.381 250.971 372.441 252.39 372.971 253.232Z" fill="#EC615B"/>
<path opacity="0.2" d="M364.972 241.218C358.949 256.202 351.72 267.818 345.167 276.551C325.651 302.664 311.243 304.792 299.726 329.042C292.353 344.559 290.763 359.366 290.281 364.686C289.077 377.055 290.137 387.562 291.486 395.276C294.185 395.187 297.558 394.833 301.268 393.857C308.448 391.951 313.556 388.626 316.495 386.276C315.676 382.685 314.472 377.365 313.122 370.848C311.291 361.804 310.376 357.238 310.376 354.002C310.376 344.47 314.761 337.288 318.327 331.569C320.013 328.865 324.928 321.372 342.131 306.875C360.298 291.58 367.863 288.92 372.634 277.704C375.477 271.01 375.429 265.69 375.381 263.961C374.947 252.301 367.815 244.144 364.972 241.218Z" fill="#6D6C6C"/>
<path opacity="0.27" d="M375.332 267.596C365.454 275.221 351.335 286.615 335.096 301.245C311.532 322.525 307.34 328.732 305.509 331.835C300.401 340.48 291.631 360.164 300.304 393.015C303.147 391.951 306.087 390.754 309.171 389.38C311.628 388.271 313.99 387.119 316.206 386.01C314.279 375.636 312.351 365.262 310.424 354.844C310.568 350.943 311.243 345.091 314.086 338.574C314.761 337.022 316.736 332.722 321.7 326.515C325.651 321.55 329.458 318.18 336.927 311.663C342.902 306.432 348.685 300.935 354.901 295.969C366.08 287.058 371.092 284.62 373.79 277.748C375.381 273.714 375.477 270.034 375.332 267.596Z" fill="#6D6C6C"/>
<path d="M337.168 387.385C344.492 392.572 351.817 397.759 359.141 402.946C349.408 425.644 349.408 431.541 351.383 432.56C354.66 434.289 365.406 423.605 371.526 415.758C376.971 408.709 380.151 402.103 381.982 397.493C378.995 393.99 375.573 390.355 371.767 386.631C366.514 381.488 361.358 377.099 356.491 373.287C350.082 378.03 343.625 382.685 337.168 387.385Z" fill="#161616"/>
<path d="M412.34 253.232C416.629 263.695 414.027 273.803 413.352 276.33C408.437 295.127 390.174 310.644 383.717 316.052C372.682 325.362 363.527 330.017 358.419 342.431C356.636 346.687 355.913 350.455 355.624 353.026C359.141 360.43 362.659 367.834 366.177 375.193C363.864 379.759 358.804 388.183 348.588 394.611C344.252 397.36 340.011 399.044 336.542 400.153C329.217 393.281 309.364 372.888 310.424 345.623C311.243 324.697 324.109 307.851 334.036 294.772C344.011 281.694 346.565 283.29 359.141 266.576C370.032 252.079 372.104 245.474 381.26 242.548C390.463 239.577 403.956 241.218 409.883 248.577C411.039 250.129 411.569 251.414 412.34 253.232Z" fill="#EC615B"/>
<path opacity="0.24" d="M389.933 251.237C390.463 255.316 390.849 262.32 388.632 270.389C380.922 297.831 352.684 300.225 339.095 329.929C336.445 335.736 330.277 349.79 335.144 366.06C338.903 378.74 347.673 386.986 352.636 390.976C354.564 390.045 357.744 388.183 360.539 384.902C364.008 380.823 365.117 376.656 365.502 374.572C362.081 366.991 358.66 359.366 355.286 351.785C355.913 348.416 357.214 343.583 360.25 338.396C364.394 331.214 369.405 327.579 375.862 322.215C387.717 312.417 395.282 306.21 401.836 297.654C405.98 292.201 412.003 284.177 413.979 272.428C415.617 262.852 413.882 254.828 412.389 249.996C404.92 250.439 397.402 250.838 389.933 251.237Z" fill="#6D6C6C"/>
<path opacity="0.25" d="M414.461 265.468C410.654 271.896 404.1 281.916 393.981 292.644C374.513 313.259 361.31 317.56 352.251 333.431C348.347 340.258 344.782 351.519 349.167 369.607C354.708 371.646 360.298 373.686 365.839 375.769C362.322 368.144 358.852 360.563 355.335 352.938C355.672 349.169 356.684 343.583 360.105 337.82C363.141 332.677 366.514 329.973 373.935 323.766C386.223 313.481 392.391 308.338 394.897 305.767C400.631 299.959 406.895 293.442 410.847 283.379C413.738 276.241 414.364 269.813 414.461 265.468Z" fill="#6D6C6C"/>
<path d="M297.172 191.431C295.871 188.771 293.606 184.914 289.462 181.412C284.258 177.023 276.982 173.875 275.825 175.161C275.343 175.693 275.392 177.555 284.162 186.466" fill="white"/>
<path d="M297.172 191.431C295.871 188.771 293.606 184.914 289.462 181.412C284.258 177.023 276.982 173.875 275.825 175.161C275.343 175.693 275.392 177.555 284.162 186.466" stroke="#161616" stroke-width="2" stroke-miterlimit="10"/>
<path d="M279.005 184.161C277.126 185.225 273.801 187.486 272.018 191.387C271.344 192.894 270.476 194.845 271.103 197.106C272.211 201.007 277.319 202.648 277.753 202.825C279.825 203.49 280.355 203.002 281.849 203.8C284.258 205.086 284.162 206.815 285.944 208.411C289.607 211.647 297.028 210.362 297.365 208.987C297.558 208.234 295.437 207.524 295.63 206.15C295.727 205.308 296.642 204.953 297.269 204.421C300.642 201.584 297.413 193.293 296.835 191.919C296.305 190.633 295.486 188.771 294.04 186.688" fill="white"/>
<path d="M279.005 184.161C277.126 185.225 273.801 187.486 272.018 191.387C271.344 192.894 270.476 194.845 271.103 197.106C272.211 201.007 277.319 202.648 277.753 202.825C279.825 203.49 280.355 203.002 281.849 203.8C284.258 205.086 284.162 206.815 285.944 208.411C289.607 211.647 297.028 210.362 297.365 208.987C297.558 208.234 295.437 207.524 295.63 206.15C295.727 205.308 296.642 204.953 297.269 204.421C300.642 201.584 297.413 193.293 296.835 191.919C296.305 190.633 295.486 188.771 294.04 186.688" stroke="#161616" stroke-width="2" stroke-miterlimit="10"/>
<path d="M270.284 196.53C271.392 199.19 273.512 201.539 276.452 202.603C279.439 203.712 281.656 202.249 281.704 199.323C281.704 198.48 280.258 198.48 280.258 199.323C280.21 202.736 276.548 201.495 274.717 200.121C273.319 199.101 272.307 197.727 271.681 196.175C271.344 195.377 269.946 195.687 270.284 196.53Z" fill="#161616"/>
<path d="M273.898 192.894C275.343 195.377 277.271 198.126 280.258 199.145C282.957 200.076 284.547 198.569 284.836 196.219C284.932 195.377 283.487 195.377 283.39 196.219C282.957 199.722 279.246 197.283 277.945 196.042C276.789 194.934 275.921 193.604 275.15 192.229C274.717 191.476 273.464 192.141 273.898 192.894Z" fill="#161616"/>
<path d="M278.234 186.909C279.102 188.683 279.969 190.5 281.174 192.096C281.993 193.205 283.15 194.801 284.74 195.067C288.498 195.732 287.294 190.811 286.571 189.126C286.234 188.328 284.836 188.683 285.173 189.481C285.511 190.234 286.234 191.786 285.944 192.628C285.125 195.067 282.909 192.052 282.427 191.431C281.222 189.835 280.355 188.018 279.487 186.244C279.102 185.446 277.849 186.111 278.234 186.909Z" fill="#161616"/>
<path d="M278.957 184.914C280.403 184.249 282.186 185.446 283.198 186.333C284.21 187.22 284.884 188.372 285.415 189.525C285.752 190.323 287.149 189.968 286.812 189.17C285.607 186.422 282.041 182.033 278.235 183.762C277.415 184.116 278.138 185.269 278.957 184.914Z" fill="#161616"/>
<path d="M383.476 171.304C385.018 175.516 382.657 179.107 376.055 189.924C364.972 207.923 364.297 209.519 361.744 212.357C355.72 219.007 352.299 222.775 345.986 225.213C334.469 229.647 321.7 225.745 314.712 223.307C308.207 221.002 303.388 218.031 300.256 215.815C298.136 214.219 296.498 212.977 295.437 212.224C293.221 210.583 292.209 209.874 291.342 208.455C291.293 208.411 290.474 207.037 290.281 205.485C289.559 200.741 294.666 196.751 295.052 196.441C288.932 197.771 286.812 197.505 286.426 196.707C285.511 194.934 292.161 188.417 296.835 189.88C299.052 190.545 300.16 192.85 300.979 194.535C302.569 197.727 302.376 200.697 302.184 202.204C305.123 204.066 309.315 206.239 314.664 207.702C325.217 210.539 334.277 209.032 338.758 207.968C341.216 204.332 345.215 198.392 350.082 190.988C363.382 170.683 366.9 164.255 373.019 164.166C377.597 164.122 382.127 167.624 383.476 171.304Z" fill="white" stroke="#161616" stroke-width="2" stroke-miterlimit="10"/>
<path d="M294.618 197.594C290.474 197.416 289.896 202.337 289.366 205.13C289.848 205.175 290.33 205.263 290.763 205.308C290.812 203.534 291.679 202.071 292.594 200.564C293.076 199.81 291.823 199.145 291.342 199.899C289.462 202.692 288.306 206.15 290.908 208.899C291.245 208.588 291.583 208.278 291.92 207.968C291.197 207.391 290.812 206.638 290.763 205.707C290.281 205.751 289.8 205.84 289.366 205.884C289.607 206.593 289.896 207.258 290.281 207.923C290.715 208.677 291.968 208.012 291.534 207.258C291.197 206.726 290.908 206.15 290.763 205.529C290.571 204.82 289.27 204.953 289.366 205.707C289.51 206.992 289.944 207.968 290.956 208.899C291.631 209.519 292.594 208.588 291.968 207.968C289.848 205.707 291.197 202.825 292.643 200.564C292.209 200.342 291.823 200.121 291.39 199.899C290.33 201.628 289.414 203.268 289.366 205.308C289.318 206.061 290.667 206.239 290.763 205.485C291.149 203.446 291.486 198.835 294.618 198.924C295.534 198.968 295.534 197.638 294.618 197.594Z" fill="white"/>
<path opacity="0.21" d="M376.103 165.984C373.067 173.476 368.152 184.161 360.394 196.264C352.491 208.633 348.347 214.839 341.215 218.12C326.566 224.814 303.967 220.292 296.353 207.48C294.04 203.579 293.51 199.633 293.51 196.663C291.679 197.239 288.836 197.86 286.089 196.884C279.921 194.623 279.343 186.156 276.066 186.244C273.898 186.333 272.307 190.101 271.729 191.476C271.199 192.717 270.332 194.756 270.862 196.884C271.633 200.032 275.247 202.515 279.776 203.313C282.138 204.377 283.631 205.574 284.547 206.505C286.137 208.101 286.571 209.342 288.257 210.096C289.751 210.761 291.341 210.672 292.402 210.495C294.666 212.179 298.232 214.706 302.858 217.322C312.785 222.908 324.784 229.647 338.372 227.341C344.781 226.277 349.166 223.573 351.865 221.933C356.25 219.228 360.972 215.15 369.935 200.298C373.646 194.136 378.223 185.934 382.801 175.826C382.994 175.383 384.054 172.767 382.56 170.018C380.729 166.383 376.344 165.984 376.103 165.984Z" fill="#6D6C6C"/>
<path opacity="0.22" d="M284.933 196.796C284.258 197.239 284.547 198.126 283.728 198.791C283.15 199.234 282.379 199.234 281.897 199.234C281.897 199.855 281.8 200.653 281.27 201.362C280.596 202.249 279.68 202.426 279.728 202.781C279.825 203.18 281.174 202.958 282.475 203.623C283.391 204.111 283.969 204.864 284.306 205.441C287.487 202.648 290.667 199.899 293.847 197.106C291.438 197.948 289.655 197.815 288.45 197.549C286.908 197.106 285.752 196.264 284.933 196.796Z" fill="#6D6C6C"/>
<path d="M383.091 162.615C379.862 165.585 378.175 168.954 374.899 175.693C372.297 180.969 368.104 189.791 366.707 201.539C365.165 214.662 368.779 217.632 365.888 227.386C363.719 234.745 359.623 240.154 356.587 243.434C360.491 247.025 367.574 252.567 378.127 255.981C396.005 261.744 411.714 257.399 416.87 255.715C421.159 245.075 425.399 234.435 429.688 223.839C429.736 214.839 430.122 207.17 430.507 201.229C431.471 187.042 433.061 176.181 434.073 169.575C435.229 161.817 436.434 155.3 437.35 150.512C426.507 151.044 417.545 152.196 411.136 153.26C390.126 156.807 385.163 160.708 383.091 162.615Z" fill="white" stroke="#161616" stroke-width="2" stroke-miterlimit="10"/>
<path opacity="0.19" d="M408.63 153.571C410.798 158.314 413.593 165.984 414.22 175.604C415.713 198.48 403.715 216.391 394.607 229.957C390.463 236.119 384.054 244.676 374.561 253.941C378.224 255.715 383.476 257.71 390.078 258.685C402.028 260.458 411.762 257.798 416.581 256.114C420.629 245.385 424.628 234.701 428.676 223.972C428.917 216.657 429.35 209.076 429.977 201.362C431.423 183.363 433.784 166.472 436.675 150.778C427.327 151.709 417.978 152.64 408.63 153.571Z" fill="#6D6C6C"/>
<path opacity="0.11" d="M417.256 152.196C420.725 160.442 424.339 172.457 423.52 186.909C421.207 227.12 386.608 251.459 380.633 255.537C384.295 256.734 389.259 257.976 395.282 258.33C404.245 258.862 411.521 257.178 416.003 255.759C420.436 245.03 424.917 234.346 429.351 223.617C429.351 213.82 429.736 203.357 430.652 192.274C431.905 177.333 433.977 163.501 436.482 150.999C430.073 151.398 423.665 151.797 417.256 152.196Z" fill="#6D6C6C"/>
<path d="M435.567 149.935C439.47 151.265 445.204 153.837 449.349 159.024C453.974 164.831 454.986 171.836 452.336 194.047C449.879 214.706 447.758 219.14 446.939 231.553C446.024 245.208 447.421 256.38 448.722 263.517C454.215 262.32 459.709 261.123 465.202 259.926C471.177 261.389 474.791 264.094 476.574 265.734C478.357 267.33 482.116 270.699 481.056 273.448C480.381 275.221 477.924 276.108 476.864 276.463C474.791 277.216 473.057 277.128 471.177 276.995C467.178 276.773 463.178 276.64 459.179 276.463C457.107 276.374 454.119 276.285 450.505 276.463C455.372 280.32 457.444 282.802 456.818 283.911C455.95 285.374 450.168 284.354 439.422 280.896C438.94 277.305 438.169 271.852 437.013 265.202C434.025 247.823 431.856 241.617 430.411 232.395C428.917 222.864 429.399 214.263 430.411 197.106C431.182 184.959 432.579 168.91 435.567 149.935Z" fill="white" stroke="#161616" stroke-width="2" stroke-miterlimit="10"/>
<path d="M457.926 270.566C461.636 269.148 465.491 269.946 469.057 271.409C472.093 272.606 475.081 274.069 477.442 276.197C478.117 276.773 479.128 275.842 478.454 275.266C475.707 272.827 472.286 271.187 468.768 269.901C465.154 268.527 461.251 267.906 457.492 269.325C456.721 269.591 457.107 270.877 457.926 270.566Z" fill="#161616"/>
<path d="M462.648 266.488C469.057 265.335 476.671 268.837 480.188 273.847C480.719 274.556 481.971 273.891 481.441 273.182C477.49 267.64 469.395 263.961 462.263 265.246C461.347 265.379 461.733 266.665 462.648 266.488Z" fill="#161616"/>
<path d="M468.19 263.429C470.744 263.517 472.96 264.537 475.177 265.645C475.996 266.044 476.719 264.892 475.9 264.493C473.442 263.296 470.985 262.187 468.19 262.099C467.274 262.054 467.274 263.384 468.19 263.429Z" fill="#161616"/>
<path opacity="0.16" d="M436.241 150.999C438.651 156.009 442.072 164.166 443.807 174.629C447.999 200.254 437.687 213.598 439.518 241.306C439.952 248.178 441.349 258.419 445.783 270.877C449.638 269.724 455.516 268.571 462.407 269.281C467.274 269.813 469.684 270.079 472.093 271.675C474.502 273.271 475.9 275.399 478.357 275.266C479.321 275.221 480.622 274.822 481.152 273.891C482.453 271.719 478.887 267.995 477.683 266.754C475.948 264.936 472.382 261.833 465.829 260.015C460.142 261.079 454.456 262.143 448.77 263.207C447.662 258.685 446.12 251.148 445.975 241.794C445.831 233.814 447.373 224.149 450.505 205.086C451.083 201.539 451.806 194.402 453.3 180.082C453.782 175.383 454.167 171.171 452.432 165.984C451.565 163.368 449.445 157.428 443.18 153.704C440.53 152.019 437.976 151.354 436.241 150.999Z" fill="#6D6C6C"/>
<path opacity="0.22" d="M446.795 276.197C447.421 277.615 448.77 280.054 451.517 281.96C453.204 283.113 456.143 284.531 456.673 283.955C457.348 283.246 454.794 279.344 450.842 277.394C449.349 276.64 447.855 276.33 446.795 276.197Z" fill="#6D6C6C"/>
<path opacity="0.4" d="M452.192 187.486C447.807 198.569 442.554 216.347 444 238.292C444.723 249.508 447.084 259.173 449.59 266.842C447.084 258.064 446.361 250.794 446.12 245.828C445.542 232.573 448.144 225.125 450.842 200.786C451.517 195.155 451.951 190.5 452.192 187.486Z" fill="#6D6C6C"/>
<path opacity="0.22" d="M461.925 265.468C461.829 264.936 466.648 262.897 471.418 263.872C477.827 265.202 480.815 271.409 481.345 272.606C479.08 270.256 475.418 267.197 470.117 266.044C465.636 265.113 461.974 265.911 461.925 265.468Z" fill="#6D6C6C"/>
<path d="M365.358 140.847C363.334 142.576 362.9 146.211 362.081 153.349C361.165 161.551 360.78 165.718 362.659 167.802C366.081 171.614 373.453 171.836 378.561 169.752C384.585 167.27 386.657 161.905 387.187 160.575C389.548 154.413 388.777 145.103 381.645 140.847C376.826 137.921 369.357 137.433 365.358 140.847Z" fill="#5222D0"/>
<path d="M375.766 147.32C376.489 150.512 380.344 150.778 383.621 155.876C385.982 159.556 386.464 163.324 386.512 166.028C389.451 165.984 394.897 165.452 400.775 162.659C405.353 160.442 408.437 157.649 410.22 155.743C409.015 153.925 407.233 151.265 405.112 148.073C395.957 134.552 394.607 133.488 392.776 133.044C385.355 131.404 374.369 141.379 375.766 147.32Z" fill="white" stroke="#161616" stroke-width="2" stroke-miterlimit="10"/>
<path d="M390.752 141.955C388.536 146.256 386.271 150.512 383.187 154.369C383.573 154.324 383.958 154.28 384.343 154.236C384.054 153.925 383.765 153.571 383.524 153.26C383.476 153.526 383.428 153.792 383.428 154.058C384.681 153.083 385.645 152.019 386.512 150.733C386.078 150.512 385.693 150.29 385.259 150.068C384.584 151.398 383.717 152.196 382.32 152.773C382.609 153.127 382.898 153.482 383.187 153.837C385.693 151.664 387.958 149.27 389.981 146.699C390.512 145.99 389.259 145.325 388.729 146.034C386.801 148.517 384.584 150.822 382.175 152.906C381.549 153.438 382.368 154.236 383.042 153.97C384.633 153.305 385.789 152.241 386.512 150.778C386.897 150.024 385.789 149.359 385.259 150.113C384.44 151.265 383.524 152.241 382.416 153.172C382.175 153.349 382.127 153.748 382.32 153.97C382.753 154.59 382.801 154.679 383.38 155.211C383.717 155.566 384.247 155.388 384.536 155.078C387.62 151.265 389.885 146.965 392.102 142.665C392.391 141.867 391.138 141.202 390.752 141.955Z" fill="#161616"/>
<path d="M344.059 107.907C341.842 111.676 342.372 115.488 343.432 122.936C344.685 131.36 346.324 138.409 348.299 143.064C348.588 143.773 349.359 144.172 350.179 144.083C351.239 143.995 352.829 143.241 353.745 142.975C354.901 144.881 356.829 147.453 359.816 149.847C365.743 154.546 372.249 155.654 375.14 155.965C377.983 154.989 385.018 152.108 389.692 145.192C392.776 140.581 393.403 136.325 393.547 135.35C394.367 128.966 392.054 124 390.945 121.961C391.957 121.385 393.499 120.365 394.559 118.636C396.776 115.045 396.68 109.104 393.162 107.508C390.512 106.311 386.319 107.641 383.476 111.055C382.561 109.592 381.163 107.641 379.043 105.691C378.513 105.203 374.61 101.568 370.176 99.9273C361.503 96.7796 348.588 100.238 344.059 107.907Z" fill="white" stroke="#161616" stroke-width="2" stroke-miterlimit="10"/>
<path d="M356.78 147.054C360.105 146.256 362.033 143.684 363.719 141.157C364.201 140.448 362.948 139.783 362.466 140.492C360.973 142.709 359.286 145.059 356.395 145.812C355.479 145.99 355.865 147.275 356.78 147.054Z" fill="#161616"/>
<path d="M361.165 141.069C362.129 141.113 362.9 141.468 363.527 142.133C364.153 142.798 365.165 141.822 364.539 141.202C363.671 140.271 362.467 139.783 361.165 139.739C360.202 139.739 360.202 141.069 361.165 141.069Z" fill="#161616"/>
<path d="M357.503 133.754C357.503 133.709 357.503 133.665 357.503 133.621C357.503 133.266 357.166 132.956 356.78 132.956C356.395 132.956 356.057 133.266 356.057 133.621C356.057 133.665 356.057 133.709 356.057 133.754C356.057 134.108 356.395 134.419 356.78 134.419C357.166 134.374 357.503 134.108 357.503 133.754Z" fill="#161616"/>
<path d="M360.732 130.207C361.647 130.207 361.647 128.877 360.732 128.877C359.816 128.877 359.816 130.207 360.732 130.207Z" fill="#161616"/>
<path d="M360.298 133.576C361.214 133.576 361.214 132.246 360.298 132.246C359.382 132.246 359.382 133.576 360.298 133.576Z" fill="#161616"/>
<path d="M341.987 123.025C340.445 122.537 337.168 121.252 335.289 118.281C332.349 113.671 334.71 108.306 335.867 105.779C336.493 104.361 338.228 100.858 346.613 93.9866C352.973 88.7109 356.202 86.0953 359.816 84.6323C372.73 79.4453 385.934 84.4106 388.343 85.3416C391.909 86.6716 394.511 88.3119 399.667 91.5039C405.932 95.4053 409.931 97.9323 413.063 102.277C416.87 107.597 414.557 108.971 417.834 114.956C423.038 124.444 430.218 123.291 434.507 132.069C435.229 133.532 439.229 141.689 434.699 148.827C430.989 154.635 423.424 156.718 417.834 156.585C407.473 156.319 400.968 148.162 397.547 143.906C391.042 135.793 389.789 127.192 389.5 122.582C393.595 120.675 395.186 116.597 393.692 113.759C392.535 111.498 389.162 109.592 386.223 110.745C384.199 111.543 382.898 113.671 382.946 116.02C381.019 116.331 375.091 116.996 368.972 113.892C364.442 111.631 361.984 108.439 360.924 106.843C358.226 107.819 353.889 109.681 349.6 113.36C345.504 116.907 343.191 120.631 341.987 123.025Z" fill="#5222D0"/>
<path opacity="0.24" d="M373.405 125.596C378.754 130.207 381.356 135.305 382.175 137.034C385.548 144.128 385.355 150.645 385.018 153.97C386.753 151.265 388.439 148.561 390.174 145.812C392.969 151.576 395.716 157.339 398.511 163.058C400.004 162.748 402.944 161.95 405.787 159.644C407.955 157.871 409.112 155.965 409.69 154.768C405.642 152.108 397.691 146.078 393.065 135.704C390.849 130.739 389.981 126.128 389.692 122.67C393.595 120.72 395.234 116.818 393.933 113.892C393.017 111.764 390.174 109.37 387.042 110.168C384.392 110.833 382.56 113.449 382.994 116.375C380.97 116.597 376.152 116.907 370.803 114.735C365.261 112.474 362.225 108.794 361.069 107.242C362.37 115.089 365.647 119.345 368.393 121.784C370.128 123.424 370.851 123.424 373.405 125.596Z" fill="#6D6C6C"/>
<path opacity="0.24" d="M389.789 127.724C389.451 127.724 389.644 132.291 389.162 136.502C388.536 141.911 386.801 146.211 385.355 149.093C386.657 148.339 388.584 146.921 390.271 144.704C392.68 141.468 393.114 138.276 393.258 136.724C392.825 136.103 392.246 135.217 391.716 134.108C390.03 130.562 390.078 127.724 389.789 127.724Z" fill="#6D6C6C"/>
<path opacity="0.19" d="M391.475 143.108C392.632 144.216 394.27 145.679 396.39 147.275C402.799 152.196 409.016 154.989 409.208 154.679C409.401 154.369 403.329 152.108 398.703 145.99C395.812 142.177 394.126 137.655 393.403 137.877C393.066 137.965 393.355 139.029 392.776 140.758C392.391 141.778 391.861 142.576 391.475 143.108Z" fill="#6D6C6C"/>
<path opacity="0.74" d="M396.824 89.8636C402.51 98.9076 406.558 106.799 409.305 112.651C416.966 129.099 416.34 133.621 415.28 136.547C412.919 143.152 406.365 146.876 402.462 148.65C403.426 149.891 407.425 154.812 414.75 156.186C416.147 156.452 424.58 157.915 430.989 152.551C435.759 148.605 436.482 143.374 436.627 142C437.494 134.552 432.675 128.966 431.133 127.37C429.11 125.286 428.676 125.774 423.953 121.562C420.291 118.326 418.508 116.685 417.448 114.646C415.762 111.321 416.87 109.902 414.894 105.691C413.834 103.385 412.581 101.834 411.666 100.637C406.992 94.829 400.245 91.4153 396.824 89.8636Z" fill="#2C167C"/>
<path opacity="0.52" d="M362.563 155.699C362.996 160.841 368.104 164.565 373.453 163.856C378.609 163.147 382.32 158.536 381.404 153.615C382.368 154.635 383.717 156.319 384.681 158.625C385.452 160.442 385.741 162.083 385.837 163.28C385.114 164.388 381.356 169.885 374.32 170.949C373.116 171.127 366.273 172.058 363.045 168.289C361.503 166.427 361.358 164.166 361.262 162.349C361.165 159.378 361.985 157.029 362.563 155.699Z" fill="#2C167C"/>
<path d="M353.503 126.439C353.985 127.325 353.985 128.611 353.359 128.877C352.732 129.187 351.528 128.345 351.094 127.37C350.757 126.527 350.853 125.33 351.48 125.109C352.154 124.887 353.118 125.685 353.503 126.439Z" fill="#161616"/>
<path d="M349.552 125.419C351.239 124.887 352.974 124.488 354.757 124.222C355.431 124.133 355.142 123.158 354.467 123.247C352.684 123.513 350.95 123.912 349.263 124.444C348.588 124.665 348.878 125.596 349.552 125.419Z" fill="#161616"/>
</g>
<defs>
<clipPath id="clip0">
<rect width="771" height="532" fill="white"/>
</clipPath>
</defs>
</svg>
