<svg width="60" height="67" viewBox="0 0 60 67" fill="none" xmlns="http://www.w3.org/2000/svg">
<path d="M55.5064 11.5518H4.49355C2.01176 11.5518 0 13.7982 0 16.5696V50.4306C0 53.2018 2.01176 55.4484 4.49355 55.4484H55.5064C57.9881 55.4484 60 53.2019 60 50.4306V16.5696C60 13.7982 57.9882 11.5518 55.5064 11.5518Z" fill="#5222D0"/>
<path d="M59.9378 15.7401C59.5836 13.3638 57.735 11.5516 55.5064 11.5516H54.3373L35.1724 25.5728V11.5518H24.8276V25.573L5.66273 11.5518H4.49355C2.265 11.5518 0.416367 13.3638 0.0622266 15.7402L16.4425 27.7243H0V39.276H16.4425L0.0622266 51.2599C0.416367 53.6361 2.265 55.4483 4.49355 55.4483H5.66273L24.8276 41.4271V55.4483H35.1724V41.4271L54.3373 55.4483H55.5064C57.735 55.4483 59.5836 53.6363 59.9378 51.2599L43.5575 39.2758H60V27.724H43.5575L59.9378 15.7401Z" fill="#F5F5F5"/>
<path d="M32.7802 11.5156H26.6339V29.6982H0V36.5167H26.6339V54.6992H32.7802V36.5167H59.4141V29.6982H32.7802V11.5156Z" fill="#EC615B"/>
<path d="M2.90555 55.1607L24.7707 39.2987H20.9706L1.08105 53.7276C1.56773 54.3624 2.19316 54.8598 2.90555 55.1607Z" fill="#EC615B"/>
<path d="M40.5922 39.2987H36.792L57.9697 54.6618C58.5623 54.2268 59.0568 53.6393 59.4095 52.9494L40.5922 39.2987Z" fill="#EC615B"/>
<path d="M0.474609 14.3281L18.9586 27.7374H22.7587L1.81359 12.5426C1.25121 13.0104 0.791016 13.622 0.474609 14.3281Z" fill="#EC615B"/>
<path d="M38.9725 27.7374L58.8985 13.2819C58.4064 12.6492 57.7761 12.1547 57.0588 11.8596L35.1724 27.7374H38.9725Z" fill="#EC615B"/>
</svg>
