<svg width="135" height="135" viewBox="0 0 135 135" fill="none" xmlns="http://www.w3.org/2000/svg">
<path d="M67.5 135C104.779 135 135 104.779 135 67.5C135 30.2208 104.779 0 67.5 0C30.2208 0 0 30.2208 0 67.5C0 104.779 30.2208 135 67.5 135Z" fill="#F0F0F0"/>
<path d="M13.9534 26.4047C8.65121 33.3031 4.65315 41.2541 2.3252 49.8918H37.4405L13.9534 26.4047Z" fill="#5222D0"/>
<path d="M132.674 49.8917C130.346 41.2544 126.348 33.3034 121.046 26.4049L97.5596 49.8917H132.674Z" fill="#5222D0"/>
<path d="M2.3252 85.109C4.65342 93.7464 8.65147 101.697 13.9534 108.596L37.4397 85.109H2.3252Z" fill="#5222D0"/>
<path d="M108.595 13.9538C101.697 8.6516 93.746 4.65354 85.1084 2.32532V37.4403L108.595 13.9538Z" fill="#5222D0"/>
<path d="M26.4048 121.046C33.3032 126.348 41.2543 130.346 49.8916 132.675V97.5599L26.4048 121.046Z" fill="#5222D0"/>
<path d="M49.8913 2.32532C41.254 4.65354 33.303 8.6516 26.4048 13.9535L49.8913 37.4401V2.32532Z" fill="#5222D0"/>
<path d="M85.1084 132.675C93.7458 130.346 101.697 126.348 108.595 121.046L85.1084 97.5599V132.675Z" fill="#5222D0"/>
<path d="M97.5596 85.109L121.046 108.596C126.348 101.698 130.346 93.7464 132.674 85.109H97.5596Z" fill="#5222D0"/>
<path d="M134.429 58.6957H76.3048H76.3045V0.571377C73.4223 0.196172 70.484 0 67.5 0C64.5155 0 61.5777 0.196172 58.6957 0.571377V58.6952V58.6955H0.571377C0.196172 61.5777 0 64.516 0 67.5C0 70.4845 0.196172 73.4223 0.571377 76.3043H58.6952H58.6955V134.429C61.5777 134.804 64.5155 135 67.5 135C70.484 135 73.4223 134.804 76.3043 134.429V76.3048V76.3045H134.429C134.804 73.4223 135 70.4845 135 67.5C135 64.516 134.804 61.5777 134.429 58.6957Z" fill="#EC615B"/>
<path d="M85.1089 85.109L115.23 115.23C116.615 113.845 117.937 112.397 119.197 110.896L93.4098 85.1088H85.1089V85.109Z" fill="#EC615B"/>
<path d="M49.8911 85.109H49.8906L19.77 115.23C21.1548 116.615 22.6026 117.936 24.1035 119.197L49.8911 93.4091V85.109Z" fill="#EC615B"/>
<path d="M49.8913 49.8918V49.8912L19.7705 19.7701C18.3851 21.1549 17.0636 22.6028 15.8027 24.1036L41.5906 49.8915H49.8913V49.8918Z" fill="#EC615B"/>
<path d="M85.1089 49.8917L115.23 19.7703C113.845 18.385 112.397 17.0635 110.897 15.8029L85.1089 41.5907V49.8917Z" fill="#EC615B"/>
</svg>
