<svg width="767" height="527" viewBox="0 0 767 527" fill="none" xmlns="http://www.w3.org/2000/svg">
<path d="M112.55 203.3C121.45 196.05 133.5 195 144.5 197C156.25 199.1 166.95 204.75 177.8 209.5C189 214.45 200.4 218 212.7 218.6C224.95 219.25 237.2 217.5 249.1 214.5C273.95 208.25 296.75 196.25 320.6 187.2C332.55 182.65 344.9 178.7 357.6 176.9C364.5 175.9 371.45 175.65 378.4 176.4C385 177.1 391.45 178.65 397.9 180.25C412.15 183.8 426.35 186.9 440.95 188.65C456 190.45 471.2 191.05 486.35 190.55C487.3 190.5 487.3 189 486.35 189.05C458.85 190.05 431.35 187.1 404.65 180.45C391.9 177.25 379.25 173.95 366 174.6C353.15 175.25 340.45 178.65 328.35 182.8C304.1 191.15 281.3 203.4 256.7 210.85C244.2 214.6 231.25 217.2 218.15 217.25C204.85 217.3 192.35 214.2 180.2 208.9C168.2 203.7 156.45 197.25 143.4 195.25C132.3 193.55 120.45 194.9 111.5 202.2C110.75 202.85 111.8 203.95 112.55 203.3Z" fill="#E8E8E8"/>
<path d="M381.85 157.6C416.5 172.55 455.85 170.05 491.3 159.2C510.5 153.3 529.6 145.4 550.05 145.45C570.65 145.5 590.2 152.7 610.35 155.9C628.65 158.8 648.8 158.45 664.5 147.45C665.3 146.9 664.55 145.6 663.75 146.15C649.25 156.3 630.85 157.2 613.85 154.9C594.6 152.3 576.1 145.6 556.65 144.2C537.2 142.8 518.85 148.65 500.6 154.65C482.4 160.6 464 165.25 444.85 166.35C423.65 167.6 402.2 164.75 382.65 156.3C381.75 155.9 381 157.2 381.85 157.6Z" fill="#E8E8E8"/>
<path d="M93.45 282.25C104.4 274.45 117.35 269.65 130.75 268.35C137.45 267.7 144.2 267.95 150.8 269.1C157.65 270.3 164.25 272.6 170.8 274.9C182.95 279.1 195 282.3 207.8 279.35C218.85 276.8 228.85 271.05 238.65 265.6C250.2 259.15 262.2 252.55 275.6 251.35C276.55 251.25 276.55 249.75 275.6 249.85C251.7 252 233.75 269.95 211.45 276.8C205.8 278.55 199.9 279.45 194 279.1C186.75 278.65 179.7 276.4 172.9 274.05C166.05 271.7 159.2 269.15 152 267.8C145.8 266.65 139.45 266.3 133.2 266.7C118.7 267.6 104.55 272.55 92.7 281C91.9 281.5 92.65 282.8 93.45 282.25Z" fill="#E8E8E8"/>
<path d="M226 301.45C245.45 280.9 274.05 272.5 301.7 272.25C317.75 272.1 333.75 274.4 349.4 277.75C364.3 280.9 378.75 285 394.15 282.95C410.25 280.8 425.3 273.9 439.7 266.65C440.55 266.2 439.8 264.9 438.95 265.35C425.25 272.25 411 278.8 395.75 281.2C387.95 282.4 380.1 282.3 372.3 281.05C364.4 279.8 356.7 277.7 348.85 276.05C320.25 270.05 289.8 267.5 261.7 277.25C247.85 282.05 235.05 289.7 224.95 300.35C224.3 301.1 225.35 302.15 226 301.45Z" fill="#E8E8E8"/>
<path d="M457.75 316.4C465.9 319.25 474.25 316.6 481.7 313.05C490.05 309.05 497.9 304.1 506.45 300.55C515 297 524.2 294.6 533.5 295.75C542 296.8 549.85 300.6 557.3 304.65C564.35 308.5 571.3 312.7 578.8 315.65C587.15 318.9 596.15 320.45 605.1 320.25C623.45 319.85 639.05 310.7 655.8 304.5C671.45 298.7 692.3 296.1 704.85 309.7C705.5 310.4 706.55 309.35 705.9 308.65C696.05 298 680.35 296.8 666.85 299.65C649.25 303.35 634.05 314.1 616.35 317.55C606.9 319.4 597 319.15 587.65 316.9C578.95 314.8 571.15 310.7 563.35 306.35C556.3 302.4 549.15 298.3 541.4 295.95C533.35 293.5 524.95 293.45 516.8 295.45C506.85 297.9 497.7 302.75 488.75 307.65C479.5 312.65 468.8 318.75 458.05 315C457.25 314.65 456.85 316.1 457.75 316.4Z" fill="#E8E8E8"/>
<path d="M589.4 340.5C610.1 341.75 627.15 327.7 646.7 323.45C651.9 322.3 657.4 321.8 662.7 322.7C667.45 323.5 671.75 325.45 675.85 327.95C682.9 332.25 689.75 337.8 698.35 338.4C708.8 339.1 718.05 332.6 725.85 326.5C726.6 325.9 725.55 324.85 724.8 325.45C717.2 331.35 708.1 337.8 697.9 336.85C689.05 336.05 682.05 329.65 674.6 325.5C657.45 315.9 639.1 323.45 622.65 330.7C612.1 335.3 601.15 339.75 589.45 339.05C588.45 338.95 588.45 340.45 589.4 340.5Z" fill="#E8E8E8"/>
<path d="M117.45 436.1C124.7 429.2 135.45 426.5 145.1 429.15C155.2 431.9 161.7 440.6 169.8 446.6C185.95 458.55 207.95 456.65 225.7 449.6C246.65 441.3 264.1 426.3 285 417.85C295.2 413.7 306.25 411.05 317.35 411.8C328.15 412.55 337.35 417.2 345.9 423.5C354.4 429.75 362.4 437.15 372.35 441.1C383 445.3 395 444.4 405 438.85C405.85 438.4 405.1 437.1 404.25 437.55C394.05 443.2 381.85 443.7 371.2 439C362.3 435.05 355 428.45 347.25 422.65C339.3 416.7 330.85 412.05 320.85 410.65C310.55 409.25 300.05 411 290.3 414.25C268.95 421.4 251.35 436.15 231.1 445.6C212.4 454.35 188.35 458.45 170.6 445.3C161.75 438.75 154.8 429.4 143.4 427.2C133.75 425.35 123.5 428.25 116.4 435.05C115.7 435.7 116.75 436.8 117.45 436.1Z" fill="#E8E8E8"/>
<path d="M309.55 464C317.8 458.65 327.6 456.1 337.45 456.9C346.45 457.65 354.95 461 363.2 464.35C371.2 467.6 379.3 471 387.9 472.4C396.9 473.85 406 472.75 414.65 470.1C425 466.9 434.6 461.8 444.05 456.65C444.9 456.2 444.15 454.9 443.3 455.35C426 464.7 407 474.55 386.7 470.65C369.75 467.4 354.85 456.9 337.4 455.4C327.3 454.55 317.2 457.2 308.75 462.7C308 463.25 308.75 464.55 309.55 464Z" fill="#E8E8E8"/>
<path d="M498.3 497.9C509.2 487.7 522.6 480.35 537.05 476.6C544.4 474.7 551.95 473.75 559.55 473.8C568 473.9 576.4 475.25 584.8 476.05C601.1 477.6 616.75 474.85 632 468.9C646.55 463.25 660.25 453.45 675.9 451.05C694.2 448.25 708.35 460.4 720 472.85C720.65 473.55 721.7 472.5 721.05 471.8C711.45 461.55 700.15 450.95 685.55 449.3C669.55 447.5 655 456.9 641.1 463.35C625.1 470.8 607.85 475.9 590.1 474.9C581.25 474.4 572.5 472.8 563.6 472.35C556.05 471.95 548.45 472.5 541.05 474.05C524.7 477.4 509.45 485.3 497.25 496.75C496.55 497.5 497.6 498.55 498.3 497.9Z" fill="#E8E8E8"/>
<path d="M205.55 181.95C219.55 192.8 237.8 188 253.05 183C271.95 176.75 291.1 172.8 311.1 172.4C312.05 172.4 312.05 170.9 311.1 170.9C292.7 171.25 274.55 174.4 257.05 180.1C241.2 185.25 221.5 192.5 206.6 180.9C205.85 180.3 204.8 181.35 205.55 181.95Z" fill="#161616"/>
<path d="M340.35 91.05C357.25 89.8 373.55 85.1 389.9 81.15C406.9 77 423.95 74.25 441.5 76.15C459.2 78.05 476.35 83.4 493.7 87.2C510.4 90.9 527.35 92.6 544.45 91.75C563.7 90.8 582.7 86.75 600.65 79.85C601.55 79.5 601.15 78.05 600.25 78.4C567.6 90.95 531.95 93.6 497.75 86.5C480.7 82.95 464 77.75 446.75 75.25C430.1 72.85 413.85 74.2 397.45 77.8C378.45 81.95 359.8 88.05 340.35 89.5C339.4 89.65 339.4 91.15 340.35 91.05Z" fill="#161616"/>
<path d="M610.95 216.35C625.55 210.95 640.7 218.65 655.3 220.05C663.15 220.8 670.95 220.05 678.6 218.25C686.1 216.45 693.4 213.8 701.05 212.65C709.25 211.4 718 211.9 725.1 216.55C725.9 217.1 726.65 215.8 725.85 215.25C713.25 207.05 697.85 211.45 684.55 215.15C676.2 217.5 667.85 219.2 659.15 218.85C650.85 218.55 642.9 216.25 634.8 214.55C626.75 212.9 618.45 212 610.6 214.9C609.65 215.2 610.05 216.65 610.95 216.35Z" fill="#161616"/>
<path d="M101.3 368.05C114 356.75 131.9 366.75 146 368.9C162.3 371.4 178.6 366.9 194.15 362.55C195.1 362.3 194.7 360.85 193.75 361.1C176.55 365.9 158.75 370.65 140.9 366.4C127.85 363.3 111.9 356.7 100.2 367C99.5 367.6 100.55 368.65 101.3 368.05Z" fill="#161616"/>
<path d="M261.2 508.45C265.25 503.65 271.5 501.05 277.8 501.85C281.4 502.3 284.7 503.95 288 505.4C290.75 506.6 293.55 507.6 296.4 508.4C308.65 511.8 321.8 511.3 333.75 507.1C334.65 506.8 334.25 505.35 333.35 505.65C319.95 510.3 305.15 510.3 291.8 505.3C286 503.15 280.6 499.7 274.15 500.2C268.7 500.6 263.65 503.2 260.1 507.35C259.5 508.15 260.6 509.2 261.2 508.45Z" fill="#161616"/>
<path d="M346.3 504.35C355.4 501.7 364.75 500.4 374.25 500.45C375.2 500.45 375.2 498.95 374.25 498.95C364.65 498.9 355.15 500.25 345.9 502.9C345 503.2 345.35 504.65 346.3 504.35Z" fill="#161616"/>
<path d="M358.2 115.7C367.05 122.5 375.5 129.8 383.6 137.55C384.3 138.2 385.35 137.15 384.65 136.5C376.5 128.7 367.9 121.35 358.95 114.45C358.2 113.8 357.45 115.1 358.2 115.7Z" fill="#161616"/>
<path d="M271.5 142.05C272.35 137.35 273.25 132.65 274.1 127.9C274.3 126.95 272.85 126.55 272.65 127.5C271.8 132.2 270.9 136.9 270.05 141.65C269.9 142.6 271.35 143 271.5 142.05Z" fill="#161616"/>
<path d="M559.8 171.85C561.402 171.85 562.7 170.552 562.7 168.95C562.7 167.348 561.402 166.05 559.8 166.05C558.198 166.05 556.9 167.348 556.9 168.95C556.9 170.552 558.198 171.85 559.8 171.85Z" fill="#EC615B"/>
<path d="M180.9 411.35C182.805 411.35 184.35 409.805 184.35 407.9C184.35 405.995 182.805 404.45 180.9 404.45C178.995 404.45 177.45 405.995 177.45 407.9C177.45 409.805 178.995 411.35 180.9 411.35Z" fill="#EC615B"/>
<path d="M164.2 98.8C168.563 98.8 172.1 95.2631 172.1 90.9C172.1 86.537 168.563 83 164.2 83C159.837 83 156.3 86.537 156.3 90.9C156.3 95.2631 159.837 98.8 164.2 98.8Z" fill="#EC615B"/>
<path d="M180.05 106.45C181.514 106.45 182.7 105.264 182.7 103.8C182.7 102.336 181.514 101.15 180.05 101.15C178.586 101.15 177.4 102.336 177.4 103.8C177.4 105.264 178.586 106.45 180.05 106.45Z" fill="#EC615B"/>
<path d="M605.65 109.1C608.522 109.1 610.85 106.772 610.85 103.9C610.85 101.028 608.522 98.7 605.65 98.7C602.778 98.7 600.45 101.028 600.45 103.9C600.45 106.772 602.778 109.1 605.65 109.1Z" fill="#EC615B"/>
<path d="M612.3 97.65C614.067 97.65 615.5 96.2173 615.5 94.45C615.5 92.6827 614.067 91.25 612.3 91.25C610.533 91.25 609.1 92.6827 609.1 94.45C609.1 96.2173 610.533 97.65 612.3 97.65Z" fill="#EC615B"/>
<path d="M172.15 90.5C176.513 90.5 180.05 86.963 180.05 82.6C180.05 78.2369 176.513 74.7 172.15 74.7C167.787 74.7 164.25 78.2369 164.25 82.6C164.25 86.963 167.787 90.5 172.15 90.5Z" fill="#5222D0"/>
<path d="M168.2 416C170.382 416 172.15 414.232 172.15 412.05C172.15 409.868 170.382 408.1 168.2 408.1C166.018 408.1 164.25 409.868 164.25 412.05C164.25 414.232 166.018 416 168.2 416Z" fill="#5222D0"/>
<path d="M586.45 91.25C591.034 91.25 594.75 87.534 594.75 82.95C594.75 78.366 591.034 74.65 586.45 74.65C581.866 74.65 578.15 78.366 578.15 82.95C578.15 87.534 581.866 91.25 586.45 91.25Z" fill="#5222D0"/>
<path d="M449.8 216.95C450.794 216.95 451.6 216.144 451.6 215.15C451.6 214.156 450.794 213.35 449.8 213.35C448.806 213.35 448 214.156 448 215.15C448 216.144 448.806 216.95 449.8 216.95Z" fill="#5222D0"/>
<path d="M431.35 109.8C430.3 112.25 429.3 114.75 428.25 117.2C427.9 118.1 429.35 118.5 429.7 117.6C430.75 115.15 431.75 112.65 432.8 110.2C433.15 109.3 431.7 108.9 431.35 109.8Z" fill="#5222D0"/>
<path d="M431.1 111C432.95 112.95 434.4 115.15 435.35 117.65C435.7 118.55 437.15 118.15 436.8 117.25C435.7 114.5 434.15 112.1 432.15 109.95C431.5 109.25 430.4 110.3 431.1 111Z" fill="#5222D0"/>
<path d="M428.65 118.5C430.1 121.2 431.75 123.75 433.6 126.15C434.2 126.9 435.5 126.15 434.9 125.4C433.05 122.95 431.4 120.4 429.95 117.75C429.45 116.9 428.2 117.65 428.65 118.5Z" fill="#5222D0"/>
<path d="M435.45 117.75C434.85 120.55 434.3 123.35 433.7 126.15C433.5 127.1 434.95 127.5 435.15 126.55C435.75 123.75 436.3 120.95 436.9 118.15C437.1 117.25 435.65 116.85 435.45 117.75Z" fill="#5222D0"/>
<path d="M572.2 323.85C571 326.05 570.2 328.4 569.85 330.9C569.7 331.85 571.15 332.25 571.3 331.3C571.65 328.95 572.35 326.75 573.5 324.65C573.95 323.75 572.65 323 572.2 323.85Z" fill="#5222D0"/>
<path d="M572.1 324.3C573.1 326.95 574.25 329.5 575.55 331.95C576 332.8 577.3 332.05 576.85 331.2C575.6 328.85 574.5 326.4 573.55 323.9C573.2 323 571.75 323.4 572.1 324.3Z" fill="#5222D0"/>
<path d="M569.55 331.95C570.85 333.8 572.1 335.65 573.4 337.5C573.95 338.3 575.25 337.55 574.7 336.75C573.4 334.9 572.15 333.05 570.85 331.2C570.3 330.4 569 331.15 569.55 331.95Z" fill="#5222D0"/>
<path d="M575 331.7C573.95 333.15 573.45 334.8 573.45 336.55C573.45 337.5 574.95 337.5 574.95 336.55C574.95 335.05 575.4 333.65 576.3 332.45C576.85 331.65 575.55 330.9 575 331.7Z" fill="#5222D0"/>
<path d="M153.95 465.4C152.6 468.35 151.25 471.25 149.9 474.2C149.5 475.05 150.8 475.85 151.2 474.95C152.55 472 153.9 469.1 155.25 466.15C155.65 465.3 154.4 464.55 153.95 465.4Z" fill="#5222D0"/>
<path d="M154.2 465.8C155.5 468.9 156.8 472 158.1 475.1C158.45 476 159.9 475.6 159.55 474.7C158.25 471.6 156.95 468.5 155.65 465.4C155.3 464.5 153.85 464.9 154.2 465.8Z" fill="#5222D0"/>
<path d="M149.55 475.55C150.9 478.2 152.2 480.9 153.55 483.55C153.8 484 154.4 484 154.75 483.7C155.8 482.85 156.3 481.4 156.85 480.25C157.65 478.65 158.45 477.05 159.25 475.45C159.7 474.6 158.4 473.85 157.95 474.7C157.25 476.1 156.5 477.5 155.8 478.9C155.2 480.1 154.65 481.75 153.6 482.6C154 482.65 154.4 482.7 154.8 482.75C153.45 480.1 152.15 477.4 150.8 474.75C150.4 473.95 149.1 474.7 149.55 475.55Z" fill="#5222D0"/>
<path d="M657.2 233C655.65 235.95 654.7 239.05 654.25 242.35C654.1 243.3 655.6 243.3 655.75 242.35C656.15 239.3 657.05 236.45 658.45 233.75C658.95 232.9 657.65 232.15 657.2 233Z" fill="#5222D0"/>
<path d="M657 234.75C658.55 237.75 660.05 240.75 661.6 243.75C662.05 244.6 663.35 243.85 662.9 243C661.35 240 659.85 237 658.3 234C657.85 233.15 656.55 233.9 657 234.75Z" fill="#5222D0"/>
<path d="M654.35 242.55C655.6 245.55 657.1 248.35 658.9 251C659.45 251.8 660.75 251.05 660.2 250.25C658.45 247.7 656.95 245 655.8 242.15C655.45 241.3 654 241.7 654.35 242.55Z" fill="#5222D0"/>
<path d="M661.15 243.2C660.25 246 659.5 248.85 659 251.8C658.85 252.75 660.3 253.15 660.45 252.2C660.95 249.3 661.65 246.45 662.6 243.6C662.9 242.7 661.45 242.3 661.15 243.2Z" fill="#5222D0"/>
<path d="M651.4 475.75C650.8 477.75 650.25 479.7 649.65 481.7C649.4 482.65 650.8 483 651.1 482.1C651.7 480.1 652.25 478.15 652.85 476.15C653.15 475.2 651.7 474.8 651.4 475.75Z" fill="#5222D0"/>
<path d="M651.3 476.85C652.2 478.85 653.15 480.85 654.05 482.8C654.45 483.7 655.75 482.9 655.35 482.05C654.45 480.05 653.5 478.05 652.6 476.1C652.2 475.2 650.9 475.95 651.3 476.85Z" fill="#5222D0"/>
<path d="M650.05 482.65C650.5 485 651.6 487.1 653.15 488.9C653.8 489.65 654.85 488.55 654.2 487.85C652.8 486.25 651.9 484.35 651.5 482.3C651.3 481.3 649.85 481.7 650.05 482.65Z" fill="#5222D0"/>
<path d="M654 482.45C653.35 484.55 653.05 486.7 653.1 488.85C653.15 489.8 654.65 489.8 654.6 488.85C654.55 486.8 654.8 484.8 655.45 482.85C655.75 481.95 654.3 481.55 654 482.45Z" fill="#5222D0"/>
<path d="M135.1 211.95C134 214.35 132.95 216.75 131.85 219.15C131.45 220 132.75 220.8 133.15 219.9C134.25 217.5 135.3 215.1 136.4 212.7C136.8 211.85 135.5 211.05 135.1 211.95Z" fill="#5222D0"/>
<path d="M132.05 220.4C133.2 223.35 134.3 226.25 135.45 229.2C135.8 230.1 137.25 229.7 136.9 228.8C135.75 225.85 134.65 222.95 133.5 220C133.15 219.1 131.7 219.5 132.05 220.4Z" fill="#5222D0"/>
<path d="M135.1 212.05C136.65 214.75 138.2 217.5 139.75 220.2C140.25 221.05 141.5 220.3 141.05 219.45C139.5 216.75 137.95 214 136.4 211.3C135.9 210.45 134.6 211.2 135.1 212.05Z" fill="#5222D0"/>
<path d="M140.1 219.55C138.5 222.55 137.1 225.65 135.9 228.8C135.55 229.7 137 230.1 137.35 229.2C138.5 226.15 139.85 223.15 141.4 220.3C141.85 219.45 140.55 218.7 140.1 219.55Z" fill="#5222D0"/>
<path d="M512 258.05C513 256.15 514.9 254.85 517.1 254.95C518.9 255 520.25 256.25 521.85 256.85C524.65 257.85 525.5 256.05 527.6 254.7C530.45 252.8 533.2 257.05 536.25 257C538 256.95 539.45 256.1 539.5 254.25C539.1 254.45 538.75 254.7 538.35 254.9C539.9 255.7 541.45 256.5 542.95 257.35C543.8 257.8 544.55 256.5 543.7 256.05C542.15 255.25 540.6 254.45 539.1 253.6C538.6 253.35 538 253.65 537.95 254.25C537.8 257.8 530.9 252.75 529.6 252.6C526.65 252.2 525.5 255.85 522.95 255.45C520.25 255 518.55 253.05 515.65 253.55C513.45 253.95 511.65 255.3 510.65 257.3C510.3 258.15 511.55 258.9 512 258.05Z" fill="#5222D0"/>
<path d="M531.15 247.9C533.4 245.4 536.95 248.55 539.5 248.85C542.45 249.2 544.75 246.05 547.6 247.65C549.95 249 554.25 252.2 555.95 248.1C556.3 247.2 554.85 246.8 554.5 247.7C553.3 250.6 549 246.55 547.55 245.95C545.6 245.1 544.3 245.8 542.55 246.65C540.45 247.65 538.95 247.3 536.95 246.4C536.05 246 535.15 245.65 534.15 245.5C532.6 245.3 531.2 245.6 530.1 246.8C529.45 247.55 530.5 248.6 531.15 247.9Z" fill="#5222D0"/>
<path d="M490.55 129.95C491.25 128.65 492.05 128.3 492.95 128.9C493.35 129.05 493.75 129.25 494.15 129.5C494.6 129.7 495.05 130 495.5 130.15C496.3 130.4 497.1 130.5 497.9 130.3C500.05 129.7 501.15 127 503.45 127.05C505.6 127.1 507.15 129.15 509.4 128.1C510.35 127.65 511 126.85 511.9 126.35C513.9 125.25 516.35 125.65 518.05 127.05C518.8 127.65 519.85 126.6 519.1 126C516.85 124.15 513.75 123.6 511.15 125.05C510 125.7 509.05 127.1 507.55 126.9C506.7 126.8 505.95 126.2 505.15 125.9C503.95 125.45 502.85 125.3 501.65 125.85C500.15 126.55 499.15 128.5 497.5 128.85C495.4 129.3 494 127.15 492.05 127.1C490.2 127.05 488.05 128.85 489.3 130.7C489.8 131.5 491.1 130.75 490.55 129.95Z" fill="#EC615B"/>
<path d="M507.15 121.1C507.75 117.85 513.4 121 515.4 120.65C516.7 120.45 517.65 119.55 518.85 119.1C520.75 118.35 522.6 118.65 524.35 119.7C525.2 120.2 525.95 118.9 525.1 118.4C523.6 117.5 522 117.05 520.3 117.2C519.55 117.25 518.85 117.45 518.2 117.7C516.2 118.55 515.4 119.5 512.9 118.9C510.5 118.3 506.4 117.1 505.75 120.7C505.5 121.65 506.95 122.05 507.15 121.1Z" fill="#EC615B"/>
<path d="M128.6 301.8C129.25 298.65 133.6 302.95 134.45 303.5C135.4 304.15 136.45 304.6 137.6 304.35C139.1 304.1 140.25 302.85 141.8 302.5C144.3 301.95 146.8 302.75 148.6 304.55C149.3 305.25 150.35 304.15 149.65 303.5C148.1 301.95 146.2 301 144 300.85C142.9 300.75 141.8 300.9 140.75 301.25C139.1 301.8 137.8 303.4 135.8 302.6C133.7 301.75 132.9 299.6 130.5 299.35C128.95 299.2 127.5 299.8 127.2 301.4C126.95 302.35 128.4 302.75 128.6 301.8Z" fill="#EC615B"/>
<path d="M145.25 298.2C146.35 296.7 151.4 299.7 152.85 300.05C155.2 300.6 157.6 300.6 160 300.3C160.95 300.15 160.55 298.7 159.6 298.85C155.45 299.4 152.25 298.3 148.5 296.8C146.8 296.15 145.1 295.9 143.95 297.45C143.4 298.2 144.7 298.95 145.25 298.2Z" fill="#EC615B"/>
<path d="M267.15 403C267.95 401.75 269.2 400.95 270.75 400.95C272.05 400.95 272.85 401.75 274 402.1C275.15 402.5 276.1 402.25 277.1 401.6C279.05 400.3 280 398.7 282.65 398.8C285.05 398.85 287.35 400 289.45 401.05C290.3 401.5 291.05 400.2 290.2 399.75C286.25 397.75 281.45 395.85 277.65 399.1C276.8 399.8 276.7 400 275.4 400.25C273.95 400.55 274.1 400.35 273 399.9C272.05 399.5 271.15 399.35 270.1 399.45C268.25 399.65 266.8 400.7 265.85 402.2C265.35 403.05 266.65 403.8 267.15 403Z" fill="#EC615B"/>
<path d="M283.8 405.9C286.15 403.85 290.6 408.15 293.5 407.75C295.25 407.5 296.05 406.2 297.2 405C299.4 402.65 302.7 402.3 305.4 404.05C306.2 404.55 306.95 403.3 306.15 402.75C304.2 401.5 301.9 401.1 299.65 401.75C298.65 402.05 297.75 402.5 296.95 403.15C295.75 404.15 295 405.95 293.3 406.25C289.65 406.9 286.2 401.8 282.75 404.85C282.05 405.5 283.1 406.55 283.8 405.9Z" fill="#EC615B"/>
<path d="M215.6 85.2C216 83.55 216.95 82.25 218.55 81.55C219.95 80.95 221.1 81.35 222.55 81.3C224.15 81.2 225.35 80.4 226.3 79.2C227.75 77.4 228.7 75.55 230.75 74.35C233.1 73 235.8 72.75 238.4 73.55C239.35 73.85 239.7 72.4 238.8 72.1C234 70.65 229.25 72.5 226.35 76.55C225.2 78.15 224.35 79.75 222.15 79.8C220.8 79.85 219.65 79.55 218.35 80C216.15 80.75 214.65 82.6 214.15 84.8C213.9 85.75 215.35 86.15 215.6 85.2Z" fill="#EC615B"/>
<path d="M222.65 90.95C220.5 85.25 230.8 85.55 233.9 84.45C237.75 83.1 241.05 80.7 244.3 78.3C245.05 77.75 244.3 76.45 243.55 77C241.35 78.65 239.1 80.25 236.7 81.55C233.7 83.15 230.85 83.65 227.6 84.15C224.15 84.7 219.65 87.1 221.25 91.3C221.55 92.2 223 91.85 222.65 90.95Z" fill="#EC615B"/>
<path d="M422.05 377.6C425.85 367.65 432.3 361.15 438.95 354.4C447.7 345.55 463.95 329.1 480.5 331.7C494.6 333.9 493.05 347.45 512.4 357.3C530.65 366.65 537.65 357.4 555.85 367.45C558.55 368.95 577.6 379.8 581.95 400.3C583.75 408.8 583.3 420.45 579.55 421.55C575.3 422.8 573.85 398.3 556.85 388.7C543.85 381.35 525.95 384.9 524.5 390.15C522.95 395.7 540.9 399.35 551.05 418.65C555.5 427.05 556.45 434.7 557.8 445.2C559.05 455.1 560.45 475.4 555.85 476.6C552.05 477.6 550 464.05 536.05 452.95C528.7 447.1 520.85 444.7 505.15 439.9C491 435.6 483.85 433.5 480 437C474.3 442.2 478.7 455.4 479.5 457.75C485.1 474.55 499.4 481.55 498.35 483.35C496.95 485.6 470.85 479.1 449.55 458.25C431.35 440.4 411 406.45 422.05 377.6Z" fill="#EC615B"/>
<path d="M585.3 435.55C585.1 436.95 584.05 444.75 588.65 449.75C593.75 455.25 599.95 451.05 606.2 456.5C611.95 461.5 611.2 469 612.95 468.85C614.95 468.7 618 458.55 613.7 452.4C612.35 450.45 609.05 448.7 602.5 445.3C595.8 441.8 594.9 441.95 593.15 440.05C588.8 435.35 589.45 429.2 587.9 429.2C586.7 429.2 585.65 432.9 585.3 435.55Z" fill="#EC615B"/>
<path d="M542.3 494.25C539.5 498.45 539.8 502.95 540.05 507.7C540.35 512.55 540.55 516.5 543.4 520.05C546.65 524.1 552.05 525.8 552.75 524.9C553.3 524.2 550.85 522.3 548.65 518.15C548.4 517.65 545.15 511.5 545.3 504.3C545.45 495.3 550.75 489.95 549.4 489C548.4 488.25 544.55 490.85 542.3 494.25Z" fill="#EC615B"/>
<path d="M562.35 411.35C570.75 416.9 566.15 429.75 571.65 437.25C572.2 438 573.5 437.25 572.95 436.5C567.25 428.7 572.1 416 563.1 410.05C562.3 409.5 561.55 410.8 562.35 411.35Z" fill="#EC615B"/>
<path d="M559.35 375.15C568.35 382.05 574.6 391.9 577.1 402.95C577.3 403.9 578.75 403.5 578.55 402.55C575.95 391.1 569.45 381 560.15 373.9C559.3 373.25 558.55 374.55 559.35 375.15Z" fill="#5222D0"/>
<path d="M530.35 402.85C537.55 408.75 543.2 416.3 546.7 424.95C547.05 425.85 548.5 425.45 548.15 424.55C544.5 415.65 538.85 407.9 531.4 401.8C530.7 401.2 529.6 402.25 530.35 402.85Z" fill="#5222D0"/>
<path d="M550.2 433.2C551.55 436.8 552.45 440.45 552.8 444.25C552.9 445.2 554.4 445.2 554.3 444.25C553.9 440.3 553 436.5 551.6 432.8C551.35 431.9 549.9 432.3 550.2 433.2Z" fill="#5222D0"/>
<path d="M473.25 441.5C472 449.05 473.45 456.6 477.55 463.1C478.05 463.9 479.35 463.15 478.85 462.35C475 456.25 473.5 449.05 474.7 441.9C474.85 440.95 473.4 440.55 473.25 441.5Z" fill="#5222D0"/>
<path d="M479.55 467.2C481.35 470.5 483.65 473.45 486.4 476C487.1 476.65 488.15 475.6 487.45 474.95C484.8 472.45 482.6 469.6 480.85 466.45C480.4 465.6 479.1 466.35 479.55 467.2Z" fill="#5222D0"/>
<path d="M422.15 391C421.75 395.75 422.2 400.45 423.55 405.05C423.8 406 425.25 405.6 425 404.65C423.7 400.15 423.25 395.65 423.65 391C423.75 390.05 422.25 390.05 422.15 391Z" fill="#5222D0"/>
<path d="M425.05 410.15C425.85 414.05 427.3 417.65 429.4 421.05C429.9 421.85 431.2 421.1 430.7 420.3C428.7 417 427.3 413.55 426.5 409.75C426.3 408.85 424.85 409.25 425.05 410.15Z" fill="#5222D0"/>
<path d="M294.5 97.6C293.1 101.4 291.4 106.6 289.75 112.9C288.05 119.45 284.05 136.7 284.45 159.4C284.85 181.3 289.15 197.4 293.1 211.75C299.25 234.15 306.75 250.25 311.2 259.6C311.2 259.6 325.35 289.55 348.8 321.65C352.95 327.3 358.25 334.45 358.25 334.45C362.1 339.6 365.4 343.9 367.7 347C369.55 349.1 371.9 351.45 374.95 353.7C380.65 357.95 386.3 360.1 390.25 361.2C396.75 355.65 403.25 350.05 409.75 344.5C412.7 347.3 415.7 350.05 418.65 352.85C422.75 348.65 426.4 345.3 429.25 342.85C441.65 332.1 451.9 326.6 454.3 325.3C456.35 324.2 458.1 323.35 459.3 322.8C457.45 319.1 455.6 315.4 453.75 311.65C456.75 309.05 460.2 306.3 464.05 303.6C469.25 299.95 474.25 297 478.8 294.7C478.75 290.5 478.2 284.15 475.45 277.15C473.4 271.9 470.95 268.35 469.9 266.85C458.35 250.2 492.4 296.1 447.9 232.6C430.65 208 422.05 195.65 418.1 190.55C405.75 174.4 396.05 163.35 389.15 155.5C375.95 140.45 370 134.85 365.2 130.75C358.65 125.05 351.4 118.9 340.45 113.2C333.55 109.65 327.85 107.7 319.55 104.85C309.3 101.35 300.65 99.05 294.5 97.6Z" fill="white"/>
<path d="M292.95 98.5C282.1 131.95 282.1 168.05 289.9 202.15C291.85 210.7 294.3 219.15 297.2 227.4C298.65 231.6 300.4 235.7 301.95 239.85C302.5 241.3 302.6 242.75 303.25 244.2C304.2 246.45 305.2 248.7 306.2 250.95C308.05 255.15 310 259.3 312.05 263.45C314.1 267.55 316.6 271.45 318.45 275.6C319.15 277.15 319.75 278.8 320.55 280.3C321.6 282.2 323.15 283.65 324.25 285.5C326.55 289.35 328.75 293.3 331.15 297.1C342.1 314.75 354.55 331.4 367.3 347.75C367.9 348.5 368.95 347.45 368.35 346.7C357.1 332.25 346.1 317.6 336.2 302.25C333.75 298.45 331.4 294.65 329.1 290.75C328 288.9 326.9 287 325.85 285.1C324.8 283.25 323.4 281.95 322.3 280.15C321.4 278.65 320.75 277.05 320.1 275.45C319.2 273.3 318 271.35 316.9 269.3C314.8 265.45 312.85 261.55 311 257.6C309.05 253.45 307.2 249.25 305.35 245.05C304.55 243.2 304.25 241.25 303.5 239.35C302.7 237.3 301.85 235.25 301.05 233.15C298 225.1 295.35 216.9 293.15 208.55C288.75 191.65 286.2 174.3 285.95 156.8C285.7 137.15 288.4 117.5 294.5 98.75C294.65 98 293.2 97.6 292.95 98.5Z" fill="black"/>
<path d="M293.65 98.5C302 99.15 310.5 102.05 318.35 104.8C326.1 107.55 333.75 110.55 340.85 114.65C355 122.85 367.5 133.6 378.9 145.3C390.65 157.35 401.35 170.6 411.7 183.85C422 197.05 431.85 210.7 441.35 224.5C451.85 239.85 461.95 255.5 471.85 271.3C472.35 272.1 473.65 271.35 473.15 270.55C455 241.7 436.25 213.2 415.4 186.2C395.25 160.05 373.65 133.35 345.35 115.6C337.65 110.75 329.4 107.25 320.9 104.1C312.3 100.95 302.9 97.7 293.7 96.95C292.7 96.95 292.7 98.45 293.65 98.5Z" fill="black"/>
<path d="M369.45 347.3C392.75 323.55 418.95 302.7 447.3 285.3C455.3 280.4 463.4 275.8 471.7 271.5C472.55 271.05 471.8 269.75 470.95 270.2C441.5 285.6 413.9 304.55 389.05 326.6C381.95 332.9 375.05 339.45 368.4 346.25C367.7 346.95 368.75 348 369.45 347.3Z" fill="black"/>
<path d="M368 348.45C373.95 355.1 381.7 359.8 390.35 361.9C391.3 362.15 391.7 360.7 390.75 360.45C382.3 358.35 374.85 353.85 369.05 347.35C368.4 346.65 367.35 347.75 368 348.45Z" fill="black"/>
<path d="M471.45 271.9C475.35 278.75 477.6 286.3 478.1 294.15C478.15 295.1 479.65 295.1 479.6 294.15C479.1 286 476.75 278.25 472.75 271.15C472.3 270.3 471 271.05 471.45 271.9Z" fill="black"/>
<path d="M391.25 361.5C418.3 336.8 447.6 314.7 478.85 295.55C479.65 295.05 478.9 293.75 478.1 294.25C446.8 313.45 417.35 335.65 390.2 360.45C389.5 361.1 390.55 362.15 391.25 361.5Z" fill="black"/>
<path d="M410.1 345.4C412.85 348.1 415.6 350.8 418.35 353.55C418.65 353.85 419.15 353.85 419.4 353.55C427.5 344.95 436.6 337.35 446.55 331C448.95 329.45 451.4 328 453.9 326.6C455.5 325.7 458.55 324.85 459.5 323.15C460.5 321.45 459 319.15 458.2 317.7C456.8 315.15 455.15 312.8 453.35 310.6C452.75 309.85 451.7 310.9 452.3 311.65C454.05 313.8 455.6 316.05 456.9 318.45C457.2 318.95 457.85 319.8 457.9 320.4C457.7 321.3 457.5 322.15 457.3 323.05C457.05 323.2 456.8 323.3 456.55 323.45C455.55 324.2 454.25 324.65 453.15 325.3C448.8 327.75 444.55 330.4 440.45 333.25C432.45 338.9 425.05 345.35 418.35 352.45C418.7 352.45 419.05 352.45 419.4 352.45C416.65 349.75 413.9 347.05 411.15 344.3C410.45 343.65 409.4 344.7 410.1 345.4Z" fill="black"/>
<path d="M296.5 222.15C308.8 207.65 323.2 195.1 337.95 183.15C352.75 171.2 368.25 160 385.6 152.05C386.5 151.65 385.7 150.35 384.85 150.75C367.65 158.6 352.3 169.7 337.6 181.5C322.6 193.6 307.95 206.35 295.45 221.05C294.8 221.85 295.85 222.9 296.5 222.15Z" fill="black"/>
<path d="M385.9 159.05C384.25 159.15 383.55 156.4 385.4 156.25C386.05 156.2 386.8 156.5 387.05 157.15C387.4 158.1 386.5 159.1 385.55 159.1C384.85 159.1 384.8 160.25 385.55 160.25C387.1 160.25 388.45 158.8 388.2 157.25C388 155.95 386.65 155.15 385.4 155.2C384.05 155.3 383 156.4 383.15 157.75C383.3 159.1 384.5 160.35 385.9 160.25C386.65 160.15 386.65 159 385.9 159.05Z" fill="black"/>
<path d="M462.25 269.65C462.3 269.65 462.3 269.65 462.35 269.6C462.2 269.6 462.05 269.55 461.9 269.55C462.45 269.8 462.15 268.75 462.1 268.6C462.1 268.45 462.15 268.25 462.2 268.1C462.35 267.8 462.6 267.5 462.9 267.35C463.55 267.05 464.25 267.55 464.45 268.2C464.85 269.5 462.95 270.15 462.45 269C462.15 268.35 461.2 268.9 461.5 269.55C462.1 270.95 464.15 271.05 465.15 270C466.3 268.75 465.45 266.65 463.9 266.2C462.25 265.75 460.65 267.5 461.05 269.1C461.2 269.75 462.05 270.55 462.7 269.9C463.2 269.4 462.7 268.3 461.95 268.6C461.3 268.85 461.6 269.9 462.25 269.65Z" fill="black"/>
<path opacity="0.15" d="M294.5 97.9C302.4 103 313.1 110.5 324.8 120.55C332.05 126.8 350.85 143.55 374.35 176.05C399.85 211.3 412.6 228.9 415.15 248.55C416.45 258.8 418.25 288 392.5 323.9C403.15 315.8 413.85 307.65 424.5 299.55C429.15 307.2 433.75 314.85 438.4 322.5C433.4 326.2 428.4 329.85 423.4 333.55C425.85 336.5 428.3 339.4 430.75 342.35C433.75 339.45 437.35 336.35 441.5 333.3C447.9 328.6 454.05 325.25 459.35 322.8C457.35 318.95 455.4 315.05 453.4 311.2C462 305.55 470.6 299.85 479.2 294.2C478.75 289.95 477.7 283.8 474.95 276.9C471.75 268.8 467.7 263.4 466.15 261.3C454.95 246.15 460.4 249.8 436.95 216.85C420.1 193.15 410.8 179.9 395.9 162.75C386.35 151.75 380 144.5 369.85 135.55C359.05 126 345.95 114.65 325.95 106.35C313.2 101.15 302 98.95 294.5 97.9Z" fill="#494949"/>
<path opacity="0.11" d="M455.05 243.15C454.6 246.35 453.7 251.25 451.45 256.8C446.25 269.65 438.25 275.25 421.55 292.15C413.65 300.15 401.9 312 403 313.3C404.05 314.55 416.9 304.65 439.35 289.85C452.5 281.15 463.55 274.4 470.8 270C465.55 261.05 460.3 252.1 455.05 243.15Z" fill="#494949"/>
<path opacity="0.08" d="M471.85 271.5C471.15 271.65 472.85 277.1 470.8 283.9C469.3 288.9 466.75 291.3 460.5 298.85C457.8 302.1 453.85 307 449.15 313.3C458.95 306.6 468.75 299.9 478.55 293.2C474.1 275.5 472.45 271.4 471.85 271.5Z" fill="#494949"/>
<path d="M387.4 435.15C387.55 436.6 388.1 437.75 388.95 439.15C392.55 444.95 398.5 448.5 402.8 450.55C401.1 455.9 399.05 463.6 397.55 473C396.15 482.05 394.5 492.6 396.65 493.3C397.4 493.55 399.6 492.85 420.05 452.35C422.9 446.7 425.25 442 426.8 438.8C415.9 433.9 405.05 428.95 394.15 424.05C393.1 424.85 386.85 429.4 387.4 435.15Z" fill="#161616" stroke="#161616" stroke-width="2" stroke-miterlimit="10"/>
<path d="M364.6 324.55C355.4 330.95 349.45 337.15 344.15 342.75C342 345 331.7 355.95 320.85 373.15C316.05 380.75 312.5 387.45 310.05 392.5C310.35 394.55 311.05 397.5 312.9 400.45C314.95 403.75 317.25 405.2 320.85 408.4C325.25 412.3 326.85 414.6 329.4 417.2C334.35 422.3 341.3 426.15 355 433.7C372.2 443.15 381.45 446.6 384.3 447.65C387.8 448.9 390.75 449.85 392.85 450.5C393.85 445.85 395.05 440.9 396.55 435.7C397.9 431.05 399.35 426.7 400.8 422.65C390.15 414.85 379.2 406.1 368.1 396.2C364.25 392.8 360.55 389.35 357 385.95C360.6 381.6 365.65 375.9 372.05 369.75C373.9 367.95 377.8 364.25 382.55 360.35C388.55 355.5 397.6 349 410.1 343C412.25 328.65 409.7 315.25 401.85 310.9C392.05 305.5 377.15 315.85 364.6 324.55Z" fill="white"/>
<path d="M354.5 332C336.8 347 322.15 365.55 311.75 386.3C310.7 388.45 309.2 390.85 309 393.25C308.8 395.8 310.35 397.75 311.75 399.7C315.1 404.25 318.9 408.5 322.95 412.45C331.55 420.7 341.45 427.5 351.85 433.25C364.65 440.35 378.2 446 391.7 451.6C392.6 451.95 393 450.5 392.1 450.15C370 440.95 347.45 431.55 329 415.9C324.85 412.35 320.9 408.55 317.35 404.4C315.5 402.2 313.65 399.95 312.05 397.6C311.05 396.15 310.3 394.8 310.55 392.95C310.8 391.15 311.85 389.45 312.65 387.8C317.45 378.05 323.2 368.8 329.8 360.15C337.35 350.2 346 341.15 355.55 333.1C356.3 332.45 355.25 331.4 354.5 332Z" fill="black"/>
<path d="M396.9 349.25C379.75 360.35 364.75 374.4 352.6 390.8C352.05 391.6 353.35 392.35 353.9 391.55C365.9 375.35 380.75 361.45 397.65 350.5C398.45 350.05 397.7 348.75 396.9 349.25Z" fill="black"/>
<path d="M356.15 386.7C370.2 399.4 384.65 411.6 399.55 423.25C400.3 423.85 401.35 422.8 400.6 422.2C385.7 410.55 371.2 398.35 357.2 385.65C356.5 385 355.45 386.05 356.15 386.7Z" fill="black"/>
<path d="M399.6 423.05C396.45 431.95 394 441.05 392.2 450.3C392 451.25 393.45 451.65 393.65 450.7C395.45 441.45 397.95 432.35 401.05 423.45C401.35 422.55 399.9 422.15 399.6 423.05Z" fill="black"/>
<path opacity="0.11" d="M383.95 343.65C377.05 344.25 371.85 349.3 355.8 371.6C349.65 380.15 344.5 387.6 340.55 393.5C346.25 397.5 350.75 400.8 353.6 402.95C369.55 414.9 376.25 421.6 389.8 428.9C392.75 430.5 395.2 431.65 396.65 432.3C397.8 429.15 398.95 426 400.05 422.85C396.25 419.55 392.45 416.3 388.6 413C378 404 367.5 395.3 357.05 386.85C361.4 380.75 365.5 376.15 368.5 373C377.35 363.75 386.15 357.5 393 352.7C395.35 351.05 397.35 349.75 398.65 348.9C392.2 343.95 387.15 343.35 383.95 343.65Z" fill="#494949"/>
<path opacity="0.08" d="M385.95 356.7C381.65 357.7 375.9 359.65 370.05 363.55C355.75 373.1 350.95 387.7 349.55 392.7C357.25 398.7 365.2 404.75 373.45 410.8C381.45 416.7 389.4 422.3 397.15 427.7C398.3 426.05 399.45 424.35 400.55 422.7C389.9 414.95 378.85 406 367.8 395.75C364.3 392.55 360.95 389.3 357.75 386.1C359.5 383.8 361.4 381.45 363.4 379.05C370.9 370.15 378.6 362.8 385.95 356.7Z" fill="#494949"/>
<path d="M480.6 418.8C485.9 423.8 491.25 428.85 496.55 433.85C495.15 465.75 497.8 473.25 500.6 473.8C504.95 474.65 512.4 459.6 515.65 447.75C518.1 438.75 518.35 430.85 518.1 425.5C509.8 418.1 501.5 410.7 493.2 403.25C489 408.45 484.8 413.65 480.6 418.8Z" fill="#161616" stroke="#161616" stroke-width="2" stroke-miterlimit="10"/>
<path d="M376.55 328.85C377 337.15 382.8 342.2 382.8 342.2C386.4 345.35 390.45 346.2 392.45 346.45C394.05 347.1 395.65 347.8 397.3 348.45C399.8 352.05 403.5 357.15 408.4 362.95C414.9 370.75 423.65 380.05 445.05 397.65C455.6 406.3 469.2 416.95 485.65 428.65C488 427.5 490.8 425.8 493.6 423.3C499.75 417.85 502.6 411.5 503.9 407.9C501 405.1 496.7 400.9 491.7 395.7C469.5 372.75 454.7 353.1 443.4 338C435.95 328.05 426.4 314.8 415.85 298.8C391.7 305.4 375.95 318.2 376.55 328.85Z" fill="white"/>
<path d="M384.3 344.1C388.3 345.5 392.25 346.85 396.25 348.25C397.15 348.55 397.55 347.1 396.65 346.8C392.65 345.4 388.7 344.05 384.7 342.65C383.8 342.35 383.4 343.8 384.3 344.1Z" fill="black"/>
<path d="M394.6 346.75C413.4 372.6 437.75 393.5 463 412.85C470.25 418.4 477.6 423.9 484.95 429.35C485.75 429.95 486.45 428.6 485.7 428.05C460.4 409.3 434.95 390.3 413.45 367.2C407.2 360.5 401.35 353.4 395.95 346C395.35 345.25 394.05 346 394.6 346.75Z" fill="black"/>
<path d="M424.1 311.9C441.8 339.05 461.75 364.65 483.75 388.45C490.1 395.35 496.65 402.05 503.3 408.6C504 409.3 505.05 408.2 504.35 407.55C481.2 384.85 460 360.2 441 333.95C435.6 326.5 430.4 318.9 425.35 311.15C424.85 310.35 423.55 311.1 424.1 311.9Z" fill="black"/>
<path d="M502.45 407.65C499.55 416.25 493.95 424.25 485.5 428.05C484.6 428.45 485.4 429.75 486.25 429.35C495.05 425.4 500.85 417 503.85 408.05C504.2 407.15 502.75 406.75 502.45 407.65Z" fill="black"/>
<path opacity="0.09" d="M424.15 311.1C421.3 307.25 418.9 304.1 417.3 302.05C415.7 305 413.5 309.95 413.3 316.1C412.85 330 423.05 335.95 452.3 368.35C465.05 382.45 471.8 390.95 488.25 407.75C492.1 411.65 495.35 414.9 497.7 417.2C499.5 414.05 501.3 410.9 503.15 407.75C487.3 391.85 474.75 377.5 465.35 366.15C456.3 355.2 448.2 345.4 439.85 333.2C437.7 330.15 432.25 322 424.15 311.1Z" fill="#494949"/>
<path opacity="0.09" d="M433 325.15C433.7 328.6 435.15 334.45 438 341.25C446.25 360.65 458.45 368.85 480.4 393.1C484.6 397.75 491.1 405.1 498.7 414.6C500.45 412.1 502.2 409.65 503.95 407.15C502.35 405.65 499.8 403.3 496.7 400.3C491 394.8 475.55 379.45 446.05 342C442.85 338 438.35 332.2 433 325.15Z" fill="#494949"/>
<path d="M270.7 280.95C269.7 281.35 268.2 282.2 263.75 289.35C258.95 297.05 255.7 302.3 253.3 310.6C251.2 318 250.7 324.75 250.85 330.25C251.2 331.85 251.45 334.2 250.65 336.8C249.6 340.1 247.7 340.9 244.1 345.4C242.65 347.2 240.25 350.25 238.35 354.4C236.25 359.05 237.3 359.65 235.3 364.2C232.9 369.65 229.35 373.4 228.75 374C225.45 377.45 223.85 377.55 222.4 380.55C220.75 383.95 221.25 387.15 221.4 388.1C221.5 388.8 222.55 394.9 226.1 395.65C227.05 395.85 228.55 395.75 229.15 394.85C230.1 393.45 227.9 391.5 227.5 388.1C227.15 385 228.5 382.5 229.35 380.95C231.9 376.2 234.85 376.9 237.55 372.95C240.15 369.05 237.7 367.85 240.2 360.5C241.6 356.4 243 352.3 246.75 349.25C248.45 347.85 250.1 347.1 251.65 344.75C253 342.7 253.5 340.65 253.7 339.25C256.45 343.65 259.35 346.5 261.45 348.25C264.25 350.55 267.45 353.25 270.15 352.25C271.6 351.7 272.9 350.05 272.65 348.9C272.5 348.25 271.9 348.05 270.35 346.65C270.35 346.65 269.75 346.1 268.4 344.65C267.5 343.7 266.2 341.95 265.05 338.65C265.5 338.15 266.65 337.05 268.2 336.95C269.9 336.9 271.2 338.1 272.5 339.4C274.95 341.8 274.85 343.25 276.4 344.7C277.6 345.85 279.8 347.05 284.15 346.75C283.95 346.2 283.6 345.3 283.15 344.3C281.6 340.95 280.8 340.6 280.7 339.2C280.65 338.1 281.1 337.8 283.15 334.3C284.9 331.3 285.75 329.8 285.8 329C286.05 326.05 283.5 325.05 282.95 321.65C282.45 318.8 283.7 316.5 284.6 314.7C289.8 304.15 293.1 297.45 292.15 292.4C290.7 284.5 278.1 277.85 270.7 280.95Z" fill="#161616"/>
<path d="M268.4 282.75C261.15 290.15 256.5 299.55 253.4 309.35C250.4 318.9 248.15 329.8 252.9 339.15C253.35 340 254.65 339.25 254.2 338.4C249.5 329.2 252.05 318.3 255.1 308.95C258.1 299.65 262.55 290.85 269.45 283.8C270.1 283.1 269.05 282.05 268.4 282.75Z" fill="#161616"/>
<path d="M260.9 325.95C261.5 325.65 262.1 325.4 262.7 325.1C263.15 325.35 263.6 325.65 264.05 325.9C264.6 326.4 265.1 327.05 265.45 327.7C266.15 328.9 266.5 330.35 266.4 331.75C266.2 334.45 264.25 336.55 263.75 339.15C263.45 340.75 264.5 341.9 265.4 343.1C266.95 345.15 268.75 347.05 270.7 348.75C271.4 349.4 272.5 348.35 271.75 347.7C270.5 346.55 269.25 345.4 268.15 344.1C266.35 342.05 264.75 340.3 266 337.45C267.1 334.95 268.25 332.6 267.75 329.75C267.35 327.55 266.1 325.3 264.15 324.1C262.5 323.1 260.5 323.3 259.6 325.15C259.15 326.05 260.45 326.8 260.9 325.95Z" fill="#161616"/>
<path d="M253 339.35C255.9 344 259.9 347.85 264.75 350.4C266.2 351.15 268.95 352.9 270.7 352.15C272.35 351.45 272.05 349.45 271.6 348.1C271.3 347.2 269.85 347.6 270.15 348.5C271.3 352.15 266.45 349.6 265.5 349.1C263.95 348.3 262.5 347.35 261.1 346.25C258.35 344.1 256.1 341.5 254.25 338.55C253.8 337.8 252.5 338.55 253 339.35Z" fill="#161616"/>
<path d="M287.45 293.45C284.5 303.35 282.65 313.55 281.8 323.85C281.75 324.15 282.05 324.5 282.35 324.55C285.5 325.4 285.05 329.3 283.9 331.5C282.75 333.6 280.95 335.35 280.05 337.6C278.45 341.65 283.2 342.95 283.1 346.5C283.35 346.25 283.6 346 283.85 345.75C279.35 345.5 275.55 343.1 273.3 339.2C271.7 336.4 269.85 335.8 266.65 336C265.7 336.05 265.7 337.55 266.65 337.5C267.85 337.45 269.3 337.3 270.4 337.9C271.35 338.45 271.65 339.4 272.15 340.25C273 341.7 274.1 343 275.4 344.05C277.85 346.05 280.7 347.05 283.8 347.25C284.2 347.25 284.55 346.9 284.55 346.5C284.6 344.4 283.2 343.15 282.05 341.55C279.65 338.2 283.6 335.1 285.15 332.25C286.85 329.15 286.8 324.15 282.7 323.1C282.9 323.35 283.05 323.6 283.25 323.8C284.05 313.6 285.95 303.6 288.85 293.8C289.15 292.95 287.7 292.55 287.45 293.45Z" fill="#161616"/>
<path d="M250.35 330.7C250.7 333.7 250.3 336.65 248.85 339.35C247.5 341.9 245.3 343.75 243.15 345.7C239.35 349.25 237.6 353.15 236.4 358.15C235.1 363.45 233.55 367.7 229.7 371.7C226.8 374.65 223.4 377.4 221.6 381.25C219.85 385 220.1 389.35 222.35 392.85C223.65 394.9 228.1 399 229.8 395.1C230.5 393.5 229.7 391.5 229.15 389.95C228.65 388.6 228 387.25 228 385.75C228 383.65 229.2 381.85 230.6 380.4C234 376.85 238.35 374.85 239.85 369.8C240.7 366.95 240.1 364.1 240.3 361.2C240.55 357.6 242.25 354.55 244.85 352.1C248.8 348.35 254.05 345.25 254.05 339.15C254.05 338.2 252.55 338.2 252.55 339.15C252.5 345 246.8 347.9 243.2 351.6C240.4 354.45 238.8 358.05 238.75 362.05C238.7 364.7 239.15 367.2 238.25 369.75C237.25 372.65 235.15 374.6 232.85 376.5C229.9 378.85 226.5 381.6 226.5 385.75C226.5 387.75 227.5 389.55 228.1 391.45C228.25 391.95 228.8 393.3 228.55 393.7C228.05 393.75 227.5 393.85 227 393.9C226.1 394.45 225.4 394.35 224.9 393.6C223.8 392.9 222.85 390.8 222.45 389.6C220.85 384.9 223.05 380.7 226.2 377.3C228.85 374.4 231.95 371.95 234.15 368.65C236.5 365.15 237.2 361 238.2 357C238.95 354.1 239.95 351.3 241.95 349C243.7 346.95 245.9 345.4 247.7 343.4C250.9 339.9 252.35 335.35 251.8 330.7C251.75 329.75 250.25 329.75 250.35 330.7Z" fill="#161616"/>
<path d="M217.9 269.8C216.85 270.4 214.9 271.45 214.5 273.65C214 276.1 215.75 278.1 216 278.35C215.7 278.7 214.8 279.75 214.7 281.35C214.6 284 216.95 285.55 217.05 285.65C216.95 285.75 215.5 287.25 216 289.3C216.4 291.05 217.95 291.8 218.15 291.85C218.05 292.15 217.7 293.45 218.35 294.65C219.35 296.45 221.75 296.35 222 296.35C223.7 296.25 225.3 295.1 226.05 293.35C227 293.9 229.5 295.2 232.9 294.85C235.2 294.6 236.9 293.7 237.8 293.15C239.6 296.3 242.4 300.55 246.55 304.9C250.2 308.7 257 315.85 267.1 318.8C279.7 322.5 290.85 317.7 297.25 314.95C314.45 307.55 323 293.95 326.15 288.85C331.45 280.15 333.3 272.7 334.9 265.95C337.5 255.25 336.6 251.05 335.75 248.6C335.25 247.1 332.3 238.5 325.5 237.5C319.95 236.65 315.35 241.4 314.8 242C312.9 244 311.9 246.65 309.9 251.85C308.9 254.5 308.25 256.5 307.95 257.4C304.7 267.95 303.05 273.2 302.6 274.3C301.4 277.3 298.55 284.15 291.7 289.5C285.15 294.6 278.3 295.7 275.25 296.15C270.65 296.8 265 297.6 259 294.65C252.3 291.35 249.3 285.35 248.5 283.75C246.1 278.8 245.65 273.3 245.3 269.4C244.85 264.4 245.2 260.5 242.3 257.4C241.75 256.85 240.45 255.45 239.1 255.7C237.15 256.1 236.05 259.85 235.05 263.4C234.2 266.4 234.45 266.75 233.75 267.45C232.3 268.9 230.45 268.15 224.1 268.5C220.4 268.75 219.1 269.15 217.9 269.8Z" fill="white"/>
<path d="M228.25 267.65C222.85 266.65 213.35 268.05 214.1 275.45C214.75 282.1 222.65 283.25 227.4 280.35C228.2 279.85 227.45 278.55 226.65 279.05C222.7 281.45 215.55 280.8 215.55 274.8C215.55 269 223.7 268.35 227.85 269.1C228.8 269.3 229.2 267.85 228.25 267.65Z" fill="black"/>
<path d="M215.4 277.9C210 284.5 223 292.8 226.85 284.5C227.25 283.65 225.95 282.85 225.55 283.75C222.55 290.15 212.55 283.75 216.5 278.95C217.1 278.25 216.05 277.15 215.4 277.9Z" fill="black"/>
<path d="M215.7 284.6C214.55 287.2 215.35 290.5 218 291.85C220.6 293.2 223.85 291.95 225.2 289.45C225.65 288.6 224.35 287.85 223.9 288.7C222.9 290.45 220.65 291.45 218.75 290.55C216.85 289.65 216.15 287.2 217 285.35C217.4 284.5 216.1 283.75 215.7 284.6Z" fill="black"/>
<path d="M216.9 291.3C216.7 293.95 218.25 296.35 220.95 296.9C223.45 297.4 225.75 295.75 226.6 293.5C226.95 292.6 225.5 292.2 225.15 293.1C224.5 294.8 222.7 295.9 220.9 295.35C219.05 294.8 218.3 293.1 218.4 291.3C218.45 290.35 216.95 290.35 216.9 291.3Z" fill="black"/>
<path d="M221.65 274.95C222.95 274.8 224.3 274.85 225.4 275.6C226.45 276.3 227.05 277.7 226.45 278.85C226 279.7 227.3 280.45 227.75 279.6C228.55 278.05 228.2 276.25 227 275C225.65 273.55 223.5 273.25 221.6 273.45C220.7 273.6 220.7 275.1 221.65 274.95Z" fill="black"/>
<path d="M226.3 294.5C228.9 293.55 231.4 295.7 234.1 295.4C236.15 295.15 237.95 294.05 239.65 293.05C240.45 292.55 239.7 291.25 238.9 291.75C236.35 293.3 234.15 294.4 231.1 293.5C229.25 292.95 227.8 292.35 225.9 293.05C225 293.4 225.35 294.85 226.3 294.5Z" fill="black"/>
<path d="M227.85 268.95C230.45 269.85 233.95 270 235.4 267.15C236.2 265.55 235.7 263.6 236.05 261.9C236.45 259.6 237.75 257.7 239.55 256.25C240.3 255.65 239.25 254.6 238.5 255.2C236.55 256.8 235.15 259 234.65 261.5C234.4 262.9 234.75 264.55 234.35 265.9C233.45 268.6 230.45 268.25 228.35 267.5C227.35 267.2 226.95 268.65 227.85 268.95Z" fill="black"/>
<path d="M238.45 256.35C242.7 256.9 243.25 264.05 243.95 267.3C244.8 271.55 245.25 275.85 246.05 280.1C247.35 286.9 251.3 292.3 257.6 295.35C264.2 298.5 271.7 298.35 278.6 296.45C285.7 294.45 293.05 290.85 297.65 284.9C298.25 284.15 297.2 283.1 296.6 283.85C291.8 290.05 284 293.7 276.5 295.45C268.95 297.2 260.7 296.55 254.4 291.65C247.6 286.4 247.45 278.5 246.1 270.65C245.45 266.95 244.9 262.95 243.55 259.45C242.7 257.25 241.35 255.25 238.9 254.9C237.9 254.75 237.5 256.2 238.45 256.35Z" fill="black"/>
<path d="M237.35 294.05C243.4 301.45 249.25 309.9 257.25 315.35C265.1 320.65 274.8 321.2 283.9 319.7C302.4 316.6 318.1 304.05 327.1 287.85C332.25 278.65 335.3 268.45 336.65 258C336.75 257.05 335.25 257.05 335.15 258C332.85 275.85 325.05 293.35 311.15 305.15C304.3 310.95 296.15 315.3 287.4 317.4C278.35 319.6 267.9 319.9 259.65 315.05C250.85 309.9 244.7 300.7 238.4 292.95C237.8 292.25 236.75 293.3 237.35 294.05Z" fill="black"/>
<path d="M326.2 237.3C322.05 235.65 317.65 237.8 314.75 240.85C311.35 244.35 309.65 249 308.4 253.6C306.95 258.95 305.65 264.25 303.6 269.4C301.4 274.95 298.6 280.2 295.4 285.2C294.85 286 296.15 286.75 296.7 285.95C301.85 278 305.8 269.35 308.25 260.2C309.55 255.4 310.4 250.4 312.8 246.05C315.2 241.65 320.3 236.55 325.8 238.75C326.7 239.1 327.1 237.65 326.2 237.3Z" fill="black"/>
<path d="M223.9 290.5C225.3 290.6 225 292.95 224.75 293.8C224.45 294.7 225.9 295.1 226.2 294.2C226.85 292.3 226.4 289.2 223.9 289C222.95 288.95 222.95 290.45 223.9 290.5Z" fill="black"/>
<path d="M224.75 285.9C225.05 287.1 224.6 288.35 223.65 289.05C222.85 289.6 223.6 290.9 224.4 290.35C225.95 289.25 226.7 287.35 226.2 285.5C226 284.55 224.55 284.95 224.75 285.9Z" fill="black"/>
<path d="M225.6 280.7C226.95 281.35 226.05 283.5 225.4 284.35C224.8 285.1 226.1 285.85 226.7 285.1C227.85 283.6 228.45 280.4 226.35 279.4C225.5 279 224.75 280.3 225.6 280.7Z" fill="black"/>
<path opacity="0.11" d="M215.3 280.9C216.1 280.45 217.4 283.25 220.75 284.65C222 285.15 223.55 285.5 230.65 284.65C232.95 284.35 235.95 283.95 239.55 283.3C240.25 286.15 241.7 290.45 244.65 294.9C245.9 296.75 250.95 303.95 260.7 308.2C271.15 312.8 280.6 311.25 284.25 310.6C287.35 310.05 296 308.4 303.7 301.7C308.85 297.25 312.15 291.85 317 277.8C320.3 268.25 324.3 255 327.25 238.55C329.25 240.6 332.35 244.3 334.1 249.8C334.95 252.45 335.75 256.35 335.1 262.45C333.75 275.6 327.15 286.55 323.15 292.15C319 298 311.6 308.1 297.9 314.35C296.05 315.2 285.6 319.75 272.3 319.15C269.25 319 266.45 318.85 263 317.6C259.25 316.25 255.5 312.75 248.05 305.85C244.95 303 241.9 300 238.8 295.65C238.2 294.8 237.7 294.05 237.35 293.55C236.3 294.25 234.75 295.05 233 294.85C230.65 294.65 229.85 292.95 227.9 293.25C226.2 293.5 226.2 294.9 224.15 295.65C222.55 296.2 220.3 296.15 218.8 295C217.7 294.15 217.55 293.2 216.3 287.8C215.1 282.5 214.75 281.2 215.3 280.9Z" fill="#494949"/>
<path d="M272.45 267.9C271.5 268.1 271.15 270 270.55 272.95C270.2 274.75 270.05 276.3 270 277.4C268 279.75 267.8 281.9 267.75 282.75C267.7 284.5 268.3 285.85 269.45 288.35C270.25 290.15 271.1 291.55 271.7 292.5C269.55 293 268.05 294.4 267.95 295.9C267.85 297.35 269.15 298.5 269.65 298.9C271.9 300.85 273.55 299.4 276.4 300.95C278.7 302.2 278.5 303.6 281.85 305.45C283.95 306.6 284.6 306.35 284.85 306.2C285.7 305.65 285.4 303.85 285.25 302.65C285.05 301.2 284.45 299 282.8 296.45C284.75 295.75 286.7 295.05 288.6 294.4C287.2 294.55 286.9 294.6 286.9 294.6C286.9 294.55 290.35 293.15 293.3 294.4C295.75 295.45 295.95 297.65 298 297.8C299.15 297.9 300.45 297.25 301 296.3C302.15 294.35 300 291.5 299.5 290.85C297.45 288.15 294.45 287.35 293.1 287.1C293.55 286.1 294.05 284.5 294.15 282.5C294.25 279.1 292.85 276.6 292.2 275.55C291.3 272.6 290.45 269.65 289.55 266.65C288.15 269.9 286.6 270.9 285.4 271.15C284.05 271.45 283.3 270.8 281.1 271.15C279 271.5 278.9 272.15 277.7 272.1C274.9 271.8 273.95 267.6 272.45 267.9Z" fill="#161616"/>
<path d="M273.7 283.7C274.55 284.7 275.9 285.35 277.25 285C278.45 284.7 279.25 283.7 279.4 282.5C279.45 282 278.7 282 278.65 282.5C278.55 283.55 277.65 284.3 276.6 284.35C275.65 284.4 274.85 283.85 274.25 283.15C273.9 282.8 273.4 283.35 273.7 283.7Z" fill="white"/>
<path d="M284.4 282.05C285.65 283.85 289.7 284 289.55 281.15C289.5 280.65 288.75 280.65 288.8 281.15C288.95 283.2 285.9 282.9 285.05 281.65C284.75 281.25 284.1 281.65 284.4 282.05Z" fill="white"/>
<path d="M282.45 287.6C282.45 287.65 282.5 287.7 282.5 287.75C282.65 287.8 282.85 287.85 283 287.9C282.9 287.7 282.75 287.6 282.5 287.6C282.7 287.55 282.85 287.45 283.05 287.4C283 287.35 282.95 287.25 282.9 287.2C282.65 287.3 282.45 287.4 282.2 287.5C282.55 288.05 282.4 289.05 282.2 289.6C281.95 290.35 280.9 291.35 280.25 290.35C280 289.95 279.35 290.3 279.6 290.75C280.25 291.75 281.6 291.7 282.35 290.85C283.1 290 283.5 288.15 282.85 287.15C282.65 286.8 282.05 287 282.15 287.45C282.25 287.75 282.4 287.95 282.65 288.1C282.85 288.25 283.15 288.1 283.2 287.9C283.3 287.45 283.15 286.4 282.45 286.7C281.8 286.95 282.05 287.95 282.35 288.35C282.45 288.5 282.7 288.6 282.85 288.5C283.4 288.1 283.4 287.35 282.8 287.05C282.4 286.75 282.05 287.4 282.45 287.6Z" fill="white"/>
<path d="M282.5 287.75C282.7 288.9 283.1 290.3 284.45 290.5C285.8 290.7 286.2 289.4 286.2 288.35C286.2 287.85 285.45 287.85 285.45 288.35C285.45 289.1 285.2 290.15 284.2 289.65C283.45 289.3 283.35 288.3 283.25 287.55C283.15 287.1 282.4 287.3 282.5 287.75Z" fill="white"/>
<path d="M268.7 283.95C269.65 278.75 273.4 274.3 278.5 272.8C283.6 271.3 289.5 273.35 291.85 278.25C292.25 279.1 293.55 278.35 293.15 277.5C290.6 272.25 284.35 269.9 278.8 271.2C272.9 272.6 268.35 277.65 267.25 283.55C267.1 284.5 268.55 284.9 268.7 283.95Z" fill="#161616"/>
<path d="M271.35 276.4C271.3 273.9 271.75 271.4 272.8 269.15C272.9 268.95 273 268.8 273.05 268.6C273.4 268 273.45 267.9 273.15 268.3C272.85 268.55 272.9 268.75 273.35 269.05C273.45 269.2 273.6 269.4 273.7 269.55C274.45 270.75 275.1 272 275.65 273.3C276 274.2 277.45 273.8 277.1 272.9C276.6 271.7 274.3 265.6 272.35 266.95C271.4 267.6 270.8 269.8 270.5 270.85C269.95 272.65 269.75 274.55 269.8 276.45C269.9 277.35 271.4 277.35 271.35 276.4Z" fill="#161616"/>
<path d="M286.6 272.35C287.1 271.5 287.6 270.65 288.15 269.8C288.4 269.45 288.75 269.1 288.9 268.7C289.25 268.5 289.3 268.3 289.1 268.05C288.9 267.7 288.95 267.8 289.2 268.35C290.05 270.5 290.65 272.6 290.9 274.95C291 275.9 292.5 275.9 292.4 274.95C292.25 273.3 291.95 271.7 291.5 270.1C291.2 269.2 290.75 267.15 289.9 266.6C289.25 266.2 288.7 266.5 288.25 267.05C287.1 268.4 286.2 270.05 285.3 271.6C284.8 272.4 286.1 273.15 286.6 272.35Z" fill="#161616"/>
<path d="M267.35 283.15C267 291.55 274.6 298.75 283.05 297C286.95 296.2 290.55 293.65 292.4 290.1C294.35 286.35 295.45 280.4 292.9 276.7C292.35 275.9 291.05 276.65 291.6 277.45C293.85 280.8 292.75 286.3 290.95 289.65C289.3 292.7 286.05 294.85 282.65 295.55C275.1 297.05 268.55 290.55 268.85 283.15C268.85 282.15 267.35 282.15 267.35 283.15Z" fill="#161616"/>
<path d="M268.4 296.35C269.6 291.9 275.6 292.15 278.75 294.1C282.1 296.1 283.8 300 284.15 303.75C284.25 304.8 284.65 305.85 282.9 305.2C282.25 304.95 281.4 304 280.9 303.5C280 302.6 279.2 301.65 278.2 300.9C277.1 300.05 275.95 299.55 274.6 299.3C272.5 298.9 268.7 299.15 268.5 296.15C268.45 295.2 266.95 295.2 267 296.15C267.15 298.1 268.4 299.4 270.2 300.05C271.6 300.55 273.15 300.45 274.6 300.8C276.4 301.25 277.6 302.2 278.85 303.5C280.1 304.75 282.25 307.55 284.4 307.15C286.2 306.8 285.8 304.75 285.65 303.4C285.1 298.6 282.55 293.85 277.85 292C273.9 290.45 268.2 291.35 267 296C266.7 296.9 268.15 297.3 268.4 296.35Z" fill="#161616"/>
<path d="M288.35 289.85C290.4 287.1 295.05 288.2 297.2 290.05C298.45 291.1 299.3 292.55 299.7 294.15C299.8 294.65 300.05 295.7 299.9 296.25C299.4 297.7 298.35 297.25 297.45 296.55C296.2 295.6 295.25 294.25 293.7 293.65C292.95 293.35 292.2 293.3 291.4 293.35C290.65 293.35 289.95 293.55 289.2 293.45C287.8 293.25 285.85 291.95 288.2 290.15C288.95 289.55 287.9 288.5 287.15 289.1C286 290 285.4 291.35 285.9 292.8C286.6 294.7 288.4 295.1 290.25 295C292.1 294.9 293.3 294.95 294.8 296.2C295.5 296.8 296.1 297.5 296.9 298.05C297.95 298.8 299.5 299.5 300.65 298.45C303.3 296 300.25 290.55 298.15 288.85C295.15 286.4 289.65 285.7 287.15 289.15C286.5 289.85 287.8 290.6 288.35 289.85Z" fill="#161616"/>
<path d="M271.3 292.2C274.55 291.15 279.5 293.2 281.5 295.85C281.65 296.05 281.95 295.85 281.8 295.65C279.7 292.8 274.7 290.7 271.2 291.85C270.95 291.9 271.05 292.25 271.3 292.2Z" fill="white"/>
<path d="M288.7 290.05C290.15 288.35 292.25 287.6 294.45 288.05C294.7 288.1 294.8 287.75 294.55 287.7C292.25 287.25 289.95 288 288.45 289.8C288.3 290 288.55 290.25 288.7 290.05Z" fill="white"/>
<path d="M273.15 268.75C273.65 270.05 274 271.35 274.15 272.7C274.25 272.65 274.35 272.6 274.45 272.55C274.2 272.3 273.95 272.15 273.65 272C273.5 271.95 273.35 272 273.35 272.15C273.35 272.6 273.3 273 273.3 273.45C273.4 273.4 273.5 273.35 273.6 273.3C272.9 272.5 272.35 274.3 272.15 274.65C272.05 274.85 272.35 275.05 272.45 274.85C272.5 274.75 273.15 273.35 273.3 273.55C273.4 273.7 273.6 273.55 273.6 273.4C273.6 272.95 273.65 272.55 273.65 272.1C273.55 272.15 273.45 272.2 273.35 272.25C273.65 272.35 273.85 272.5 274.05 272.75C274.15 272.85 274.4 272.8 274.35 272.6C274.15 271.2 273.85 269.85 273.3 268.55C273.4 268.45 273.05 268.55 273.15 268.75Z" fill="white"/>
<path d="M288.6 268.1C288.05 269.15 287.75 270.2 287.65 271.4C287.65 271.5 287.8 271.6 287.9 271.6C288.6 271.4 288.7 271.95 288.75 272.55C288.75 272.7 288.95 272.8 289.05 272.7C289.3 273.1 289.5 273.45 289.75 273.85C289.7 274.1 290.1 274.2 290.1 273.95C290.2 273.25 289.75 271.45 288.8 272.45C288.9 272.5 289 272.55 289.1 272.6C289.05 272.15 288.95 271.75 288.85 271.3C288.85 271.2 288.75 271.15 288.65 271.15C288.3 271.15 288.05 271.2 287.75 271.3C287.85 271.35 287.9 271.4 288 271.5C288.05 270.4 288.35 269.4 288.9 268.4C289.05 268.05 288.7 267.85 288.6 268.1Z" fill="white"/>
<path d="M319.95 238.45C320.65 243.25 322 250.85 324.8 259.85C330.7 278.65 337.65 286.7 346.85 308.5C349.15 313.95 352.4 322.15 355.6 332.5C361.55 334.45 372.6 337.1 386.1 334.75C408.3 330.9 421.35 316.2 425 311.75C417.4 297.75 409.75 282.6 402.3 266.35C394.9 250.25 388.45 234.75 382.85 220C378.15 218.25 365.85 214.35 350.75 218.05C332.7 222.4 322.75 234.75 319.95 238.45Z" fill="#EC615B"/>
<path opacity="0.13" d="M363.85 216.35C365.75 220.35 368.15 225.8 370.7 232.4C378.7 253.4 381.6 270.65 382.65 276.8C384.9 289.5 386.85 309.2 383.65 334.5C390.6 334.3 395.75 332.7 399 331.45C408.3 327.75 415.05 321.3 421.55 315.05C423.05 313.65 424.2 312.4 424.95 311.65C422.8 307.95 419.55 302.15 415.75 294.9C404.75 274 397.55 256.65 391.5 241.95C389.35 236.8 386.4 229.4 382.95 220.45C380.2 219.3 376.75 218.15 372.7 217.4C369.4 216.75 366.4 216.45 363.85 216.35Z" fill="#494949"/>
<path opacity="0.1" d="M396.95 256C397.8 264.95 398.5 272.45 399 277.85C400.9 299 401.25 304.85 401.4 308.6C401.8 317.45 401.8 324.7 401.75 329.45C404.85 328.35 408.85 326.55 413 323.65C418.2 320 421.7 316 423.95 313.05C414.95 294 405.95 275 396.95 256Z" fill="#494949"/>
<path d="M361.45 207.55C359.05 208.25 357.75 211.7 356.95 215.25C355.35 222.5 356.2 228.7 356.5 230.85C357.95 240.4 360.55 247.55 361.4 249.9C363.6 255.7 366.6 263.45 373.15 271.7C376.9 276.4 380.1 280.45 386 283.45C389.45 285.25 396.6 288.9 403.95 286C404.3 285.85 411.5 282.9 413.35 276.6C413.75 275.2 413.85 273.8 414 271.05C414.1 269.4 414.15 266.5 413.8 262.9C413.3 258.15 412.25 254.45 411.45 251.8C407.9 240.05 406.15 234.2 402.45 229.1C399.4 224.9 395.95 220.1 390.25 219.45C389.75 219.4 384 218.85 380.6 222.85C378.25 225.65 378.4 229.1 378.45 231.4C378.6 235.8 380.3 238.95 382.95 243.8C385.6 248.6 386.65 249.2 389.8 254.9C394.1 262.7 393.65 263.45 393.45 263.65C392.6 264.4 389.2 262.05 388.45 261.5C387.75 261 386.75 260.3 385.5 258.95C381.6 254.6 379.3 248.05 379.3 248.05C377.25 244 374.55 238.25 371.8 230.95C372.65 227.7 373.95 225.4 375 223.9C376.7 221.5 378.6 219.85 379.05 216.85C379.25 215.7 379.15 214.7 379.05 214.05C379.9 213.25 380.15 212.05 379.7 211.05C379.15 209.9 377.8 209.35 376.5 209.75C376.5 209.6 376.35 208.3 375.2 207.6C374.25 207 372.95 207.1 372 207.8C370.5 206.65 369.25 206.35 368.35 206.3C367.3 206.25 366.8 206.5 364.3 206.95C362.2 207.5 362.05 207.4 361.45 207.55Z" fill="white"/>
<path d="M374 228.65C375.35 225.3 377.05 222.25 378.9 219.15C379.85 217.55 380.95 215.55 379.65 213.8C376.7 210 372.7 214.85 371.45 217.35C371 218.2 372.3 218.95 372.75 218.1C373.5 216.6 374.35 214.75 376.1 214.25C376.6 214 377.1 214 377.65 214.15C377.8 215.3 377.95 216.45 378.15 217.6C378 218.25 377.1 219.3 376.75 219.9C375.15 222.55 373.85 225.35 372.65 228.2C372.2 229.15 373.65 229.5 374 228.65Z" fill="black"/>
<path d="M357.65 235.1C356.9 229.75 356.8 224.3 357.4 218.95C357.95 214.05 359 206.6 365.8 208C366.75 208.2 367.15 206.75 366.2 206.55C360.85 205.45 357.5 209.25 356.6 214.1C355.25 221.15 355.2 228.35 356.2 235.5C356.35 236.45 357.8 236.05 357.65 235.1Z" fill="black"/>
<path d="M363.9 212.05C364.45 210.75 365.05 209.4 366.1 208.4C367.9 206.65 370.2 207.6 372.15 208.55C373 209 373.75 207.7 372.9 207.25C370.85 206.2 368.55 205.2 366.35 206.35C364.45 207.35 363.45 209.4 362.65 211.25C362.25 212.2 363.55 212.95 363.9 212.05Z" fill="black"/>
<path d="M368.35 212.5C370.2 210.1 372.65 207.6 375.85 209.5C376.7 210 377.45 208.7 376.6 208.2C372.8 205.95 369.6 208.4 367.3 211.4C366.7 212.2 367.75 213.25 368.35 212.5Z" fill="black"/>
<path d="M371.7 213.6C372.65 212.6 373.65 211.55 374.95 211.05C376.5 210.4 379.35 210.8 378.75 213.15C378.55 214.1 379.95 214.5 380.2 213.55C380.7 211.5 379.35 209.6 377.3 209.25C374.55 208.75 372.4 210.75 370.65 212.55C370 213.25 371.05 214.3 371.7 213.6Z" fill="black"/>
<path d="M372.3 227.9C370.55 231.65 372.7 235.45 374.2 238.9C376.3 243.75 378.5 248.6 381.2 253.1C384.7 259 392.3 269.6 400.25 263.55C401 262.95 400.25 261.65 399.5 262.25C391.85 268.1 384.75 256.3 381.65 250.85C379.85 247.65 378.25 244.35 376.75 241C375.25 237.65 371.9 232.4 373.65 228.65C374 227.8 372.7 227 372.3 227.9Z" fill="black"/>
<path d="M378.75 224.1C374.35 239.05 387.85 250.65 392.8 263.45C393.15 264.35 394.6 263.95 394.25 263.05C389.45 250.65 375.95 238.95 380.2 224.5C380.45 223.55 379 223.15 378.75 224.1Z" fill="black"/>
<path d="M356.15 234.7C358.7 248.7 364.65 261.95 373.4 273.2C377.65 278.6 382.5 283.85 389.2 286.05C394.9 287.9 402.75 288.85 408.05 285.4C413.85 281.7 414.6 274.15 414.85 267.9C414.9 266.95 413.4 266.95 413.35 267.9C413.05 275.95 411.25 284.85 401.7 286C392.9 287.05 384.7 283.55 378.75 277.2C367.7 265.45 360.45 250.1 357.55 234.3C357.45 233.35 356 233.75 356.15 234.7Z" fill="black"/>
<path d="M379.75 226.1C381.35 219.7 389.05 219.25 393.85 222.05C398.75 224.9 402.1 230.05 404.55 235C407.1 240.2 408.95 245.8 410.75 251.3C412.8 257.6 414.35 264.2 413.3 270.85C413.15 271.8 414.6 272.2 414.75 271.25C415.95 263.65 414.05 256.3 411.6 249.1C409.35 242.55 407.15 235.8 403.4 229.9C400.25 224.9 395.55 219.7 389.35 218.85C384.55 218.2 379.45 220.8 378.25 225.7C378.05 226.65 379.5 227.05 379.75 226.1Z" fill="black"/>
<path opacity="0.1" d="M363.3 206.9C367.3 205.3 371.2 207.05 372.15 207.5C369.35 211.2 363.4 220.15 362.9 232.8C362.15 250.8 372.9 262.75 376.7 267C381.6 272.45 388 279.55 396.25 278.55C400.9 278 405.3 274.9 407.55 270.95C409.8 267 409.65 262.7 406.95 251.6C402.8 234.8 398.25 224.95 398.9 224.65C399.55 224.35 404.95 232.8 409 243.4C409.4 244.5 412.75 253.4 413.95 265.65C414.7 273.2 414.05 276.3 412.5 279.05C410.1 283.3 406.2 285.2 404.7 285.85C398.65 288.4 392.85 286.6 390.1 285.65C380.25 282.35 375 274.35 369.7 266.3C361.55 253.85 359.3 243.2 357.15 232.95C355.65 225.85 354.65 217.6 358.4 211.55C359.05 210.3 360.5 208.05 363.3 206.9Z" fill="#494949"/>
<path d="M291.1 182.55C290.95 184.9 291.8 187.55 293.6 192.85C295.6 198.8 297.75 205.15 303.15 211.4C306.6 215.4 310.8 220.3 317.95 221.7C323.6 222.8 328.35 221.2 330.75 220.2C331.3 221.7 332.05 223.3 333 224.95C335.5 229.35 338.6 232.45 341.05 234.5C342.9 234.3 346.5 233.55 349.6 230.75C352 228.55 353.15 225.95 353.85 224.25C354.7 222.25 355.15 220.5 355.35 219.25C353.85 218.35 352.2 217.15 350.6 215.5C345.6 210.4 344.25 204.35 343.85 201.45C344.5 195.7 345.2 189.9 345.85 184.15C346.6 184.25 348.2 184.35 349.6 183.4C351.15 182.35 351.45 180.6 351.85 178.65C352.25 176.7 352.7 174.2 351.6 171.35C351.1 170.1 349.5 166.1 346.1 165.85C343.8 165.65 341.45 167.2 340.1 169.6C337.2 166.8 331 161.85 322.3 161.05C307.25 159.65 291.95 171.4 291.1 182.55Z" fill="white"/>
<path d="M313.3 205.4C312.9 206.45 314.05 207.95 314.9 208.7C317.25 210.75 321.4 210.65 324.4 209.25C328.6 207.3 329.95 203.1 330.55 201.2C331.25 199.1 332.15 196.35 330.7 193.9C329.45 191.75 327.25 191 326.4 190.75C325.55 192.5 324.9 193.8 324.4 194.65C323.8 195.7 323.6 196.05 323.25 196.85C322.75 197.9 322.7 198.3 322 199.25C319.15 202.95 315.25 204.3 315.25 204.3C314.35 204.5 313.55 204.7 313.3 205.4Z" fill="black"/>
<path d="M291.9 188.55C295.85 200.9 300.8 215.3 313.55 221.1C318.75 223.45 324.95 223.9 330.25 221.6C336.2 219.05 339.7 213.15 342.1 207.45C345.25 200 346.6 191.9 346.1 183.85C346.05 182.9 344.55 182.9 344.6 183.85C345.1 192.25 343.6 200.7 340.05 208.35C336.6 215.8 331.15 221.75 322.4 221.65C304.8 221.45 297.65 202.05 293.25 188.2C293.05 187.2 291.65 187.6 291.9 188.55Z" fill="black"/>
<path d="M340.65 171C340.7 168 343.8 166.2 346.55 167.05C349.1 167.9 350.7 170.4 351.25 172.9C351.75 175.3 351.55 178.1 350.8 180.4C350.2 182.3 349.45 183.3 347.15 183.3C346.35 183.3 345.55 183 344.7 183C343.75 183 343.75 184.5 344.7 184.5C346.4 184.5 348.05 185.3 349.7 184.45C350.9 183.85 351.6 182.65 352.1 181.4C353.4 178 353.55 173.4 351.9 170.05C350.55 167.3 347.65 164.95 344.45 165.3C341.5 165.6 339.2 168 339.15 170.95C339.15 171.95 340.65 171.95 340.65 171Z" fill="black"/>
<path d="M343.6 198.4C343.45 206.65 347.1 214.55 353.6 219.7C354.35 220.3 355.4 219.25 354.65 218.65C348.45 213.75 344.95 206.35 345.1 198.4C345.1 197.45 343.6 197.45 343.6 198.4Z" fill="black"/>
<path d="M330.7 220.8C332.6 226.05 335.7 230.65 339.85 234.35C340.55 235 341.65 233.95 340.9 233.3C336.9 229.75 333.95 225.4 332.1 220.4C331.8 219.5 330.35 219.9 330.7 220.8Z" fill="black"/>
<path d="M340.2 234.85C344.5 236.4 348.8 232.75 351.45 229.7C354.25 226.5 356.7 222.35 355.5 218C355.25 217.05 353.8 217.45 354.05 218.4C355.05 222.2 352.8 225.9 350.35 228.65C348.05 231.25 344.3 234.75 340.55 233.4C339.7 233.05 339.3 234.5 340.2 234.85Z" fill="black"/>
<path d="M297.5 183.3C296.85 181.45 298.35 179.45 299.45 178.15C301.1 176.1 303.65 175.55 305.55 177.65C307.75 180.05 308.35 184.35 308.65 187.45C308.85 189.6 308.1 192.35 309.35 194.25C310.7 196.3 313.2 197.5 315.55 197.95C316.5 198.15 316.9 196.7 315.95 196.5C314.7 196.25 313.6 195.85 312.5 195.15C310.7 193.95 310.3 192.65 310.25 190.5C310.2 188.65 310.15 186.85 309.85 185C309.35 181.95 308.5 178.05 306 176C303.9 174.25 301.3 174.3 299.25 176.05C297.3 177.75 295.05 181 296 183.65C296.4 184.6 297.85 184.2 297.5 183.3Z" fill="black"/>
<path d="M311.35 172.5C311.7 166.45 319.25 164.25 322.75 169.2C323.3 170 324.6 169.25 324.05 168.45C319.7 162.25 310.3 164.9 309.85 172.5C309.8 173.45 311.3 173.45 311.35 172.5Z" fill="black"/>
<path d="M304.55 187.3C303.85 186.35 303.45 185.3 303.4 184.15C303 184.35 302.65 184.6 302.25 184.8C303.4 185.55 304 186.75 303.95 188.1C304.25 187.85 304.6 187.6 304.9 187.4C303.65 186.95 302.85 185.55 303.1 184.25C302.75 184.4 302.35 184.55 302 184.7C302.6 185.05 303.1 185.55 303.45 186.2C303.6 186.5 303.7 186.8 303.75 187.15C303.75 187.4 303.75 187.1 303.7 187C303.6 186.8 303.5 186.65 303.4 186.45C303 185.55 301.7 186.35 302.1 187.2C302.4 187.9 302.9 188.65 303.8 188.7C304.55 188.75 305.2 188.25 305.3 187.5C305.45 185.85 304.15 184.2 302.8 183.45C302.4 183.2 301.8 183.4 301.7 183.9C301.3 186.05 302.5 188.15 304.55 188.9C305.05 189.05 305.5 188.65 305.5 188.2C305.55 186.3 304.65 184.6 303.05 183.6C302.6 183.3 301.9 183.7 301.9 184.25C301.95 185.65 302.4 187 303.25 188.15C303.85 188.85 305.15 188.1 304.55 187.3Z" fill="black"/>
<path d="M318.55 177.65C318.3 177.35 318.1 177 318 176.6C318 176.5 317.9 175.9 318 175.85C318.1 175.8 318.35 176.6 318.4 176.65C318.5 177.05 318.45 177.5 318.25 177.85C318.6 177.75 318.95 177.65 319.3 177.6C318.05 176.9 317.45 175.6 317.65 174.2C317.25 174.4 316.9 174.65 316.5 174.85C317.9 175.45 318.7 176.9 318.35 178.4C318.65 178.25 318.95 178.05 319.25 177.9C318.5 177.65 317.9 177 317.75 176.2C317.75 176.15 317.75 175.7 317.7 175.7C317.6 175.75 317.5 175.8 317.35 175.85C317.4 175.95 317.5 176.1 317.55 176.2C317.75 176.75 317.75 177.3 317.7 177.9C318.15 177.7 318.55 177.55 319 177.35C318.55 177 318.2 176.6 317.95 176.05C317.5 175.2 316.2 175.95 316.65 176.8C316.95 177.4 317.4 177.95 317.95 178.4C318.5 178.85 319.15 178.55 319.25 177.85C319.35 176.85 319.25 175.5 318.5 174.75C317.9 174.15 316.8 174.1 316.4 175C315.6 176.75 317.3 178.8 318.85 179.35C319.25 179.5 319.7 179.2 319.75 178.85C320.3 176.75 319.25 174.45 317.2 173.6C316.65 173.35 316.15 173.65 316.05 174.25C315.8 176.15 316.8 178 318.45 178.95C318.75 179.15 319.3 179.05 319.5 178.7C319.9 177.75 320 176.8 319.65 175.85C319.35 175.1 318.7 174.3 317.85 174.4C315.65 174.65 316.6 177.8 317.5 178.8C318.15 179.45 319.2 178.35 318.55 177.65Z" fill="black"/>
<path d="M331.6 220.65C331.6 220.7 331.6 220.7 331.55 220.75C331.85 220.6 332.15 220.4 332.45 220.25C332.4 220.25 332.35 220.2 332.3 220.2C332.45 220.55 332.6 220.95 332.75 221.3C332.85 221.1 334.2 220.45 334.6 220.1C335.5 219.35 336.25 218.35 336.95 217.4C338.5 215.35 339.65 213.1 340.6 210.75C340.1 210.6 339.65 210.5 339.15 210.35C337.65 214.65 336.6 220.65 332.4 223.2C332.75 223.55 333.1 223.9 333.45 224.25C334.45 222.75 335.45 221.2 336.45 219.7C336.9 219 335.85 218.15 335.25 218.8C334.45 219.65 333.6 220.55 332.8 221.4C333.15 221.75 333.5 222.1 333.85 222.45C334.6 221.55 335.3 220.6 335.95 219.65C336.45 218.95 335.35 218.1 334.75 218.75C334.05 219.5 333.35 220.05 332.45 220.5C332.85 220.7 333.2 220.95 333.6 221.15C333.6 221 333.55 220.85 333.55 220.7C333.45 219.75 331.95 219.75 332.05 220.7C332.05 220.85 332.1 221 332.1 221.15C332.15 221.7 332.7 222.1 333.25 221.8C334.25 221.25 335.05 220.65 335.85 219.8C335.45 219.5 335.05 219.2 334.65 218.9C334.05 219.75 333.45 220.6 332.8 221.4C332.2 222.15 333.2 223.2 333.85 222.45C334.65 221.6 335.5 220.7 336.3 219.85C335.9 219.55 335.5 219.25 335.1 218.95C334.1 220.45 333.1 222 332.1 223.5C331.7 224.15 332.5 224.9 333.15 224.55C337.75 221.75 338.95 215.55 340.6 210.8C340.9 209.85 339.5 209.55 339.15 210.4C338.1 212.95 336.75 215.45 334.95 217.55C334.1 218.55 332.75 219.1 331.95 220C331.75 220.2 331.55 220.25 331.45 220.5C331.2 220.95 331.4 221.4 331.9 221.6C331.95 221.6 332 221.65 332.05 221.65C332.45 221.8 332.85 221.5 332.95 221.15C332.95 221.1 332.95 221.1 333 221.05C333.4 220.15 331.95 219.75 331.6 220.65Z" fill="black"/>
<path d="M337.15 219.15C337.6 218.65 337.9 218.15 338.05 217.55C338.3 216.65 337.15 216.35 336.7 216.95C335.65 218.35 334.6 219.75 333.55 221.15C332.95 221.9 334.25 222.65 334.85 221.9C335.9 220.5 336.95 219.1 338 217.7C337.55 217.5 337.1 217.3 336.65 217.1C336.55 217.45 336.4 217.75 336.15 218.05C335.45 218.85 336.55 219.9 337.15 219.15Z" fill="black"/>
<path d="M314.05 206.75C312.65 203.95 314.15 202.9 316.95 202.15C317.3 202.05 317.65 202 317.95 201.85C319.15 201.3 319.85 200.1 320.35 198.95C321.15 197.25 321.6 195.4 322.65 193.85C324.85 190.5 328.75 190.65 330 194.65C331.25 198.65 329.7 203.1 327.05 206.15C325.75 207.65 324.15 209.05 322.25 209.7C320.6 210.3 319.15 210.1 317.55 209.4C316.4 208.9 314.3 207.9 314 206.6C313.8 205.65 312.35 206.05 312.55 207C313.1 209.6 317 211.2 319.35 211.55C321.9 211.95 324.3 210.7 326.25 209.1C330.6 205.5 333.3 199.15 331.2 193.65C328.95 187.7 322.85 189.9 320.6 194.6C319.9 196.05 319.55 198.5 318.4 199.55C316.95 200.9 315.1 200.4 313.6 201.45C311.5 202.95 311.7 205.6 312.75 207.65C313.2 208.4 314.5 207.65 314.05 206.75Z" fill="black"/>
<path d="M313.05 205.2C320.8 205 324.55 197.8 326.25 191.2C326.5 190.25 325.05 189.85 324.8 190.8C323.3 196.7 320.05 203.5 313.05 203.7C312.1 203.75 312.1 205.25 313.05 205.2Z" fill="black"/>
<path d="M292.5 187.75C291.6 188.25 286.15 182.3 283.85 174.35C282.15 168.55 282.65 163.4 283.25 160.15C284.1 157.55 285.3 154.75 286.95 151.9C294.05 139.7 305.25 133.95 311.05 131.5C309.85 132.65 308.45 134.15 307.15 136.05C305.35 138.55 304.2 140.9 303.45 142.85C305.15 141.4 307.1 139.95 309.2 138.55C313.9 135.4 318.45 133.15 322.4 131.55C321.8 134.1 321.15 136.65 320.55 139.15C321.95 138.35 323.9 137.2 326.3 136.05C328.95 134.8 334.4 132.2 335.25 133.35C335.5 133.7 335.2 134.1 334.75 135.55C334.15 137.45 333.95 139.05 333.85 140.1C335.4 139.85 337.15 139.65 339.05 139.6C341.15 139.5 343.05 139.6 344.75 139.75C344.15 142.05 343.55 144.3 342.95 146.6C344.15 147.05 345.85 147.9 347.6 149.3C352.3 153.15 353.65 158.35 354 160.4C354.75 165.3 353.55 169.4 352.65 171.65C350.25 166.55 345.5 164.55 342.8 165.8C341.15 166.55 339.25 168.95 339.45 171.4C339.5 171.95 339.65 172.45 339.8 172.8C338.05 171.2 335.4 169.05 331.95 167.05C328.5 165.05 324.65 162.8 319.55 162.15C309.95 160.9 302.45 166.15 300.45 167.6C297.35 169.8 292.3 173.35 291.4 179C290.5 183.75 293.2 187.4 292.5 187.75Z" fill="#5222D0"/>
<path opacity="0.11" d="M330.55 165.8C332.1 169.3 334.2 174.75 335.35 181.6C336.55 188.4 338.05 197.15 334.4 206.85C333.15 210.15 330.2 216.5 323.2 222.45C324.85 222.4 327.7 222.1 330.7 220.5C335.6 217.95 337.75 213.7 338.4 212.2C340.75 214.5 343.9 218.1 346.3 223.2C347.65 226.05 348.5 228.7 349 230.9C350.35 229.7 352.85 227.1 354 223C354.45 221.4 354.6 219.95 354.6 218.75C351.7 217.15 349.85 215.2 348.8 213.95C348.35 213.4 343.9 207.8 344.15 200.05C344.25 197.25 344.85 197.2 345.3 192.9C345.7 189.05 345.5 185.8 345.3 183.65C347.85 184.7 349.15 184.2 349.75 183.85C350.9 183.15 351.2 181.9 352.25 175.55C352.8 172.15 353.1 170.45 353.2 169.55C353.8 164.7 354.1 162.25 353.8 160.3C352.95 154.75 349.4 151.05 348.2 149.9C346.2 147.95 344.15 146.85 342.8 146.25C343.4 144.15 343.95 142 344.55 139.9C341.7 143.25 339.05 145.55 337.25 147.05C332.75 150.65 330.15 151.5 327.05 154.95C324.6 157.65 323.2 160.4 322.4 162.25C325.15 163.5 327.85 164.65 330.55 165.8Z" fill="#494949"/>
<path opacity="0.17" d="M309.95 132.05C308.25 132.8 304.25 134.9 301.45 139.35C300.75 140.45 299.2 143.2 298.75 147.05C298.25 151.3 299.3 154.65 299.9 156.3C300.1 152.15 301.1 145.45 305.1 138.55C306.65 135.95 308.35 133.8 309.95 132.05Z" fill="#494949"/>
<path opacity="0.08" d="M345.3 183.9C345.15 183.85 344.85 184.4 343.75 188.2C342.25 193.35 341.45 197.15 341 199.05C340.35 201.8 339.25 205.7 337.2 210.4C340.75 211.1 344.3 211.8 347.85 212.45C346.55 209.6 345 205.5 344.4 200.4C343.45 191.65 345.8 184 345.3 183.9Z" fill="#494949"/>
</svg>
