<svg width="944" height="221" viewBox="0 0 944 221" fill="none" xmlns="http://www.w3.org/2000/svg">
<path d="M353.5 178C390.779 178 421 147.779 421 110.5C421 73.2208 390.779 43 353.5 43C316.221 43 286 73.2208 286 110.5C286 147.779 316.221 178 353.5 178Z" fill="#F0F0F0"/>
<path d="M299.953 69.4047C294.651 76.3031 290.653 84.2541 288.325 92.8918H323.44L299.953 69.4047Z" fill="#5222D0"/>
<path d="M418.674 92.8917C416.346 84.2544 412.348 76.3034 407.046 69.4049L383.56 92.8917H418.674Z" fill="#5222D0"/>
<path d="M288.325 128.109C290.653 136.746 294.651 144.697 299.953 151.596L323.44 128.109H288.325Z" fill="#5222D0"/>
<path d="M394.595 56.9538C387.697 51.6516 379.746 47.6535 371.108 45.3253V80.4403L394.595 56.9538Z" fill="#5222D0"/>
<path d="M312.405 164.046C319.303 169.348 327.254 173.346 335.892 175.675V140.56L312.405 164.046Z" fill="#5222D0"/>
<path d="M335.891 45.3253C327.254 47.6535 319.303 51.6516 312.405 56.9535L335.891 80.4401V45.3253Z" fill="#5222D0"/>
<path d="M371.108 175.675C379.746 173.346 387.697 169.348 394.595 164.046L371.108 140.56V175.675Z" fill="#5222D0"/>
<path d="M383.56 128.109L407.046 151.596C412.348 144.698 416.346 136.746 418.674 128.109H383.56Z" fill="#5222D0"/>
<path d="M420.429 101.696H362.305H362.305V43.5714C359.422 43.1962 356.484 43 353.5 43C350.515 43 347.578 43.1962 344.696 43.5714V101.695V101.695H286.571C286.196 104.578 286 107.516 286 110.5C286 113.485 286.196 116.422 286.571 119.304H344.695H344.695V177.429C347.578 177.804 350.515 178 353.5 178C356.484 178 359.422 177.804 362.304 177.429V119.305V119.305H420.429C420.804 116.422 421 113.485 421 110.5C421 107.516 420.804 104.578 420.429 101.696Z" fill="#EC615B"/>
<path d="M371.109 128.109L401.23 158.23C402.615 156.845 403.937 155.397 405.197 153.896L379.41 128.109H371.109V128.109Z" fill="#EC615B"/>
<path d="M335.891 128.109H335.891L305.77 158.23C307.155 159.615 308.603 160.936 310.103 162.197L335.891 136.409V128.109Z" fill="#EC615B"/>
<path d="M335.891 92.8918V92.8912L305.77 62.7701C304.385 64.1549 303.064 65.6028 301.803 67.1036L327.591 92.8915H335.891V92.8918Z" fill="#EC615B"/>
<path d="M371.109 92.8917L401.23 62.7703C399.845 61.385 398.397 60.0635 396.897 58.8029L371.109 84.5907V92.8917Z" fill="#EC615B"/>
<path d="M96.418 108.27H111.008C120.793 108.27 127.883 106.453 132.277 102.82C136.672 99.1875 138.869 93.7969 138.869 86.6484C138.869 79.3828 136.496 74.168 131.75 71.0039C127.004 67.8398 119.855 66.2578 110.305 66.2578H96.418V108.27ZM96.418 125.672V177H75.4121V48.5039H111.711C128.293 48.5039 140.568 51.6094 148.537 57.8203C156.506 64.0312 160.49 73.4062 160.49 85.9453C160.49 101.941 152.17 113.338 135.529 120.135L171.828 177H147.922L117.16 125.672H96.418ZM264.641 142.107C264.641 153.533 260.51 162.498 252.248 169.002C243.986 175.506 232.59 178.758 218.059 178.758C203.527 178.758 191.633 176.502 182.375 171.99V152.127C188.234 154.881 194.445 157.049 201.008 158.631C207.629 160.213 213.781 161.004 219.465 161.004C227.785 161.004 233.908 159.422 237.834 156.258C241.818 153.094 243.811 148.846 243.811 143.514C243.811 138.709 241.994 134.637 238.361 131.297C234.729 127.957 227.229 124.002 215.861 119.432C204.143 114.686 195.881 109.266 191.076 103.172C186.271 97.0781 183.869 89.7539 183.869 81.1992C183.869 70.4766 187.678 62.0391 195.295 55.8867C202.912 49.7344 213.137 46.6582 225.969 46.6582C238.273 46.6582 250.52 49.3535 262.707 54.7441L256.027 71.8828C244.602 67.0781 234.406 64.6758 225.441 64.6758C218.645 64.6758 213.488 66.1699 209.973 69.1582C206.457 72.0879 204.699 75.9844 204.699 80.8477C204.699 84.1875 205.402 87.0586 206.809 89.4609C208.215 91.8047 210.529 94.0312 213.752 96.1406C216.975 98.25 222.775 101.033 231.154 104.49C240.588 108.416 247.502 112.078 251.896 115.477C256.291 118.875 259.514 122.713 261.564 126.99C263.615 131.268 264.641 136.307 264.641 142.107Z" fill="#2F281E"/>
<path d="M448.25 177V48.5039H469.256V158.982H523.66V177H448.25ZM604.432 177L600.301 163.465H599.598C594.91 169.383 590.193 173.426 585.447 175.594C580.701 177.703 574.607 178.758 567.166 178.758C557.615 178.758 550.145 176.18 544.754 171.023C539.422 165.867 536.756 158.572 536.756 149.139C536.756 139.119 540.477 131.561 547.918 126.463C555.359 121.365 566.697 118.582 581.932 118.113L598.719 117.586V112.4C598.719 106.189 597.254 101.561 594.324 98.5137C591.453 95.4082 586.971 93.8555 580.877 93.8555C575.896 93.8555 571.121 94.5879 566.551 96.0527C561.98 97.5176 557.586 99.2461 553.367 101.238L546.688 86.4727C551.961 83.7188 557.732 81.6387 564.002 80.2324C570.271 78.7676 576.189 78.0352 581.756 78.0352C594.119 78.0352 603.436 80.7305 609.705 86.1211C616.033 91.5117 619.197 99.9785 619.197 111.521V177H604.432ZM573.67 162.938C581.17 162.938 587.176 160.857 591.688 156.697C596.258 152.479 598.543 146.59 598.543 139.031V130.594L586.062 131.121C576.336 131.473 569.246 133.113 564.793 136.043C560.398 138.914 558.201 143.338 558.201 149.314C558.201 153.65 559.49 157.02 562.068 159.422C564.646 161.766 568.514 162.938 573.67 162.938ZM733.543 177H712.801V117.234C712.801 109.734 711.277 104.139 708.23 100.447C705.242 96.7559 700.467 94.9102 693.904 94.9102C685.174 94.9102 678.787 97.4883 674.744 102.645C670.701 107.801 668.68 116.443 668.68 128.572V177H648.025V79.793H664.197L667.098 92.5371H668.152C671.082 87.9082 675.242 84.334 680.633 81.8145C686.023 79.2949 692 78.0352 698.562 78.0352C721.883 78.0352 733.543 89.9004 733.543 113.631V177ZM844.373 79.793V91.1309L827.762 94.207C829.285 96.2578 830.545 98.7773 831.541 101.766C832.537 104.754 833.035 107.918 833.035 111.258C833.035 121.277 829.578 129.158 822.664 134.9C815.75 140.643 806.229 143.514 794.1 143.514C790.994 143.514 788.182 143.279 785.662 142.811C781.209 145.564 778.982 148.787 778.982 152.479C778.982 154.705 780.008 156.375 782.059 157.488C784.168 158.602 788.006 159.158 793.572 159.158H810.535C821.258 159.158 829.402 161.443 834.969 166.014C840.535 170.584 843.318 177.176 843.318 185.789C843.318 196.805 838.777 205.301 829.695 211.277C820.613 217.254 807.488 220.242 790.32 220.242C777.078 220.242 766.971 217.898 759.998 213.211C753.025 208.523 749.539 201.844 749.539 193.172C749.539 187.195 751.414 182.156 755.164 178.055C758.973 174.012 764.275 171.199 771.072 169.617C768.318 168.445 766.033 166.57 764.217 163.992C762.459 161.355 761.58 158.602 761.58 155.73C761.58 152.098 762.605 149.021 764.656 146.502C766.707 143.982 769.754 141.492 773.797 139.031C768.758 136.863 764.656 133.348 761.492 128.484C758.387 123.562 756.834 117.82 756.834 111.258C756.834 100.711 760.145 92.5371 766.766 86.7363C773.445 80.9355 782.938 78.0352 795.242 78.0352C797.996 78.0352 800.867 78.2402 803.855 78.6504C806.902 79.002 809.188 79.3828 810.711 79.793H844.373ZM767.996 192.117C767.996 196.57 769.988 199.998 773.973 202.4C778.016 204.803 783.67 206.004 790.936 206.004C802.186 206.004 810.564 204.393 816.072 201.17C821.58 197.947 824.334 193.67 824.334 188.338C824.334 184.119 822.811 181.102 819.764 179.285C816.775 177.527 811.18 176.648 802.977 176.648H787.332C781.414 176.648 776.697 178.025 773.182 180.779C769.725 183.592 767.996 187.371 767.996 192.117ZM776.873 111.258C776.873 117.352 778.426 122.039 781.531 125.32C784.695 128.602 789.207 130.242 795.066 130.242C807.02 130.242 812.996 123.855 812.996 111.082C812.996 104.754 811.502 99.8906 808.514 96.4922C805.584 93.0352 801.102 91.3066 795.066 91.3066C789.09 91.3066 784.549 93.0059 781.443 96.4043C778.396 99.8027 776.873 104.754 776.873 111.258Z" fill="#2F281E"/>
</svg>
