<svg width="896" height="210" viewBox="0 0 896 210" fill="none" xmlns="http://www.w3.org/2000/svg">
<g clip-path="url(#clip0)">
<rect width="896" height="210" fill="white"/>
<rect width="205" height="212" transform="translate(236 -16)" fill="white"/>
<path d="M425.647 20.4375H251.353C242.874 20.4375 236 27.5574 236 36.3408V143.659C236 152.442 242.874 159.562 251.353 159.562H425.647C434.126 159.562 441 152.443 441 143.659V36.3408C441 27.5574 434.126 20.4375 425.647 20.4375Z" fill="#5222D0"/>
<path d="M440.787 33.8043C439.577 26.2853 433.261 20.5514 425.647 20.5514H421.652L356.172 64.917V20.5518H320.828V64.9174L255.348 20.5518H251.353C243.739 20.5518 237.423 26.2853 236.213 33.8047L292.178 71.7246H236V108.276H292.178L236.213 146.195C237.423 153.714 243.739 159.448 251.353 159.448H255.348L320.828 115.083V159.448H356.172V115.083L421.652 159.448H425.647C433.261 159.448 439.577 153.715 440.787 146.195L384.822 108.276H441V71.7237H384.822L440.787 33.8043Z" fill="#F5F5F5"/>
<path d="M349.104 20.8516H327.896V79.2561H236V101.158H327.896V159.563H349.104V101.158H441V79.2561H349.104V20.8516Z" fill="#EC615B" fill-opacity="0.5"/>
<path d="M245.927 158.54L320.633 108.458H307.649L239.693 154.016C241.356 156.02 243.493 157.59 245.927 158.54Z" fill="#EC615B" fill-opacity="0.5"/>
<path d="M374.69 108.458H361.707L434.064 156.965C436.088 155.592 437.778 153.737 438.983 151.559L374.69 108.458Z" fill="#EC615B" fill-opacity="0.5"/>
<path d="M237.621 29.6176L300.775 71.9556H313.759L242.196 23.9802C240.274 25.4573 238.702 27.3884 237.621 29.6176Z" fill="#EC615B" fill-opacity="0.5"/>
<path d="M369.156 71.9556L437.237 26.3144C435.555 24.3168 433.402 22.7554 430.951 21.8237L356.172 71.9556H369.156Z" fill="#EC615B" fill-opacity="0.5"/>
<path d="M34.418 82.2695H49.0078C58.793 82.2695 65.8828 80.4531 70.2773 76.8203C74.6719 73.1875 76.8691 67.7969 76.8691 60.6484C76.8691 53.3828 74.4961 48.168 69.75 45.0039C65.0039 41.8398 57.8555 40.2578 48.3047 40.2578H34.418V82.2695ZM34.418 99.6719V151H13.4121V22.5039H49.7109C66.293 22.5039 78.5684 25.6094 86.5371 31.8203C94.5059 38.0312 98.4902 47.4062 98.4902 59.9453C98.4902 75.9414 90.1699 87.3379 73.5293 94.1348L109.828 151H85.9219L55.1602 99.6719H34.418ZM202.641 116.107C202.641 127.533 198.51 136.498 190.248 143.002C181.986 149.506 170.59 152.758 156.059 152.758C141.527 152.758 129.633 150.502 120.375 145.99V126.127C126.234 128.881 132.445 131.049 139.008 132.631C145.629 134.213 151.781 135.004 157.465 135.004C165.785 135.004 171.908 133.422 175.834 130.258C179.818 127.094 181.811 122.846 181.811 117.514C181.811 112.709 179.994 108.637 176.361 105.297C172.729 101.957 165.229 98.002 153.861 93.4316C142.143 88.6855 133.881 83.2656 129.076 77.1719C124.271 71.0781 121.869 63.7539 121.869 55.1992C121.869 44.4766 125.678 36.0391 133.295 29.8867C140.912 23.7344 151.137 20.6582 163.969 20.6582C176.273 20.6582 188.52 23.3535 200.707 28.7441L194.027 45.8828C182.602 41.0781 172.406 38.6758 163.441 38.6758C156.645 38.6758 151.488 40.1699 147.973 43.1582C144.457 46.0879 142.699 49.9844 142.699 54.8477C142.699 58.1875 143.402 61.0586 144.809 63.4609C146.215 65.8047 148.529 68.0312 151.752 70.1406C154.975 72.25 160.775 75.0332 169.154 78.4902C178.588 82.416 185.502 86.0781 189.896 89.4766C194.291 92.875 197.514 96.7129 199.564 100.99C201.615 105.268 202.641 110.307 202.641 116.107Z" fill="#2F281E"/>
<path d="M479.25 157V28.5039H500.256V138.982H554.66V157H479.25ZM635.432 157L631.301 143.465H630.598C625.91 149.383 621.193 153.426 616.447 155.594C611.701 157.703 605.607 158.758 598.166 158.758C588.615 158.758 581.145 156.18 575.754 151.023C570.422 145.867 567.756 138.572 567.756 129.139C567.756 119.119 571.477 111.561 578.918 106.463C586.359 101.365 597.697 98.582 612.932 98.1133L629.719 97.5859V92.4004C629.719 86.1895 628.254 81.5605 625.324 78.5137C622.453 75.4082 617.971 73.8555 611.877 73.8555C606.896 73.8555 602.121 74.5879 597.551 76.0527C592.98 77.5176 588.586 79.2461 584.367 81.2383L577.688 66.4727C582.961 63.7188 588.732 61.6387 595.002 60.2324C601.271 58.7676 607.189 58.0352 612.756 58.0352C625.119 58.0352 634.436 60.7305 640.705 66.1211C647.033 71.5117 650.197 79.9785 650.197 91.5215V157H635.432ZM604.67 142.938C612.17 142.938 618.176 140.857 622.688 136.697C627.258 132.479 629.543 126.59 629.543 119.031V110.594L617.062 111.121C607.336 111.473 600.246 113.113 595.793 116.043C591.398 118.914 589.201 123.338 589.201 129.314C589.201 133.65 590.49 137.02 593.068 139.422C595.646 141.766 599.514 142.938 604.67 142.938ZM764.543 157H743.801V97.2344C743.801 89.7344 742.277 84.1387 739.23 80.4473C736.242 76.7559 731.467 74.9102 724.904 74.9102C716.174 74.9102 709.787 77.4883 705.744 82.6445C701.701 87.8008 699.68 96.4434 699.68 108.572V157H679.025V59.793H695.197L698.098 72.5371H699.152C702.082 67.9082 706.242 64.334 711.633 61.8145C717.023 59.2949 723 58.0352 729.562 58.0352C752.883 58.0352 764.543 69.9004 764.543 93.6309V157ZM875.373 59.793V71.1309L858.762 74.207C860.285 76.2578 861.545 78.7773 862.541 81.7656C863.537 84.7539 864.035 87.918 864.035 91.2578C864.035 101.277 860.578 109.158 853.664 114.9C846.75 120.643 837.229 123.514 825.1 123.514C821.994 123.514 819.182 123.279 816.662 122.811C812.209 125.564 809.982 128.787 809.982 132.479C809.982 134.705 811.008 136.375 813.059 137.488C815.168 138.602 819.006 139.158 824.572 139.158H841.535C852.258 139.158 860.402 141.443 865.969 146.014C871.535 150.584 874.318 157.176 874.318 165.789C874.318 176.805 869.777 185.301 860.695 191.277C851.613 197.254 838.488 200.242 821.32 200.242C808.078 200.242 797.971 197.898 790.998 193.211C784.025 188.523 780.539 181.844 780.539 173.172C780.539 167.195 782.414 162.156 786.164 158.055C789.973 154.012 795.275 151.199 802.072 149.617C799.318 148.445 797.033 146.57 795.217 143.992C793.459 141.355 792.58 138.602 792.58 135.73C792.58 132.098 793.605 129.021 795.656 126.502C797.707 123.982 800.754 121.492 804.797 119.031C799.758 116.863 795.656 113.348 792.492 108.484C789.387 103.562 787.834 97.8203 787.834 91.2578C787.834 80.7109 791.145 72.5371 797.766 66.7363C804.445 60.9355 813.938 58.0352 826.242 58.0352C828.996 58.0352 831.867 58.2402 834.855 58.6504C837.902 59.002 840.188 59.3828 841.711 59.793H875.373ZM798.996 172.117C798.996 176.57 800.988 179.998 804.973 182.4C809.016 184.803 814.67 186.004 821.936 186.004C833.186 186.004 841.564 184.393 847.072 181.17C852.58 177.947 855.334 173.67 855.334 168.338C855.334 164.119 853.811 161.102 850.764 159.285C847.775 157.527 842.18 156.648 833.977 156.648H818.332C812.414 156.648 807.697 158.025 804.182 160.779C800.725 163.592 798.996 167.371 798.996 172.117ZM807.873 91.2578C807.873 97.3516 809.426 102.039 812.531 105.32C815.695 108.602 820.207 110.242 826.066 110.242C838.02 110.242 843.996 103.855 843.996 91.082C843.996 84.7539 842.502 79.8906 839.514 76.4922C836.584 73.0352 832.102 71.3066 826.066 71.3066C820.09 71.3066 815.549 73.0059 812.443 76.4043C809.396 79.8027 807.873 84.7539 807.873 91.2578Z" fill="#2F281E"/>
</g>
<defs>
<clipPath id="clip0">
<rect width="896" height="210" fill="white"/>
</clipPath>
</defs>
</svg>
