<svg width="742" height="550" viewBox="0 0 742 550" fill="none" xmlns="http://www.w3.org/2000/svg">
<path d="M516.5 133.8C521.001 133.8 524.65 130.151 524.65 125.65C524.65 121.149 521.001 117.5 516.5 117.5C511.999 117.5 508.35 121.149 508.35 125.65C508.35 130.151 511.999 133.8 516.5 133.8Z" fill="#EC615B"/>
<path d="M525.15 111.2C527.249 111.2 528.95 109.499 528.95 107.4C528.95 105.301 527.249 103.6 525.15 103.6C523.051 103.6 521.35 105.301 521.35 107.4C521.35 109.499 523.051 111.2 525.15 111.2Z" fill="#EC615B"/>
<path d="M276 61.75C278.154 61.75 279.9 60.0039 279.9 57.85C279.9 55.696 278.154 53.95 276 53.95C273.846 53.95 272.1 55.696 272.1 57.85C272.1 60.0039 273.846 61.75 276 61.75Z" fill="#EC615B"/>
<path d="M531.2 518.2C534.845 518.2 537.8 515.245 537.8 511.6C537.8 507.955 534.845 505 531.2 505C527.555 505 524.6 507.955 524.6 511.6C524.6 515.245 527.555 518.2 531.2 518.2Z" fill="#EC615B"/>
<path d="M230.85 540.8C232.534 540.8 233.9 539.434 233.9 537.75C233.9 536.065 232.534 534.7 230.85 534.7C229.166 534.7 227.8 536.065 227.8 537.75C227.8 539.434 229.166 540.8 230.85 540.8Z" fill="#EC615B"/>
<path d="M268.95 315.5C270.69 315.5 272.1 314.09 272.1 312.35C272.1 310.61 270.69 309.2 268.95 309.2C267.21 309.2 265.8 310.61 265.8 312.35C265.8 314.09 267.21 315.5 268.95 315.5Z" fill="#EC615B"/>
<path d="M275.15 331.55C276.834 331.55 278.2 330.184 278.2 328.5C278.2 326.815 276.834 325.45 275.15 325.45C273.466 325.45 272.1 326.815 272.1 328.5C272.1 330.184 273.466 331.55 275.15 331.55Z" fill="#5222D0"/>
<path d="M271.5 416.55C274.648 416.55 277.2 413.998 277.2 410.85C277.2 407.702 274.648 405.15 271.5 405.15C268.352 405.15 265.8 407.702 265.8 410.85C265.8 413.998 268.352 416.55 271.5 416.55Z" fill="#5222D0"/>
<path d="M511.95 92.5999C513.938 92.5999 515.55 90.9881 515.55 88.9999C515.55 87.0117 513.938 85.3999 511.95 85.3999C509.962 85.3999 508.35 87.0117 508.35 88.9999C508.35 90.9881 509.962 92.5999 511.95 92.5999Z" fill="#5222D0"/>
<path d="M375 98.9C376.74 98.9 378.15 97.4897 378.15 95.75C378.15 94.0103 376.74 92.6 375 92.6C373.26 92.6 371.85 94.0103 371.85 95.75C371.85 97.4897 373.26 98.9 375 98.9Z" fill="#5222D0"/>
<path d="M94.15 345.3C95.4755 345.3 96.55 344.225 96.55 342.9C96.55 341.575 95.4755 340.5 94.15 340.5C92.8245 340.5 91.75 341.575 91.75 342.9C91.75 344.225 92.8245 345.3 94.15 345.3Z" fill="#5222D0"/>
<path d="M522.85 534.7C526.164 534.7 528.85 532.014 528.85 528.7C528.85 525.386 526.164 522.7 522.85 522.7C519.536 522.7 516.85 525.386 516.85 528.7C516.85 532.014 519.536 534.7 522.85 534.7Z" fill="#5222D0"/>
<path d="M587.1 21C588.84 21 590.25 19.5896 590.25 17.85C590.25 16.1103 588.84 14.7 587.1 14.7C585.36 14.7 583.95 16.1103 583.95 17.85C583.95 19.5896 585.36 21 587.1 21Z" fill="#5222D0"/>
<path d="M281.05 159.45C280.55 156.35 280.1 150.15 285.05 150.65C286.85 150.85 287.85 152.45 289.85 151.75C293.6 150.45 292.75 145.6 294.3 142.8C296.85 138.3 301.8 144.85 305.6 142.7C306.85 142 307.15 140.7 307.1 139.35C307 134.3 311.45 134.65 315.1 135.65C316.05 135.9 316.45 134.45 315.5 134.2C311.8 133.2 305.65 132.85 305.5 138.2C305.45 139.5 306.15 140.8 304.25 141.6C303.65 141.85 302.65 141.55 302.1 141.4C300.8 141 299.65 140.1 298.3 139.75C296.55 139.25 294.85 139.6 293.65 141C292.15 142.8 292.2 145.25 291.5 147.35C290.75 149.6 289.3 150.9 286.85 149.8C285.85 149.35 284.95 148.95 283.8 149.1C278.65 149.8 278.9 156.05 279.55 159.85C279.75 160.8 281.2 160.4 281.05 159.45Z" fill="#5222D0"/>
<path d="M286.95 162.35C287.35 159.25 289.85 157.9 292.75 157.9C294.3 157.9 295.85 158.15 297.35 157.6C300.75 156.3 300.1 152.6 300.9 149.7C302.4 144.2 309.35 147.6 313.2 146.7C315.8 146.05 318 143.45 316.9 140.7C316.55 139.8 315.1 140.2 315.45 141.1C317.15 145.25 311.35 145.5 308.9 145.2C307.1 145 305.35 144.7 303.55 145.15C300.7 145.9 299.6 148 299.2 150.7C298.85 153.2 298.9 155.95 295.65 156.35C293.9 156.55 292.15 156.05 290.4 156.45C287.6 157.1 285.8 159.45 285.45 162.25C285.3 163.3 286.8 163.3 286.95 162.35Z" fill="#5222D0"/>
<path d="M390.25 39.55C388.5 41.75 386.65 44.45 387.5 47.4C388.2 49.8 390.1 50.7 392.4 50.55C393.75 50.45 395.15 50.1 396.25 51.3C397.1 52.2 396.55 54.1 396.3 55.1C395.9 56.65 395.15 58.15 395.3 59.8C395.55 62.05 397.35 63.8 399.65 63.3C400.6 63.1 400.2 61.65 399.25 61.85C394.9 62.85 397.9 55.6 398.1 53.85C398.25 52.4 398 50.8 396.9 49.75C395.8 48.7 394.45 48.8 393.05 48.95C390.85 49.2 388.8 48.5 388.7 45.85C388.65 43.85 390.05 42.05 391.25 40.55C391.95 39.9 390.85 38.8 390.25 39.55Z" fill="#5222D0"/>
<path d="M402.05 38.8C399.7 39.8 398.2 42.25 398.8 44.8C399.1 45.95 399.8 47.05 400.8 47.75C402 48.65 403.4 48.45 404.6 49.2C406.85 50.55 405.05 53.2 405.15 55.3C405.2 56.35 405.45 57.3 406.35 57.95C407.7 59 409.7 58.65 410.25 56.95C410.55 56.05 409.1 55.65 408.8 56.55C406.9 56.3 406.25 55.45 406.8 54C406.9 53.5 407 53 407.1 52.5C407.2 52 407.25 51.5 407.25 51C407.25 49.95 406.95 48.85 406.15 48.1C404.95 47 403.1 47.45 401.8 46.55C399.15 44.7 400.1 41.2 402.8 40.05C403.7 39.7 402.9 38.45 402.05 38.8Z" fill="#5222D0"/>
<path d="M75.1 334.35C73.95 332.55 73.95 330.35 75.1 328.5C76.25 326.7 77.85 326.65 79.7 325.95C82.25 324.9 82.3 322.25 82.15 319.85C82.1 319 82.05 318.1 82.3 317.25C82.95 315.25 84.65 315.8 86.2 316.05C87.1 316.2 87.95 316.05 88.7 315.55C89.65 314.9 90.25 313.75 90.55 312.65C90.8 311.75 90.85 310.8 91.05 309.9C91.15 309.25 91.35 308.65 91.65 308.1C92.45 306.85 93.4 306.75 94.55 307.85C94.8 308.8 96.25 308.4 96 307.45C95.1 304.2 91.1 305.65 90.1 307.95C89.65 309 89.6 310.15 89.35 311.25C89.2 311.9 89.1 312.6 88.75 313.2C88 314.55 86.6 314.3 85.3 314.15C83.75 314 82.55 313.85 81.55 315.3C80.4 316.95 80.7 318.9 80.7 320.8C80.75 323.1 80.25 324 78 324.75C77.1 325.05 76.35 325.2 75.55 325.8C72.65 327.85 71.9 332.1 73.8 335.05C74.3 335.9 75.6 335.15 75.1 334.35Z" fill="#EC615B"/>
<path d="M81.35 337.8C79.25 337.5 80.05 335.2 81 334.3C81.7 333.65 82.65 333.25 83.55 332.8C84.65 332.25 85.75 331.6 86.55 330.65C88.7 327.95 85.6 324.35 88.6 322.2C91.6 320.1 99.65 319.15 97.3 313.55C96.95 312.65 95.65 313.45 96 314.3C97.7 318.35 89.45 319.55 87.35 321.25C86.6 321.85 85.95 322.65 85.65 323.6C85.05 325.7 86.8 327.85 85.25 329.85C83.45 332.05 79.6 332.05 78.7 335.15C78.15 336.9 79.1 339 81 339.3C81.9 339.4 82.3 337.95 81.35 337.8Z" fill="#EC615B"/>
<path d="M629.45 221.6C628.8 220.45 628.9 219.2 629.6 218.1C630.7 216.5 632 216.85 633.7 217C634.85 217.1 635.9 217.35 637 216.7C638.95 215.5 638.65 213 639 211.1C639.8 206.65 643.65 210.7 646.25 209.3C647.2 208.8 647.55 207.85 647.75 206.85C648.1 204.9 648.2 199.1 651.95 201.45C652.75 201.95 653.55 200.65 652.7 200.15C649.35 198.1 646.65 201.5 646.35 204.65C646.15 206.45 646.35 208.2 643.95 207.95C643.1 207.85 642.25 207.4 641.4 207.3C640.05 207.15 638.85 207.55 638.1 208.75C637.25 210.15 637.55 211.9 637.2 213.4C636.45 216.8 633.55 214.9 631.2 215.3C628.05 215.85 626.6 219.65 628.1 222.3C628.6 223.2 629.9 222.45 629.45 221.6Z" fill="#EC615B"/>
<path d="M636.9 224.75C636.05 222.45 638.7 219.9 641 221.1C641.3 221.25 641.7 221.25 641.9 221C643.05 219.75 643.35 218.3 643.85 216.7C644.75 213.8 646.9 213.4 649.5 212.6C652.05 211.8 654.9 209.7 653.85 206.7C653.5 205.8 652.05 206.2 652.4 207.1C653.85 211.05 646.75 211.35 644.65 212.8C642.1 214.6 642.85 217.85 640.9 219.95C641.2 219.9 641.5 219.85 641.8 219.85C638.45 218.1 634.2 221.55 635.5 225.2C635.8 226.05 637.25 225.7 636.9 224.75Z" fill="#EC615B"/>
<path d="M434.95 237.85C435.05 237.85 436.15 240.55 436.6 240.9C437.3 241.45 438.15 241.5 439 241.35C440.5 241.1 441.45 240 442.75 239.3C445.55 237.7 445.55 240.45 446.65 242C447.9 243.85 449.25 242.95 450.7 242.05C451.65 241.45 452.55 241.05 453.4 241.9C453.85 242.35 454.15 243.1 454.5 243.65C455.05 244.45 455.65 245.1 456.55 245.5C457.4 245.9 458.2 244.6 457.3 244.2C455.25 243.3 455 239.9 452.55 239.55C451.4 239.4 450.9 240.05 450 240.55C448.9 241.2 448.25 241.65 447.55 240.4C447.25 239.9 447.2 239.2 446.85 238.7C445.25 236.05 442.75 237.5 440.75 238.8C440.4 239.05 440.05 239.3 439.65 239.5C438.8 239.25 437.9 239 437.05 238.75C436.7 238.4 436.7 237.55 436.4 237.1C435.9 236.4 435.4 236.2 434.6 236.35C433.6 236.55 434 238 434.95 237.85Z" fill="#EC615B"/>
<path d="M446.7 233.05C448.2 230.7 451.65 235.6 453.05 236.2C453.9 236.55 454.7 236.55 455.6 236.3C456 236.2 456.35 236 456.7 235.85C458.05 235.3 459.2 235.65 460.3 236.6C461.9 237.95 462.35 239.75 464.65 240.25C466 240.55 467.25 240.15 467.85 238.85C468.25 238 466.95 237.2 466.55 238.1C465.15 241.1 461.3 235.2 460.3 234.55C458.45 233.35 457.3 234.35 455.45 234.75C452.5 235.35 451.55 232.05 449.1 231.25C447.65 230.75 446.25 231 445.45 232.35C444.85 233.15 446.15 233.9 446.7 233.05Z" fill="#EC615B"/>
<path d="M633.55 320.45C660.1 320.45 686.65 320.45 713.25 320.45C714.2 320.45 714.2 318.95 713.25 318.95C686.7 318.95 660.15 318.95 633.55 318.95C632.6 318.95 632.6 320.45 633.55 320.45Z" fill="#E8E8E8"/>
<path d="M655.3 320.1C655.3 327.85 655.3 335.55 655.3 343.3C655.3 344.25 656.8 344.25 656.8 343.3C656.8 335.55 656.8 327.85 656.8 320.1C656.8 319.15 655.3 319.15 655.3 320.1Z" fill="#E8E8E8"/>
<path d="M692.4 319.35C692.4 308.55 692.4 297.75 692.4 286.95C692.4 286 690.9 286 690.9 286.95C690.9 297.75 690.9 308.55 690.9 319.35C690.9 320.35 692.4 320.35 692.4 319.35Z" fill="#E8E8E8"/>
<path d="M674.75 287.55C684.8 287.55 694.85 287.55 704.9 287.55C705.85 287.55 705.85 286.05 704.9 286.05C694.85 286.05 684.8 286.05 674.75 286.05C673.8 286.05 673.8 287.55 674.75 287.55Z" fill="#E8E8E8"/>
<path d="M655 107.5C655 116.85 655 126.2 655 135.5C655 136.45 656.5 136.45 656.5 135.5C656.5 126.15 656.5 116.8 656.5 107.5C656.5 106.55 655 106.55 655 107.5Z" fill="#E8E8E8"/>
<path d="M631.65 137.65C649.7 137.65 667.7 137.65 685.75 137.65C686.7 137.65 686.7 136.15 685.75 136.15C667.7 136.15 649.7 136.15 631.65 136.15C630.65 136.15 630.65 137.65 631.65 137.65Z" fill="#E8E8E8"/>
<path d="M685.25 137.45C685.25 143.65 685.25 149.85 685.25 156.05C685.25 157 686.75 157 686.75 156.05C686.75 149.85 686.75 143.65 686.75 137.45C686.75 136.5 685.25 136.5 685.25 137.45Z" fill="#E8E8E8"/>
<path d="M183.1 78.35C200.75 78.35 218.45 78.35 236.1 78.35C237.05 78.35 237.05 76.85 236.1 76.85C218.45 76.85 200.75 76.85 183.1 76.85C182.15 76.85 182.1 78.35 183.1 78.35Z" fill="#E8E8E8"/>
<path d="M233.9 78.2C233.9 83 233.9 87.8 233.9 92.6C233.9 93.55 235.4 93.55 235.4 92.6C235.4 87.8 235.4 83 235.4 78.2C235.4 77.2 233.9 77.2 233.9 78.2Z" fill="#E8E8E8"/>
<path d="M217.85 77.0001C217.85 69.3001 217.85 61.65 217.85 53.95C217.85 53 216.35 53 216.35 53.95C216.35 61.65 216.35 69.3001 216.35 77.0001C216.35 78.0001 217.85 78.0001 217.85 77.0001Z" fill="#E8E8E8"/>
<path d="M78.25 232.45C90.45 232.45 102.65 232.45 114.85 232.45C115.8 232.45 115.8 230.95 114.85 230.95C102.65 230.95 90.45 230.95 78.25 230.95C77.3 230.95 77.3 232.45 78.25 232.45Z" fill="#E8E8E8"/>
<path d="M100.6 217.4C100.6 221.9 100.6 226.4 100.6 230.9C100.6 231.85 102.1 231.85 102.1 230.9C102.1 226.4 102.1 221.9 102.1 217.4C102.1 216.45 100.6 216.45 100.6 217.4Z" fill="#E8E8E8"/>
<path d="M91.8 218.15C98.3 218.15 104.8 218.15 111.3 218.15C112.25 218.15 112.25 216.65 111.3 216.65C104.8 216.65 98.3 216.65 91.8 216.65C90.8 216.65 90.8 218.15 91.8 218.15Z" fill="#E8E8E8"/>
<path d="M312 533.4C328.3 533.4 344.6 533.4 360.9 533.4C361.85 533.4 361.85 531.9 360.9 531.9C344.6 531.9 328.3 531.9 312 531.9C311 531.9 311 533.4 312 533.4Z" fill="#E8E8E8"/>
<path d="M342.1 531.9C342.1 528.4 342.1 524.9 342.1 521.35C342.1 520.4 340.6 520.4 340.6 521.35C340.6 524.85 340.6 528.35 340.6 531.9C340.6 532.9 342.1 532.9 342.1 531.9Z" fill="#E8E8E8"/>
<path d="M337.55 521.4C344.3 521.4 351.1 521.4 357.85 521.4C358.8 521.4 358.8 519.9 357.85 519.9C351.1 519.9 344.3 519.9 337.55 519.9C336.6 519.9 336.6 521.4 337.55 521.4Z" fill="#E8E8E8"/>
<path d="M79.4 507.1C95.7 507.1 112 507.1 128.3 507.1C129.25 507.1 129.25 505.6 128.3 505.6C112 505.6 95.7 505.6 79.4 505.6C78.45 505.6 78.45 507.1 79.4 507.1Z" fill="#E8E8E8"/>
<path d="M102 487.5C102 493.25 102 499.05 102 504.8C102 505.75 103.5 505.75 103.5 504.8C103.5 499.05 103.5 493.25 103.5 487.5C103.5 486.55 102 486.55 102 487.5Z" fill="#E8E8E8"/>
<path d="M102 485.25C95.5 485.25 88.95 485.25 82.45 485.25C81.5 485.25 81.5 486.75 82.45 486.75C88.95 486.75 95.5 486.75 102 486.75C102.95 486.75 102.95 485.25 102 485.25Z" fill="#E8E8E8"/>
<path d="M622.95 463.1C621.3 461.45 621.7 458.25 624.25 457.7C625.6 457.4 626.9 458.25 628.2 458.4C629.2 458.55 630.25 458.45 630.9 457.55C631.9 456.25 631.1 454.75 631.05 453.3C630.95 448.75 636.35 449.05 639.05 450.65C639.65 451 640.3 450.4 640.15 449.8C638.85 443.55 646 439.25 650.9 443.4C651.65 444 652.7 442.95 651.95 442.35C645.9 437.25 637.05 442.45 638.7 450.25C639.05 449.95 639.45 449.7 639.8 449.4C637.5 448 634.55 447.3 632.1 448.85C631.2 449.4 630.4 450.25 630 451.25C629.7 451.95 629.55 452.6 629.6 453.35C629.65 454.7 630.1 454.6 629.1 455.9C628 457.35 627.9 456.7 626.35 456.35C625.8 456.2 625.3 456.1 624.7 456.15C623.45 456.2 622.3 456.8 621.5 457.7C619.75 459.65 620.2 462.4 621.95 464.15C622.6 464.85 623.65 463.8 622.95 463.1Z" fill="#E8E8E8"/>
<path d="M632.7 464.6C632.15 460.05 639.6 460 641.7 456.85C642.25 456.05 642.45 455.15 642.8 454.3C643.45 452.75 644.6 451.75 646.3 451.3C649.05 450.6 651.9 451.85 654.4 452.9C655.3 453.25 655.7 451.8 654.8 451.45C650.2 449.55 644 448.1 641.45 453.7C640.55 455.7 640.25 456.8 638.15 457.85C636.9 458.45 635.6 458.8 634.4 459.5C632.5 460.6 631 462.3 631.25 464.6C631.35 465.55 632.85 465.55 632.7 464.6Z" fill="#E8E8E8"/>
<path d="M417.65 319.2C418.65 321.7 419.65 324.25 420.65 326.75C420.75 326.45 420.9 326.2 421 325.9C420.45 326.25 419.9 326.6 419.35 327C418.5 325 418.85 324.5 420.45 325.4C421.4 326 421.85 327.3 422.05 328.35C422.5 330.75 422 333.25 421.2 335.55C421 336.15 421.6 336.55 422.1 336.45C425.1 335.85 426.3 339.45 425.7 341.7C425.25 343.35 424.35 344.8 423.45 346.25C422.95 347.05 424.25 347.8 424.75 347C426.35 344.5 428.2 341.4 427.1 338.3C426.25 336 424.15 334.55 421.7 335C422 335.3 422.3 335.6 422.6 335.9C423.6 333 424.25 329.35 423 326.4C422.15 324.45 420.2 322.95 418 323.6C416.3 324.1 415.45 325.8 416.25 327.45C417.6 330.2 419.95 328.35 421.7 327.2C421.95 327.05 422.15 326.65 422.05 326.35C421.05 323.85 420.05 321.3 419.05 318.8C418.75 317.95 417.3 318.3 417.65 319.2Z" fill="#E8E8E8"/>
<path d="M121.95 82.65C121 80.25 124.2 79.6 125.7 80.45C126.85 81.1 127.6 82.25 128.3 83.3C128.95 84.25 129.65 85.3 130 86.4C130.4 87.35 130.35 88.25 129.85 89.15C128.1 89.95 127.2 89.75 127.15 88.6C126.7 86.95 128.45 85.85 129.95 85.9C131.5 85.95 132.95 86.85 134 87.95C135.8 89.85 136.45 92.35 136.2 94.9C136.65 94.75 137.15 94.65 137.6 94.5C136.6 93.05 137.55 91.5 138.9 90.75C140.05 90.15 141.35 90.3 142.45 90.9C144.25 91.85 145.5 93.6 146.65 95.2C147.2 96 148.5 95.25 147.95 94.45C146.05 91.8 143.2 88.1 139.45 88.95C136.7 89.55 134.5 92.75 136.3 95.25C136.75 95.9 137.6 95.6 137.7 94.85C138.15 90.1 134.65 83.6 129.05 84.4C127.05 84.7 125.6 86.1 125.6 88.15C125.6 89.75 126.6 91.4 128.3 91.5C130.3 91.65 131.65 89.7 131.75 87.9C131.9 85.4 129.95 82.7 128.45 80.85C127.05 79.2 125 77.8 122.8 78.65C121 79.3 119.8 81.1 120.55 82.95C120.85 83.95 122.3 83.55 121.95 82.65Z" fill="#E8E8E8"/>
<path d="M385.35 156C383.25 154.75 384.75 151.05 387.1 152.6C389.35 154.1 386.35 156.65 384.9 154.9C384.3 154.15 383.25 155.2 383.85 155.95C385 157.35 387.2 157.25 388.5 156.1C390 154.75 389.6 152.55 388.05 151.45C386.5 150.35 384.25 150.55 383.3 152.35C382.35 154.05 383 156.35 384.65 157.3C385.4 157.75 386.15 156.5 385.35 156Z" fill="#E8E8E8"/>
<path d="M544.65 46.65C543.55 45.1 545.45 42.75 547.2 43.45C547.05 43.35 546.9 43.2 546.75 43.1C547.7 44.75 546.3 47 544.45 46.9C544.7 47.1 544.95 47.25 545.15 47.45C544.85 46.6 544.5 45.7 544.2 44.85C543.85 43.95 542.4 44.35 542.75 45.25C543.05 46.1 543.4 47 543.7 47.85C543.8 48.2 544.05 48.4 544.4 48.4C546 48.5 547.4 47.5 548.1 46.1C548.65 45 548.95 42.7 547.6 42C544.65 40.55 541.6 44.95 543.35 47.4C543.9 48.2 545.2 47.45 544.65 46.65Z" fill="#E8E8E8"/>
<path d="M585.35 121C585.1 119.85 585.95 118.6 587.1 118.35C588.15 118.15 589.1 119 589.35 119.95C590 122.2 587.05 123.25 585.65 121.7C585 121 583.95 122.05 584.6 122.75C587.2 125.65 592.2 122.8 590.6 119.1C589.9 117.45 588.15 116.4 586.4 116.95C584.55 117.55 583.45 119.5 583.85 121.4C584.15 122.35 585.6 121.95 585.35 121Z" fill="#E8E8E8"/>
<path d="M423.05 534.85C421.15 533.95 421.3 531.35 423.05 530.35C424.75 529.4 426.35 530.25 427.9 530.95C429.2 531.55 430.7 532.1 431.85 530.95C432.9 529.95 432.7 528.4 432.75 527.1C432.95 522.05 437.85 523.05 441.2 524.3C442.1 524.65 442.5 523.2 441.6 522.85C438.65 521.7 434.55 520.6 432.2 523.5C431.5 524.35 431.3 525.35 431.25 526.4C431.2 527.1 431.5 528.65 431.1 529.3C430 530.95 428.5 529.45 427.35 528.95C425.15 528 422 528.25 420.65 530.55C419.5 532.5 420.2 535.15 422.25 536.1C423.15 536.55 423.9 535.25 423.05 534.85Z" fill="#E8E8E8"/>
<path d="M447.25 417C445.75 435.35 446.55 453.75 449.65 471.9C449.8 472.85 451.25 472.45 451.1 471.5C448.05 453.5 447.25 435.2 448.75 417C448.85 416.05 447.35 416.05 447.25 417Z" fill="#E8E8E8"/>
<path d="M448.25 418.15C456.05 420.85 464.1 422.65 472.3 423.55C480 424.35 488.85 425.2 496.25 422.3C497.15 421.95 496.75 420.5 495.85 420.85C488.65 423.7 479.9 422.85 472.3 422.05C464.25 421.2 456.3 419.35 448.65 416.7C447.7 416.35 447.35 417.8 448.25 418.15Z" fill="#E8E8E8"/>
<path d="M460.15 420.2C457.55 416.15 455.4 411.85 453.9 407.25C453.2 405.05 452.6 402.85 452.15 400.6C451.9 399.25 451.65 397.9 451.5 396.55C451.5 396.4 450.95 392.85 452 393.35C452.5 393.6 453.35 393.15 453.1 392.5C450.35 385.55 448.85 378.25 448.7 370.75C448.45 371 448.2 371.25 447.95 371.5C448.35 371.65 448.7 371.8 449.1 371.95C449.6 372.55 450.55 371.9 450.35 371.2C449.35 368 448.7 364.7 448.5 361.3C448.45 360.5 448.6 351.5 449.15 351.65C449.75 351.8 450.15 351.25 450.05 350.75C449.1 345.1 448.65 339.35 448.9 333.65C449 330.8 449.25 328 449.7 325.2C450.1 322.65 450.3 319.55 452.3 317.7C451.9 317.65 451.5 317.6 451.1 317.55C455.3 325.45 457.65 334.1 459.8 342.7C461.9 351.15 463.75 359.7 465.35 368.3C468.6 386.05 470.65 404 471.55 422.05C471.6 423 473.1 423 473.05 422.05C472.15 403.9 470.1 385.8 466.8 367.9C465.15 359 463.25 350.15 461.05 341.35C458.9 332.9 456.55 324.5 452.4 316.75C452.15 316.3 451.55 316.3 451.2 316.6C449.5 318.15 449 320.2 448.6 322.35C448.05 325.4 447.65 328.55 447.45 331.65C447.05 338.15 447.45 344.65 448.55 351.1C448.85 350.8 449.15 350.5 449.45 350.2C446.55 349.4 446.9 355.65 446.85 357.05C446.65 361.95 447.4 366.85 448.85 371.55C449.25 371.3 449.7 371.05 450.1 370.8C449.45 370.05 448.9 369.8 447.9 369.9C447.5 369.95 447.15 370.2 447.15 370.65C447.3 378.25 448.8 385.7 451.6 392.8C451.95 392.5 452.35 392.25 452.7 391.95C447.7 389.55 450.6 400.85 451 402.55C452.5 409.05 455.2 415.25 458.8 420.85C459.4 421.75 460.7 421 460.15 420.2Z" fill="#E8E8E8"/>
<path d="M468.1 370.25C467.65 367.05 467.55 363.8 467.95 360.6C468.05 359.8 469.95 350.4 470.9 350.8C471.4 351.05 472 350.75 472.05 350.15C472.35 343.75 474.35 338.05 476.7 332.15C479.05 326.3 481.35 320.65 485.25 315.6C484.9 315.6 484.55 315.6 484.2 315.6C487.05 318.85 486.7 323.8 486.85 327.85C487.05 332.4 487.2 336.95 487.25 341.5C487.35 350.45 487.2 359.4 486.8 368.35C485.95 386.65 483.9 404.9 480.8 422.95C480.65 423.9 482.1 424.3 482.25 423.35C485.5 404.55 487.55 385.5 488.4 366.4C488.8 356.8 488.9 347.2 488.7 337.6C488.6 332.8 488.5 328 488.15 323.2C487.95 320.05 487.45 316.95 485.25 314.5C485 314.2 484.45 314.2 484.2 314.5C480.35 319.5 477.95 325 475.65 330.85C473.1 337.15 470.95 343.25 470.6 350.15C471 349.95 471.35 349.7 471.75 349.5C468.7 348.15 467.7 354.65 467.3 356.4C466.2 361.1 466.1 365.85 466.8 370.6C466.75 371.6 468.2 371.2 468.1 370.25Z" fill="#E8E8E8"/>
<path d="M450.35 473.15C466 478.2 482.95 477.95 498.45 472.45C499.35 472.15 498.95 470.7 498.05 471C482.8 476.4 466.15 476.65 450.75 471.7C449.8 471.4 449.4 472.85 450.35 473.15Z" fill="#E8E8E8"/>
<path d="M496.05 421.8C496.65 429.9 497.3 438 497.85 446.1C498.4 454.35 498.6 462.7 497.25 470.9C497.1 471.85 498.55 472.25 498.7 471.3C500.05 463.25 499.95 455.15 499.4 447.05C498.85 438.65 498.2 430.2 497.55 421.8C497.5 420.85 496 420.85 496.05 421.8Z" fill="#E8E8E8"/>
<path d="M229.2 486C239.4 480.55 249.65 475.1 259.85 469.65C264.65 470.45 271.25 471.5 279.15 472.6C294.95 474.8 320.4 478.35 352.6 479.3C384.8 480.25 408.95 478.2 418.15 477.3C440.3 475.2 453.7 472.35 464.65 469.4C474.6 466.7 482.8 463.75 488.65 461.5C493.45 463.1 498.8 465.25 504.5 468.2C507.75 469.9 510.75 471.65 513.4 473.4C504 476.1 491.35 479.55 476.3 483.05C444.6 490.45 420.3 493.95 415.2 494.7C386.05 498.85 344.5 504.7 292.25 498.65C276 496.7 254.35 493.15 229.2 486Z" fill="white"/>
<path d="M228.65 486.05C228.9 488.15 229.2 490.2 229.45 492.3C233.2 493.35 238.7 494.85 245.5 496.35C258.5 499.25 271.7 501.25 288.95 502.6C352.65 507.6 403.55 503.15 403.55 503.15C429 500.9 453.7 498.6 485.6 489.3C497.6 485.8 507.4 482.25 514.4 479.5C513.85 477.15 513.3 474.8 512.75 472.45C510.8 473.25 507.9 474.4 504.35 475.7C480.25 484.5 460.4 487.4 442.7 489.55C403.8 494.35 384.35 496.7 355.8 497.15C323.3 497.7 279.7 495.75 228.65 486.05Z" fill="#161616"/>
<path d="M228.3 487C228.3 488.6 228.3 490.2 228.3 491.8C228.3 492.75 229.8 492.75 229.8 491.8C229.8 490.2 229.8 488.6 229.8 487C229.8 486 228.3 486 228.3 487Z" fill="#161616"/>
<path d="M228.85 493.2C266.2 503.3 305.2 504.6 343.65 505.15C380.6 505.65 417.8 504.05 454.2 497.3C474.7 493.5 494.9 487.95 514.4 480.4C515.3 480.05 514.9 478.6 514 478.95C479.6 492.3 443.05 499.1 406.3 501.95C369.25 504.8 331.85 504.15 294.8 501.9C272.65 500.5 250.7 497.6 229.25 491.8C228.3 491.5 227.9 492.95 228.85 493.2Z" fill="#161616"/>
<path d="M514.4 479.35C514.7 477.25 514.8 475.1 514.6 473C514.5 472.05 513 472.05 513.1 473C513.25 475 513.25 477 512.95 478.95C512.8 479.85 514.25 480.3 514.4 479.35Z" fill="#161616"/>
<path d="M229.5 486.85C240 481.85 250.3 476.5 260.4 470.7C261.25 470.2 260.5 468.95 259.65 469.4C249.55 475.15 239.25 480.55 228.75 485.55C227.85 485.95 228.6 487.25 229.5 486.85Z" fill="#161616"/>
<path d="M260 470C319.65 481.35 381.65 483.45 441.8 474.85C457.8 472.55 473.7 469 488.5 462.4C489.4 462 488.6 460.7 487.75 461.1C474.45 467 460.25 470.45 445.9 472.7C431.3 475 416.55 476.4 401.8 477.35C371.85 479.25 341.75 478.75 311.9 475.9C294.6 474.25 277.45 471.75 260.4 468.55C259.45 468.4 259.05 469.85 260 470Z" fill="#161616"/>
<path d="M488.2 462.15C497.1 465.05 505.45 469.1 513.25 474.25C514.05 474.8 514.8 473.5 514 472.95C506.1 467.75 497.6 463.65 488.6 460.7C487.65 460.4 487.25 461.85 488.2 462.15Z" fill="#161616"/>
<path d="M229.6 486.05C247.25 492 265.65 494.8 284.15 496.3C302.9 497.8 321.8 498.25 340.6 498.25C377.95 498.25 415.4 495.7 452.2 489C473.1 485.2 493.8 480.05 513.95 473.3C514.85 473 514.45 471.55 513.55 471.85C478.1 483.65 441.25 490.55 404.05 493.95C367.05 497.35 329.65 497.55 292.55 495.35C271.35 494.05 250.1 491.4 229.9 484.6C229.1 484.3 228.7 485.75 229.6 486.05Z" fill="#161616"/>
<path d="M258.4 200.5C319.5 186.35 382.4 183.25 444.9 182.65C462.6 182.45 480.3 182.5 498 182.5C498.95 182.5 498.95 181 498 181C435.3 180.9 372.3 180.85 310.05 189.5C292.55 191.95 275.2 195.05 258 199.05C257.05 199.3 257.45 200.75 258.4 200.5Z" fill="#161616"/>
<path d="M501.1 181.15C501.75 204.4 502.15 231.35 502 261.3C501.9 278.7 501.75 270.4 500.2 342.8C499.3 384.5 499.05 400.2 496.1 424.3C494.2 440 491.9 452.9 490.2 461.65C503.1 465.25 515.4 468.65 526.2 471.65C542.9 476.3 547.35 477.55 554 478.5C564.3 479.9 576.85 480.1 591.35 477.15C596.7 433.35 599.65 396 601.35 367.4C607.45 266.9 601.75 220.6 599.55 204.35C596.55 182.45 592.85 164.45 590 152C579.3 154.05 570.6 156.25 564.5 157.9C543.55 163.65 526.95 170.4 513.05 176.1C507.9 178.25 503.75 180 501.1 181.15Z" fill="white"/>
<path d="M156.4 152.9C156 157.2 155.55 162.5 155.15 167.1C146.85 261.75 142.7 309.1 141.35 339.55C139.95 372.25 139.85 419.65 146.8 478.6C147.35 479.8 148.35 481.45 150.15 482.8C152.5 484.55 154.65 484.5 158.9 485.7C162.25 486.65 164 487.6 165.6 488.2C170.2 490 180.5 492.05 193.6 491.55C212.4 490.8 226.85 485.05 237.45 480.7C247.4 476.65 255.35 472.3 260.85 469C257.75 441.15 255.45 411.75 254.15 380.9C251.5 315.3 254.15 255.05 259.6 201.35C257.3 200.45 253.95 199.2 250 197.6C243.2 194.85 226.9 188.2 198.2 174.2C186.85 168.7 172.65 161.55 156.4 152.9Z" fill="white"/>
<path d="M589.7 151.8C590.3 155.1 591.1 159.65 592 165.1C593.25 172.85 596.05 191.2 598.1 215.3C600.2 240.4 600.7 262 600.75 279.2C600.9 314.1 599.6 339.7 596.2 399.4C595.15 418 593.6 445.25 591.65 478.5C593.7 478.35 595.7 478.25 597.75 478.1C598.75 469.8 600.1 457.45 601.15 442.35C601.95 431.45 602.3 423.5 602.65 414.95C604.4 375.75 604.7 376.2 605.3 360.2C606.5 328.65 606.25 304.4 606.05 282.6C605.9 267.55 605.45 253.3 604.55 224.8C603.9 205.4 603.25 188.2 598.85 165.85C597.7 160.15 596.6 155.4 595.8 152.15C593.75 152.05 591.75 151.95 589.7 151.8Z" fill="#161616"/>
<path d="M148.75 153.8C148.4 155.55 147.85 158.25 147.3 161.55C145.7 171.1 145.3 178.3 145.15 180.65C144.05 197.65 141.85 205.95 138.65 243.7C138.05 250.6 137.6 256.65 136.7 268.8C134.85 293.6 133.95 306 133.3 320C132.6 335.65 132.5 346.7 132.35 368.8C132.2 387.9 132.1 401.7 132.6 419.75C133 434.15 133.8 453.7 135.75 477C139.8 478.2 143.8 479.4 147.85 480.6C147.8 478.35 147.65 474.3 147.35 469.25C146.15 446.8 144.2 437.7 143.75 419C143.6 413.25 143.7 409.45 143.75 404C144.3 364.9 143.65 347.05 144 321.65C144.6 280.2 147.4 247.8 149.8 220.2C152.05 194.1 154.6 171.75 156.8 154.25C154.05 154.1 151.4 153.95 148.75 153.8Z" fill="#161616"/>
<path d="M499.9 182C501.75 218.7 501.5 255.5 501 292.2C500.45 328.1 500.2 364.1 497.45 399.95C495.9 420.35 493.45 440.7 489.65 460.85C489.45 461.8 490.9 462.2 491.1 461.25C497.75 426 500.2 390.15 501.3 354.35C502.45 317.8 502.95 281.15 502.9 244.55C502.85 223.7 502.5 202.85 501.45 182C501.35 181.05 499.85 181.05 499.9 182Z" fill="#161616"/>
<path d="M501.75 182C529.5 168.25 558.95 158.35 589.35 152.5C590.3 152.3 589.9 150.85 588.95 151.05C558.45 156.95 528.85 166.95 501 180.7C500.15 181.15 500.9 182.45 501.75 182Z" fill="#161616"/>
<path d="M588.85 152.05C597.1 193.6 599.6 236.05 599.55 278.35C599.45 320.65 596.95 362.85 594.9 405.1C593.7 429.45 592.5 453.75 591.3 478.1C591.25 479.05 592.75 479.05 592.8 478.1C594.95 435 597.2 391.9 599.15 348.75C601.05 306.45 602.25 264.05 599.4 221.8C597.8 198.25 594.95 174.8 590.35 151.7C590.1 150.7 588.65 151.1 588.85 152.05Z" fill="#161616"/>
<path d="M489.9 461.15C492.15 463.75 496.15 464.25 499.3 465.2C503.6 466.5 507.95 467.8 512.25 469.1C520.95 471.7 529.6 474.45 538.4 476.65C555.6 480.85 573.25 481.7 590.7 478.7C591.65 478.55 591.25 477.1 590.3 477.25C573.1 480.2 555.7 479.35 538.8 475.2C530.75 473.25 522.85 470.75 514.95 468.35C510.95 467.15 506.95 465.95 502.95 464.75C500.95 464.15 498.95 463.55 496.95 462.95C494.85 462.3 492.5 461.85 491 460.1C490.3 459.4 489.25 460.45 489.9 461.15Z" fill="#161616"/>
<path d="M589.85 152.1C591.7 152.55 593.55 153 595.45 153.45C596.4 153.7 596.8 152.25 595.85 152C594 151.55 592.15 151.1 590.25 150.65C589.3 150.45 588.9 151.9 589.85 152.1Z" fill="#161616"/>
<path d="M595.35 152.95C600.35 173.15 601.7 194.25 603.15 215C604.65 236.2 605.45 257.45 605.8 278.75C606.4 321 604.95 363.25 602.55 405.45C601.2 429.35 599.5 453.25 597.75 477.15C597.7 478.1 599.2 478.1 599.25 477.15C602.4 434.65 605.25 392.15 606.6 349.55C607.95 307.05 607.85 264.45 605.15 221.95C603.7 198.85 602.4 175.15 596.85 152.6C596.55 151.6 595.1 152 595.35 152.95Z" fill="#161616"/>
<path d="M592.1 478.95C594.3 478.75 596.45 478.55 598.65 478.35C599.6 478.25 599.6 476.75 598.65 476.85C596.45 477.05 594.3 477.25 592.1 477.45C591.15 477.55 591.15 479.05 592.1 478.95Z" fill="#161616"/>
<path d="M258.35 200.95C255 235.6 253 270.35 252.35 305.15C251.7 340.1 252.4 375.1 254.5 410C255.65 429.6 257.3 449.15 259.3 468.65C259.4 469.6 260.9 469.6 260.8 468.65C257.2 434.05 254.95 399.3 254.05 364.5C253.15 329.55 253.6 294.55 255.45 259.65C256.5 240.05 257.95 220.5 259.8 200.95C259.95 200 258.45 200 258.35 200.95Z" fill="#161616"/>
<path d="M157.35 154.1C189.8 172.15 223.5 187.95 258.1 201.4C259 201.75 259.4 200.3 258.5 199.95C224 186.55 190.45 170.8 158.1 152.8C157.25 152.3 156.5 153.6 157.35 154.1Z" fill="#161616"/>
<path d="M155.8 153.75C150.25 196.05 146.4 238.6 144.3 281.25C142.2 323.9 141.9 366.6 143.3 409.25C144.1 433.2 145.45 457.15 147.35 481.05C147.45 482 148.95 482 148.85 481.05C145.45 438.5 143.85 395.8 143.95 353.15C144.05 310.45 145.95 267.8 149.55 225.25C151.6 201.35 154.2 177.55 157.3 153.75C157.4 152.8 155.9 152.8 155.8 153.75Z" fill="#161616"/>
<path d="M147.3 482C175.15 497.15 208.5 493.9 236.8 481.9C245.3 478.3 253.5 473.95 261.4 469.2C262.2 468.7 261.45 467.4 260.65 467.9C234.3 483.85 203.4 495 172.25 489.2C163.8 487.65 155.6 484.8 148.05 480.7C147.25 480.25 146.45 481.55 147.3 482Z" fill="#161616"/>
<path d="M136.25 477.85C139.75 479.5 143.35 480.9 147 482.15C147.9 482.45 148.3 481 147.4 480.7C143.85 479.5 140.4 478.15 137 476.55C136.1 476.15 135.35 477.45 136.25 477.85Z" fill="#161616"/>
<path d="M147.75 154.1C142.35 196 137.85 238 134.9 280.15C132 322.1 130.6 364.15 131.5 406.2C132 430 133.2 453.8 135.25 477.5C135.35 478.45 136.85 478.45 136.75 477.5C133.15 435.45 132.1 393.25 133.1 351.05C134.05 309 136.95 267 141.1 225.1C143.45 201.4 146.2 177.7 149.25 154.05C149.4 153.15 147.9 153.15 147.75 154.1Z" fill="#161616"/>
<path d="M148.6 155.15C151.5 154.55 154.4 154.35 157.4 154.5C158.35 154.55 158.35 153.05 157.4 153C154.3 152.85 151.25 153.1 148.2 153.7C147.25 153.9 147.65 155.35 148.6 155.15Z" fill="#161616"/>
<path d="M519.05 185.4C521.15 243.4 521.05 301.45 518.65 359.45C518 375.7 517.15 391.9 516.1 408.15C516.05 409.1 517.55 409.1 517.6 408.15C521.25 350.25 522.65 292.2 521.8 234.15C521.55 217.9 521.15 201.65 520.55 185.4C520.5 184.45 519 184.45 519.05 185.4Z" fill="#161616"/>
<path d="M543.3 164.6C545.3 204.95 546.3 245.4 546.25 285.8C546.25 326.2 545.25 366.65 543.25 407C542.15 429.85 540.7 452.65 538.95 475.45C538.9 476.4 540.4 476.4 540.45 475.45C543.55 435.15 545.65 394.8 546.8 354.4C547.9 314 548.05 273.55 547.2 233.15C546.7 210.3 545.9 187.45 544.8 164.6C544.75 163.65 543.25 163.65 543.3 164.6Z" fill="#161616"/>
<path d="M572.4 155.7C575.2 197.65 576.9 239.7 577.35 281.8C577.8 324.05 577.1 366.25 575.2 408.45C574.15 432.1 572.7 455.75 570.85 479.35C570.8 480.3 572.3 480.3 572.35 479.35C575.55 437.4 577.65 395.35 578.5 353.3C579.35 311.1 579.05 268.85 577.55 226.6C576.7 202.95 575.5 179.3 573.9 155.65C573.85 154.7 572.35 154.7 572.4 155.7Z" fill="#161616"/>
<path d="M513.9 426.9C512.75 440 510.65 453 507.6 465.8C507.4 466.75 508.8 467.15 509.05 466.2C512.15 453.25 514.25 440.15 515.4 426.9C515.5 425.95 514 425.95 513.9 426.9Z" fill="#161616"/>
<path d="M173.75 163.85C167.75 205.8 165.2 248.2 164.8 290.55C164.45 333.15 166.2 375.7 168.8 418.2C170.25 442.25 171.95 466.25 173.65 490.3C173.7 491.25 175.2 491.25 175.15 490.3C172.15 447.95 169.15 405.6 167.5 363.2C165.85 320.9 165.6 278.5 168.05 236.2C169.45 212.15 171.75 188.1 175.15 164.25C175.35 163.35 173.9 162.9 173.75 163.85Z" fill="#161616"/>
<path d="M202.5 177.85C198.7 218.4 196.15 259.1 195.3 299.85C194.5 340.55 195.45 381.25 198.8 421.85C200.65 444.4 203.25 466.85 206.65 489.2C206.8 490.15 208.25 489.75 208.1 488.8C202 448.5 198.5 407.8 197.2 367.05C195.9 326.85 196.65 286.55 198.85 246.4C200.1 223.55 201.85 200.7 204 177.9C204.1 176.9 202.6 176.9 202.5 177.85Z" fill="#161616"/>
<path d="M231.3 189.8C226.4 227.65 223.55 265.75 222.8 303.9C222.05 342.05 223.35 380.25 226.7 418.25C228.6 439.45 231.1 460.55 234.25 481.6C234.4 482.55 235.85 482.15 235.7 481.2C230.05 443.5 226.45 405.55 224.9 367.5C223.35 329.55 223.9 291.5 226.45 253.55C227.9 232.25 230 210.95 232.75 189.75C232.95 188.85 231.45 188.85 231.3 189.8Z" fill="#161616"/>
<path opacity="0.12" d="M561.2 159.1C566.75 181.75 571.25 208.3 572.75 238.05C576.5 313.75 558.7 375.6 543.2 415.3C532.25 432.85 521.35 450.4 510.4 467.95C521.05 472.55 536.85 477.9 556.55 479.5C570.15 480.6 581.95 479.6 591.15 478.1C591.25 475.9 592.9 442.45 593 440.25C598.45 328.2 598.8 320.55 599 312.85C599.9 281.5 599.75 236.5 594.4 180.35C592.55 170.8 590.7 161.25 588.85 151.75C579.7 154.15 570.45 156.6 561.2 159.1Z" fill="#3F3F3F"/>
<path opacity="0.13" d="M212.25 183.55C210.95 189 209 197.15 206.7 207.1C196.5 251.5 189 284.15 185 314.2C177.9 367.15 171.05 418.45 200.25 460.55C208.75 472.8 218.05 481.05 224.25 485.95C218.25 488.3 210.8 490.45 202.1 491.5C177.9 494.35 158.5 486.5 149 481.8C145.4 448.65 142.9 413.15 142.1 375.6C140.3 292.5 147.05 217.8 157.35 153.55C175.6 163.55 193.9 173.55 212.25 183.55Z" fill="#3F3F3F"/>
<path d="M159.8 129.75C159.15 130.25 159.65 132.2 160.55 135.55C160.9 136.85 161.25 137.85 161.45 138.5C161.05 141.2 160.7 143.9 160.3 146.6C159.5 146.7 157.45 147.15 155.55 148.8C153.8 150.35 153.1 152.15 152.85 152.95C154.45 153.1 156.4 153.45 158.5 154.1C161.55 155.05 163.95 156.35 165.7 157.45C165.7 158.05 165.8 159.2 166.6 160.05C167.3 160.75 168.15 160.85 168.65 160.95C170.45 161.25 172.6 161.65 175.35 162.25C176.55 162.95 178.55 164.1 181 165.45C189.3 169.95 192.3 170.7 200.6 175.1C205.95 177.95 205.5 178.05 209.25 179.85C215 182.65 219.95 184.3 223.3 185.25C224.7 183.7 226.95 180.7 228.2 176.35C229.2 172.9 229.15 169.9 228.95 167.95C229.8 168.4 231.15 168.9 232.7 168.7C236.7 168.25 239.25 163.7 240.05 160.45C240.75 157.6 240.1 155.8 239.55 152.45C238.3 144.95 237.2 138.25 240.3 134C242.9 130.45 248.25 128.8 252.55 124.05C252.95 123.6 253.7 122.75 253.45 122.35C253 121.6 249.5 122.9 247.8 123.65C246.7 124.15 238.45 127.95 235.95 136.55C235.55 137.9 235.5 141.8 235.45 149.55C235.4 155.2 235.5 158.4 233.25 160.25C232.1 161.2 230.4 161.75 228.85 161.4C226.55 160.9 225.45 158.65 224.45 157.15C221.85 153.2 218.15 151.55 213.6 149.3C210.05 147.55 207 146.9 200.85 145.55C195.05 144.3 193.3 144.45 190.8 142.6C188 140.5 186.45 137.55 185.65 135.9C184.85 134.35 183.6 131.9 183.05 128.4C182.75 126.35 182.8 124.9 182.3 124.8C181.4 124.6 180.95 128.75 177.9 130.2C176.05 131.1 174.85 130.25 171.6 130.35C169.5 130.4 167.1 130.85 164.4 132.05C163.5 131.4 160.7 129.1 159.8 129.75Z" fill="black"/>
<path d="M161.3 146.2C160.25 137.95 167.75 130.45 176.05 131.3C183.9 132.1 189.1 141.65 188.85 148.8C188.8 149.75 190.3 149.75 190.35 148.8C190.6 140.9 184.7 130.5 176.05 129.8C166.95 129.05 158.65 137.1 159.8 146.2C159.95 147.1 161.45 147.15 161.3 146.2Z" fill="black"/>
<path d="M161.15 151.4C164.2 157.35 170.75 161.55 177.6 160.65C183.85 159.8 189.15 154.75 190.1 148.5C190.25 147.55 188.8 147.15 188.65 148.1C187.8 153.8 183.1 158.4 177.4 159.15C171.15 160 165.25 156.1 162.45 150.65C162 149.8 160.7 150.55 161.15 151.4Z" fill="black"/>
<path d="M166.55 158.65C166.4 156.75 171.8 155.95 173.15 155.65C175.6 155.1 178.1 154.8 180.6 154.8C185.25 154.8 189.7 156 193.65 158.45C194.45 158.95 195.25 157.65 194.4 157.15C189.3 154 183.35 152.9 177.45 153.45C174.35 153.75 171.3 154.4 168.35 155.4C166.75 155.95 164.85 156.65 165 158.65C165.1 159.6 166.65 159.6 166.55 158.65Z" fill="black"/>
<path d="M188.05 141.35C191.2 145.15 196.3 146.05 200.85 147.05C206.9 148.45 213.15 149.7 218.45 153.05C229.4 159.95 231.45 175 222.8 184.65C222.15 185.35 223.2 186.45 223.85 185.7C231.55 177.15 231.75 164.05 223.8 155.55C219.6 151.05 213.6 148.7 207.75 147.15C201.8 145.6 193.25 145.35 189.05 140.25C188.5 139.55 187.45 140.6 188.05 141.35Z" fill="black"/>
<path d="M223.05 167.5C220.55 164.2 216.15 163.05 212.3 164.65C207.55 166.6 207.3 172.45 207.85 176.9C207.95 177.85 209.45 177.85 209.35 176.9C208.9 173.4 208.85 168 212.45 166.25C215.55 164.7 219.6 165.5 221.7 168.3C222.3 169.05 223.6 168.3 223.05 167.5Z" fill="black"/>
<path d="M209.15 176.2C206.4 174.1 203.55 172.3 200 173.25C199.6 173.35 199.4 173.8 199.5 174.15C200.4 177.65 205.9 179.1 208.8 180.35C213.25 182.3 217.8 183.95 222.4 185.4C223.3 185.7 223.7 184.25 222.8 183.95C219.1 182.8 215.5 181.55 211.9 180.05C209.95 179.25 208.05 178.4 206.15 177.5C204.45 176.7 201.4 175.75 200.9 173.75C200.75 174.05 200.55 174.35 200.4 174.65C203.5 173.8 206.05 175.65 208.35 177.45C209.15 178.1 209.9 176.8 209.15 176.2Z" fill="black"/>
<path d="M165.2 158.5C167.15 161.7 171.1 162.25 174.55 162.75C179.65 163.5 184.75 163.5 189.85 162.95C190.8 162.85 190.8 161.35 189.85 161.45C185.75 161.9 181.65 162 177.55 161.6C174.1 161.25 168.55 161.05 166.45 157.75C166 156.9 164.7 157.65 165.2 158.5Z" fill="black"/>
<path d="M153.55 153.4C154.2 149.9 157.25 148.1 160.65 147.95C160.4 147.75 160.15 147.6 159.95 147.4C160.2 148.6 160.55 149.75 161.05 150.85C161.4 151.75 162.85 151.35 162.5 150.45C162.05 149.3 161.7 148.2 161.4 147C161.35 146.7 161 146.45 160.7 146.45C156.7 146.65 152.9 148.85 152.15 153C151.95 153.95 153.4 154.35 153.55 153.4Z" fill="black"/>
<path d="M162.25 137.9C161.5 135.75 160.95 133.5 160.75 131.2C160.75 131 160.7 130.8 160.7 130.6C160.65 130.15 160.7 130.2 160.9 130.75C161.35 131.05 161.8 131.4 162.25 131.75C163 132.4 163.7 133.1 164.3 133.85C164.95 134.6 166 133.5 165.35 132.8C164.5 131.8 160.95 127.7 159.45 129.3C158.7 130.1 159.25 131.95 159.4 132.85C159.65 134.7 160.15 136.55 160.75 138.3C161.15 139.2 162.6 138.85 162.25 137.9Z" fill="black"/>
<path d="M179.15 130.9C179.6 130.1 180.05 129.3 180.55 128.5C180.75 128.15 180.95 127.85 181.1 127.5C181.4 127 181.4 126.55 182 126.7C182.7 126.85 182.45 128.5 182.45 129.1C182.45 130.05 182.5 131 182.5 131.95C182.5 132.9 184 132.9 184 131.95C184 130.4 184.05 128.85 183.95 127.3C183.9 126.3 183.55 125.2 182.45 124.85C181.45 124.55 180.75 125.2 180.25 125.95C179.4 127.3 178.65 128.75 177.85 130.1C177.35 131 178.65 131.75 179.15 130.9Z" fill="black"/>
<path d="M227.05 163.6C227.35 167.4 231.6 168.65 234.55 166.8C238.9 164.1 239.85 158 239.3 153.4C238.55 147.1 237.05 141.25 239.2 135C241.25 129.05 246.35 124.2 252.8 123.8C253.75 123.75 253.75 122.25 252.8 122.3C244 122.85 238 130.35 236.75 138.65C236 143.6 237.1 148.2 237.75 153.05C238.15 156.25 237.95 159.3 236.5 162.25C235.85 163.5 234.95 164.75 233.75 165.55C231.9 166.7 228.7 166.35 228.5 163.65C228.5 162.65 227 162.6 227.05 163.6Z" fill="black"/>
<path d="M227.85 166.3C229.4 170.45 234.8 168.6 237.15 166.2C241 162.3 240.15 155.8 239.85 150.85C239.8 149.9 238.3 149.9 238.35 150.85C238.55 154 238.85 157.4 238.3 160.55C238.05 162.05 237.5 163.45 236.5 164.65C235.4 166 230.6 169.4 229.3 165.9C228.95 165 227.5 165.4 227.85 166.3Z" fill="black"/>
<path d="M252.85 122.25C247.15 124.45 241.4 127.55 239.1 133.55C236.45 140.45 238.35 147.95 238.2 155.1C238.2 156.05 239.7 156.05 239.7 155.1C239.85 148.85 238.35 142.45 239.85 136.25C241.5 129.45 247.15 126.05 253.25 123.7C254.15 123.35 253.75 121.9 252.85 122.25Z" fill="black"/>
<path d="M251.7 123.1C246.45 125.5 241.65 129.7 239.2 135.05C237.9 137.85 238.1 140.95 238.1 144C238.1 147.9 238.25 151.85 238.55 155.75C238.6 156.7 240.1 156.7 240.05 155.75C239.85 152.6 239.7 149.5 239.65 146.35C239.6 143.05 239.15 139.15 240.4 136.05C242.55 130.8 247.4 126.75 252.45 124.4C253.35 124 252.6 122.7 251.7 123.1Z" fill="black"/>
<path d="M164.25 141.2C165.65 143.65 169.2 142.8 169.55 140.1C169.6 139.6 168.85 139.65 168.8 140.1C168.55 142.15 165.95 142.55 164.9 140.85C164.65 140.4 164 140.8 164.25 141.2Z" fill="white"/>
<path d="M174.85 139.25C176.4 141.9 180.35 140.85 180.4 137.8C180.4 137.3 179.65 137.3 179.65 137.8C179.6 140.15 176.7 140.9 175.5 138.9C175.25 138.45 174.6 138.8 174.85 139.25Z" fill="white"/>
<path d="M171.85 142.55C172.2 144 171.9 145.45 171 146.65C170.7 147.05 171.35 147.4 171.65 147.05C172.65 145.7 172.95 144 172.6 142.35C172.45 141.9 171.7 142.1 171.85 142.55Z" fill="white"/>
<path d="M172.15 142.5C172 144.4 173.05 146.2 174.8 147C175.25 147.2 175.6 146.55 175.2 146.35C173.7 145.65 172.75 144.15 172.9 142.5C172.9 142 172.15 142 172.15 142.5Z" fill="white"/>
<path d="M159.95 146.95C164.35 146.6 167.15 150.2 170.1 152.85C170.45 153.15 171 152.65 170.65 152.3C167.55 149.5 164.55 145.85 159.95 146.15C159.5 146.2 159.5 146.95 159.95 146.95Z" fill="white"/>
<path d="M168.15 155.75C173.8 152.15 180.5 150.95 187.05 152.4C187.5 152.5 187.7 151.8 187.25 151.7C180.5 150.25 173.6 151.45 167.8 155.15C167.35 155.35 167.75 156 168.15 155.75Z" fill="white"/>
<path d="M182.35 162.6C187 162.9 191.4 161.45 194.95 158.4C195.3 158.1 194.8 157.55 194.4 157.85C191 160.75 186.8 162.15 182.35 161.85C181.9 161.85 181.9 162.6 182.35 162.6Z" fill="white"/>
<path d="M181 127.1C179.9 128.95 179.65 131.1 180.3 133.15C180.45 133.6 181.15 133.4 181 132.95C180.4 131.1 180.6 129.15 181.6 127.5C181.9 127.05 181.25 126.65 181 127.1Z" fill="white"/>
<path d="M161.2 131.75C162.4 132.5 163.15 133.65 163.45 135C163.55 135.45 164.25 135.25 164.15 134.8C163.8 133.25 162.9 131.95 161.55 131.1C161.15 130.85 160.8 131.5 161.2 131.75Z" fill="white"/>
<path d="M187.65 139.75C188.6 140.9 189.7 141.9 190.95 142.65C191.35 142.9 191.75 142.25 191.35 142C190.15 141.25 189.05 140.3 188.2 139.2C187.85 138.85 187.35 139.4 187.65 139.75Z" fill="white"/>
<path d="M218.5 164.3C217.45 161.65 212.4 163.45 210.75 164.5C207.8 166.45 206.5 170.1 207.6 173.45C207.75 173.9 208.45 173.7 208.3 173.25C207.45 170.6 208.15 167.75 210.25 165.8C211.15 164.95 212.35 164.35 213.55 164.05C214.4 163.8 217.3 163.25 217.75 164.45C217.95 164.95 218.65 164.75 218.5 164.3Z" fill="white"/>
<path d="M208.2 173.5C204.3 171.85 200.15 171.7 196.1 172.95C195.65 173.1 195.85 173.8 196.3 173.65C200.25 172.4 204.2 172.6 208 174.2C208.45 174.4 208.65 173.65 208.2 173.5Z" fill="white"/>
<path d="M345.55 381.45C343.5 386.35 343.5 390 343.2 399.4C342.85 411 341.85 422.55 341.75 434.1C341.65 443.85 341.5 458.6 341.1 477.8C357.1 478.7 374.8 478.9 394 477.95C412.3 477.05 429.2 475.2 444.45 472.9C437.25 448.55 432.5 430.8 429.1 417.05C427.3 409.7 424.65 398.7 417.35 385.85C413.35 378.8 409.2 373.5 406.15 369.95C405.35 369.25 387.7 354.4 367.3 361.4C366.3 361.8 351.45 367.2 345.55 381.45Z" fill="#EC615B"/>
<path d="M375 410.6C378.35 416.55 381.7 422.5 385 428.45C385.45 429.3 386.75 428.55 386.3 427.7C382.95 421.75 379.6 415.8 376.3 409.85C375.85 409 374.55 409.75 375 410.6Z" fill="#C64F4F"/>
<path d="M374.6 410.3C382.3 419.9 386.75 430.85 389.15 442.85C391.4 454.2 392.85 465.7 393.7 477.25C393.75 478.2 395.25 478.2 395.2 477.25C394.3 465.4 392.8 453.55 390.5 441.9C388.1 429.85 383.4 418.85 375.7 409.25C375.1 408.45 374 409.55 374.6 410.3Z" fill="#C64F4F"/>
<path opacity="0.19" d="M386.65 360.25C388.4 363.75 390.9 368.9 393.7 375.1C401.85 393.2 410.3 412.3 414.8 435.8C416.65 445.3 418.4 459.05 417.65 476.2C421.85 476 426.3 475.65 430.95 475.15C435.6 474.65 440.05 474.05 444.25 473.35C442.95 468.95 440.85 461.95 438.5 453.3C431.95 429.1 431.05 421.55 425.45 405.6C421.3 393.75 417.45 385.7 411.9 378C406.9 371.05 402.2 366.7 396.25 363.65C392.55 361.75 389.1 360.8 386.65 360.25Z" fill="#3F3F3F"/>
<path opacity="0.11" d="M374.7 410.85C376.65 418.15 378.35 426.85 379.15 436.65C380.55 453.6 378.75 468.05 376.55 478.85C382.3 478.5 388 478.15 393.75 477.8C393.15 466.45 391.85 456.9 390.6 449.65C387.45 431.2 384.15 424.35 381.5 419.95C379 415.9 376.5 412.85 374.7 410.85Z" fill="#3F3F3F"/>
<path d="M310.65 296.25C309 297.35 308 299.45 306.05 303.6C304.45 307 303.7 309.65 302.5 313.6C299.2 324.8 299.55 322.9 298.4 327.15C296.9 332.8 294.2 342.7 292.7 355.75C291.25 368.4 291.55 378.15 291.6 380.5C292.15 395.35 294.75 406.4 296.5 413.5C299.6 426.25 303.75 436.85 312 458C313.8 462.55 315.3 466.3 316.35 468.9C315.6 469 314.4 469.15 312.95 469.35C305.4 470.25 304.35 470.05 301.3 470.7C297.4 471.55 293.9 472.4 292.55 475.35C291.95 476.7 291.7 478.6 292.45 479.25C293.4 480.05 295.25 478.25 298.45 477.2C301.15 476.35 303.55 476.4 305.2 476.65C303.9 479.2 303.15 481.5 302.7 483.15C301.6 486.95 300.75 490.05 302.15 492.25C302.85 493.35 304.2 494.35 305.3 494.05C305.9 493.9 306.45 493.35 307.95 489.4C309.4 485.45 309.5 484.2 310.7 482.65C311.75 481.35 312.95 480.65 313.75 480.25C313.35 481.5 312.9 483.35 312.7 485.6C312.6 486.95 312.45 488.2 312.7 489.8C312.9 491.25 313.35 494.35 315.65 496.05C316.05 496.35 317.7 497.6 318.7 496.95C319.55 496.45 319.3 495.05 319.65 490.55C319.95 486.75 320.25 485.7 320.5 485.1C321.15 483.35 322.15 482.1 322.9 481.35C322.65 484.95 322.7 487.95 322.8 490.15C323 493.7 323.35 495.3 324.5 496.3C325.15 496.85 326.25 497.4 327.15 497C328.05 496.6 328.35 495.35 328.6 493.8C329.7 487.95 329.05 486.25 330.3 483.3C330.8 482.15 331.35 480.75 332.7 479.75C335.55 477.65 339.6 478.9 340.15 479.05C342.55 479.8 343.45 481.1 344.65 480.55C345.65 480.1 346.2 478.65 346.25 477.45C346.3 474.5 343.05 472.25 340.25 470.4C338.85 469.45 336.75 468.2 333.95 467.2C331.5 462.35 328.4 455.3 325.85 446.35C324.15 440.35 323.35 435.75 322.6 431.4C319.95 416.15 320.9 410.3 317.95 395.15C317.25 391.5 316.55 388.6 316.15 386.95C316.35 384.45 316.7 380.55 317.2 375.8C318.85 360.3 319.95 350.6 323.3 339.2C325.95 330.25 328.65 322.9 328.65 322.9C332.05 313.75 333.15 312.5 332.75 309.55C331.35 300.25 316.8 292.15 310.65 296.25Z" fill="white"/>
<path d="M306.8 301C297.9 321.55 292.3 343.5 291.1 365.9C289.85 388.75 293.8 411.1 301.2 432.7C305.4 445.05 310.5 457.05 315.7 469.05C316.1 469.95 317.35 469.15 317 468.3C308 447.5 299.2 426.4 295 404.1C290.85 382.1 291.7 359.35 296.5 337.5C299.2 325.25 303.1 313.3 308.1 301.8C308.45 300.9 307.2 300.1 306.8 301Z" fill="#161616"/>
<path d="M325.45 329.55C319.15 348.6 315.85 368.55 315.5 388.6C315.5 389.55 317 389.55 317 388.6C317.35 368.65 320.65 348.9 326.9 329.95C327.2 329.05 325.75 328.65 325.45 329.55Z" fill="#161616"/>
<path d="M310.25 379.5C314.7 385.7 316.5 393.1 317.55 400.5C318.65 408.05 319.15 415.7 320.25 423.25C322.45 438.6 326.05 453.9 333.3 467.65C333.75 468.5 335.05 467.75 334.6 466.9C327.05 452.6 323.5 436.65 321.4 420.75C319.55 406.8 320.1 390.65 311.55 378.75C311 378 309.7 378.75 310.25 379.5Z" fill="#161616"/>
<path d="M315.5 468.35C310.85 468.6 306.2 469.05 301.65 469.9C298.4 470.55 294.95 471.6 292.7 474.2C291.4 475.75 289.75 479.45 292.6 480.5C293.85 480.95 294.95 480.1 296 479.5C298.6 478 301.3 476.45 304.4 477.3C305.35 477.55 305.75 476.1 304.8 475.85C302.25 475.15 299.95 475.75 297.65 476.9C296.95 477.25 296.3 477.6 295.65 478C295.25 478.2 294.9 478.45 294.5 478.7C294.05 477.9 293.55 477.1 293.1 476.3C293.2 475.05 295.7 473.6 296.6 473.1C299.05 471.8 301.9 471.35 304.6 470.95C308.25 470.4 311.9 470.05 315.55 469.85C316.5 469.8 316.5 468.3 315.5 468.35Z" fill="#161616"/>
<path d="M311.4 472.8C307.45 473.45 304.2 476.15 302.7 479.8C301.1 483.6 299.75 489.25 301.6 493.15C303 496.1 306.45 497.15 307.75 493.55C308.55 491.3 308.4 488.85 309.2 486.6C310.2 483.8 311.9 481.4 314.4 479.75C315.2 479.2 314.45 477.9 313.65 478.45C311.3 480 309.55 482.1 308.4 484.65C307.8 485.95 307.35 487.3 307.05 488.7C306.8 489.85 306.65 495.65 303.9 493.95C302.35 493 302.2 489.95 302.25 488.4C302.35 486.1 302.95 483.45 303.7 481.25C304.95 477.55 307.9 474.9 311.75 474.25C312.75 474.1 312.35 472.65 311.4 472.8Z" fill="#161616"/>
<path d="M316.1 476.5C313 478.5 311.9 482.85 311.6 486.35C311.3 490.1 312.35 494.15 315.15 496.8C316.8 498.35 319.35 499.15 319.8 496.25C320.55 491.4 318.6 484.55 323.9 481.65C324.75 481.2 324 479.9 323.15 480.35C321.25 481.4 320.05 483.1 319.3 485.15C318.25 488.15 318.85 491.2 318.4 494.3C318.2 495.7 317.8 497.2 316.25 495.75C315.7 495.25 315.2 494.6 314.8 493.95C313.85 492.45 313.3 490.75 313.15 489C312.8 485.5 313.7 479.9 316.9 477.8C317.65 477.25 316.9 475.95 316.1 476.5Z" fill="#161616"/>
<path d="M323.2 480.5C322.25 484.1 321.35 487.85 321.95 491.6C322.2 493.4 323.25 497.8 325.55 498.25C328.15 498.75 329.2 494.15 329.45 492.45C330 488.75 329.3 484.3 332.2 481.45C332.9 480.75 331.85 479.7 331.15 480.4C327.65 483.85 328.85 488.85 327.8 493.25C327.45 494.85 326.45 497.25 324.8 495.4C323.9 494.45 323.65 492.6 323.45 491.35C322.95 487.85 323.8 484.35 324.7 480.95C324.9 480 323.45 479.6 323.2 480.5Z" fill="#161616"/>
<path d="M334 468.5C336.95 469.7 340 471 342.3 473.3C343.35 474.35 344.65 475.95 344.95 477.45C345.7 481.6 342.6 478.95 341.45 478.45C338.3 477.05 332.05 478.05 330.25 481.25C329.8 482.1 331.1 482.85 331.55 482C332.5 480.25 335.1 479.8 336.9 479.55C338 479.4 339.25 479.3 340.3 479.6C341.5 479.95 342.25 481 343.4 481.35C345.05 481.85 346.3 480.7 346.55 479.1C347 476.5 344.75 473.6 343 471.9C340.55 469.55 337.4 468.25 334.3 467C333.5 466.7 333.15 468.15 334 468.5Z" fill="#161616"/>
<path opacity="0.13" d="M323.9 313.4C318.15 313.75 314.7 328.45 312.8 336.6C310.65 345.75 308.7 358.35 309.1 376.7C309.45 393.1 311.55 405.6 312.25 409.95C315.4 428.65 320.35 444.35 325.2 456.65C326.8 461.15 328.35 465.65 329.95 470.1C329.05 473.8 328.15 477.6 327.3 481.55C326.2 486.75 325.2 491.85 324.4 496.75C325.35 496.85 326.65 496.8 327.55 495.9C328.7 494.75 328.55 492.9 328.6 491.3C328.65 489.8 328.8 482.55 332.05 479.85C334.05 478.2 337.25 478.2 339.45 479C341.7 479.85 342.7 481.5 344.2 481C345.35 480.65 346.15 479.25 346.3 478.15C346.8 474.5 339.8 470.75 338.65 470.15C336.4 468.95 335.35 468.8 333.9 467.3C332.1 465.4 331.5 463.15 331.25 462.15C327.1 446.35 325.05 447.35 322.25 429.2C320.15 415.5 321.5 416.3 319.35 405.4C317.85 397.7 316.6 394.55 316.2 387.9C315.75 380.6 316.6 374.9 317.5 369.85C321.25 349.2 328.45 324.2 330.2 318.25C328.6 315.75 326.4 313.25 323.9 313.4Z" fill="#3F3F3F"/>
<path d="M425.95 107.85C424.4 107.8 423.2 110.6 422.9 111.35C422.45 112.45 421.75 114.6 422.25 117.65C422.25 117.65 422.55 119.75 423.55 132.45C423.8 135.3 423.85 139.45 423.1 144.65C421.1 150.15 419.2 154.45 417.9 157.25C413.5 166.65 410.55 170.4 404.4 182.3C402.1 186.75 401.9 187.45 399.2 192.95C392.45 206.6 387.5 215.15 382.45 224.3C378 232.3 371.75 244.05 364.4 259.15C364.05 260.45 362.3 267.4 366.35 273.5C370.65 279.95 379.65 282.85 388.35 280.05C389.7 278.15 391.6 275.2 393.35 271.35C395.05 267.6 395.85 264.7 396.4 262.85C396.95 261 399.15 254.75 403.6 242.15C405 238.25 406.7 233.6 410.15 224.5C415.4 210.55 418 203.6 419.75 199.25C423.7 189.35 426.7 182.5 432.6 169.2C435.7 162.2 439.5 153.75 443.9 144.15C446.45 142.7 449.95 140.45 453.7 137.2C459.1 132.55 461.8 128.6 467 121.1C470.35 116.2 472.9 111.9 472.2 107.6C472.1 107 471.85 105.25 470.9 105C469.7 104.65 468.2 107.05 466.55 109.15C464.85 111.3 462.3 114.1 458.5 117C459.8 113.4 461.1 110.6 462 108.75C464.05 104.55 465.75 101.85 466.8 97.2C467.95 92.25 466.9 91.35 466.6 91.1C465.25 90.1 462.95 92 461.6 90.9C460.4 89.85 461.45 87.55 460.5 87C459.55 86.45 457.45 88.1 455.95 89.85C453.35 92.85 452.75 95.75 451.8 98.55C450.9 101.3 449.25 105.05 446.15 109.2C445.4 109.3 444.4 109.35 443.95 108.75C443.45 108.05 444.15 106.9 444.8 105.05C444.95 104.6 444.85 104.85 445.9 100.25C446.3 98.5 447.05 95.25 447.65 92.65C448.5 88.9 448.9 87.35 448.1 85.7C447.95 85.35 447.3 84 446.35 83.95C445.25 83.9 444.4 85.65 443.75 87C441.1 92.45 439.75 95.2 439.4 96.15C437.65 100.9 435.3 108.15 434.95 110.65C434.9 110.95 434.8 112 434.3 113.35C434.05 114 433.9 114.25 433.75 114.65C432.5 117.45 433.55 119.3 432.25 120.3C432.1 120.4 431.35 120.95 430.75 120.75C430.1 120.55 429.8 119.7 429.45 116.85C428.95 112.95 429.25 111.8 428.35 110.1C427.75 109.35 427 107.9 425.95 107.85Z" fill="white"/>
<path d="M423.55 131C423.9 127.35 423.35 123.8 423.15 120.15C423.05 118.4 423.05 116.6 423.3 114.85C423.45 113.85 423.65 112.85 423.95 111.9C424.45 110.45 424.5 109.25 426.1 109.2C427.6 109.15 427.5 110.05 427.75 111.3C428 112.4 428.05 113.55 428.1 114.65C428.2 116.2 428.25 117.8 428.6 119.3C428.95 120.85 429.9 122.15 431.65 121.6C432.55 121.3 432.2 119.85 431.25 120.15C429.5 120.65 429.65 114.75 429.55 113.75C429.4 112.15 429.25 110.5 428.65 109C427.8 106.9 425.85 105.85 424.2 107.8C422.05 110.3 421.6 114.8 421.6 117.9C421.6 122.3 422.45 126.6 422.05 131C422 131.95 423.5 131.95 423.55 131Z" fill="#161616"/>
<path d="M432.25 121C434.75 116.15 435.5 110.65 436.95 105.45C438.5 99.85 440.45 94.35 443.35 89.35C444 88.25 444.65 86.7 445.6 85.85C447.45 84.15 447.45 87.4 447.3 88.8C447 91.9 446.2 95.05 445.5 98.1C444.85 100.9 443.95 103.6 443.3 106.4C442.95 107.95 442.95 109.3 444.05 110.5C444.7 111.2 445.75 110.15 445.1 109.45C443.85 108.1 445.15 105.4 445.55 103.95C446 102.3 446.45 100.65 446.8 99C447.5 95.95 448.2 92.85 448.65 89.7C448.9 88.05 449.25 85.15 447.8 83.9C446.55 82.85 445.3 83.85 444.45 84.85C440.8 89.4 438.55 95.4 436.75 100.9C434.7 107.25 434.05 114.35 430.95 120.3C430.5 121.1 431.8 121.85 432.25 121Z" fill="#161616"/>
<path d="M444.4 110.65C445.9 110.8 446.45 109.7 447.15 108.5C448.25 106.6 449.25 104.6 450.2 102.65C452.05 98.8499 453.35 94.6999 455.6 91.1499C456.1 90.3499 456.7 89.3499 457.5 88.7499C458.15 87.9999 459 87.7499 460.1 88.0999C460.25 88.7999 460.35 89.4999 460.35 90.1999C460.4 92.6499 459.6 95.0999 458.75 97.3999C457.05 101.95 455.15 106.45 453.3 111C452.95 111.9 454.4 112.3 454.75 111.4C455.8 108.8 466.6 85.9999 459.55 85.8499C458.15 85.7999 456.55 87.5499 455.75 88.4999C454.35 90.1499 453.35 92.0499 452.45 93.9999C451.4 96.3499 450.45 98.6999 449.35 101C448.7 102.4 447.95 103.85 447.25 105.2C446.8 106.1 445.7 109.2 444.45 109.1C443.45 109.05 443.45 110.55 444.4 110.65Z" fill="#161616"/>
<path d="M462.1 92.25C462.65 89.35 465.8 91.35 466.2 93.2C466.55 94.75 465.95 96.3 465.45 97.75C464.7 99.95 463.85 102.1 462.95 104.2C461.2 108.3 459.15 112.2 456.85 116.05C456.35 116.9 457.65 117.65 458.15 116.8C460.3 113.25 462.2 109.55 463.9 105.8C465.35 102.55 467.1 98.95 467.65 95.4C468 93.15 467.35 90.25 464.85 89.45C463 88.85 461 90 460.65 91.9C460.5 92.8 461.95 93.2 462.1 92.25Z" fill="#161616"/>
<path d="M459.2 117.4C461.1 115.25 462.95 113.1 464.85 110.95C465.85 109.8 466.75 108.55 467.85 107.55C468.2 107.25 468.55 107 468.85 106.7C469.7 107 470.55 107.3 471.45 107.6C471.7 108.05 471.1 109.35 470.95 109.75C469.4 114.5 467.15 119 464.5 123.2C459.15 131.65 451.8 138.75 443.2 143.9C442.35 144.4 443.15 145.7 443.95 145.2C454.65 138.8 463.45 129.4 469 118.25C470.35 115.55 471.65 112.7 472.5 109.8C473 108.1 473.3 105.8 471.35 104.9C469.45 104 467.45 105.75 466.25 107C463.4 109.95 460.8 113.25 458.1 116.35C457.5 117.05 458.55 118.1 459.2 117.4Z" fill="#161616"/>
<path d="M422.25 129.45C422.6 134.05 422.95 138.75 422.2 143.35C421.45 147.9 419.55 152.1 417.45 156.2C413.2 164.5 408.75 172.7 404.4 180.95C395.7 197.45 387 213.9 378.3 230.4C373.3 239.85 368.3 249.35 363.3 258.8C362.85 259.65 364.15 260.4 364.6 259.55C382.55 225.5 400.85 191.6 418.5 157.35C420.6 153.3 422.55 149.15 423.4 144.7C424.4 139.65 424.05 134.55 423.65 129.45C423.7 128.5 422.2 128.5 422.25 129.45Z" fill="#161616"/>
<path d="M443.1 143.55C427.1 177.35 413.15 211.95 400.85 247.25C397.25 257.5 393.65 267.75 389.3 277.7C388.9 278.6 390.2 279.35 390.6 278.45C398.05 261.5 403.5 243.75 409.9 226.45C416.45 208.65 423.55 191 431.1 173.6C435.4 163.75 439.8 154 444.4 144.3C444.8 143.45 443.5 142.7 443.1 143.55Z" fill="#161616"/>
<path opacity="0.1" d="M465.7 91.65C463.65 91.35 460.9 99.75 459.3 103.95C454.45 116.85 450.35 118.35 439.95 135.85C436.1 142.3 430.8 152 425.45 164.65C409.45 198.35 393.5 232.1 377.5 265.8C381.4 270.55 385.25 275.35 389.15 280.1C391.1 274.55 393.95 266.4 397.5 256.55C403.95 238.8 412.3 215.95 424.1 188.15C428.8 177.15 435.3 162.3 443.65 144.85C445.95 143.4 449.15 141.15 452.65 138.05C457.35 133.95 463.55 128.4 467.8 119.35C469.15 116.55 470.85 112.25 471.75 106.6C471.1 106.3 470.15 105.95 469.1 106.15C467.3 106.5 466.35 108.25 465.6 109.45C462.7 113.9 458.45 116.85 457.9 116.5C457.6 116.25 458.45 114.8 460.75 110.1C465.45 100.45 463.5 103 465.35 99.75C466.4 97.9 467.45 96.3 467.1 94.25C467.1 93.35 466.55 91.8 465.7 91.65Z" fill="#3F3F3F"/>
<path opacity="0.13" d="M462.65 125.75C460.15 127.35 456.6 129.7 452.55 132.8C447.9 136.3 442.9 140.1 438.7 144.9C433 151.4 430.5 157.85 429 161.6C415.25 196.7 398.9 234.8 394.25 245.4C391.7 251.2 387.7 259.95 382.4 270.45C384.8 273.6 387.25 276.75 389.65 279.9C396.55 258.85 404.5 236.8 413.6 213.95C423.4 189.4 433.55 166.45 443.75 145.1C446.5 143.25 449.6 140.9 452.75 137.85C457.2 133.6 460.4 129.3 462.65 125.75Z" fill="#3F3F3F"/>
<path d="M329.7 270.5C327.85 271.75 323.7 274.65 319.45 279.35C315.05 284.2 312.5 288.75 310.4 292.6C308.75 295.55 307.55 298.15 306.7 300.05C308 302.55 310.1 306.4 313 311C318.15 319.15 322.15 323.55 329.05 332.4C331.95 336.1 336.15 341.65 341.15 348.65C341.95 352.4 342.65 356.35 343.25 360.5C344.45 369 344.9 376.9 344.9 384C346.75 386 349.95 388.9 354.65 390.95C362.45 394.4 369.55 393.4 373.25 392.8C381.45 391.55 387.05 387.9 390.9 385.35C397.9 380.75 402.65 375.25 405.8 370.7C405.15 362.9 404.3 354.85 403.25 346.5C402.35 339.4 401.35 332.5 400.25 325.8C400.15 320.55 399.65 313.4 397.95 305.1C396.55 298.15 394.85 290.05 389.8 280.45C383.5 268.5 375.65 261.25 372.6 258.6C369.9 256.25 367.45 254.5 365.65 253.25C358.35 257.9 352.05 260.8 347.75 262.55C339.75 265.85 336 266.35 329.7 270.5Z" fill="white"/>
<path d="M307.5 300.25C309.05 294.35 313.35 288.85 317.05 284.05C320.95 279.05 325.35 274.5 330.6 270.85C331.4 270.3 330.65 269 329.85 269.55C324.45 273.3 319.9 277.95 315.9 283.1C312.05 288.05 307.7 293.65 306.1 299.8C305.85 300.8 307.3 301.15 307.5 300.25Z" fill="#161616"/>
<path d="M306.4 300.75C316.7 318.75 328.9 335.65 342.75 351.1C343.4 351.8 344.45 350.75 343.8 350.05C330.05 334.7 317.95 317.9 307.7 300C307.2 299.15 305.9 299.9 306.4 300.75Z" fill="#161616"/>
<path d="M348.7 263.25C354.3 259.3 360.45 256.35 367 254.45C367.95 254.2 367.55 252.75 366.6 253C359.9 254.95 353.65 257.95 347.95 261.95C347.15 262.5 347.9 263.8 348.7 263.25Z" fill="#161616"/>
<path d="M365.75 254.85C389.65 271.5 399.9 300.7 398.75 328.95C398.7 329.9 400.2 329.9 400.25 328.95C401.45 300.1 390.85 270.5 366.5 253.55C365.75 253 365 254.3 365.75 254.85Z" fill="#161616"/>
<path d="M339.5 348.15C342.1 353.5 342.4 360.15 342.95 365.95C343.55 371.85 343.75 377.8 343.75 383.75C343.75 384.7 345.25 384.7 345.25 383.75C345.3 377.15 345 370.55 344.25 364C343.65 358.45 343.25 352.45 340.8 347.35C340.35 346.5 339.1 347.25 339.5 348.15Z" fill="#161616"/>
<path d="M344.7 384.05C352.2 393.25 365 395.85 376.15 393C382.35 391.4 388.1 388.35 393.25 384.55C398.4 380.75 403.3 376.35 406.2 370.55C406.65 369.7 405.35 368.95 404.9 369.8C402.1 375.35 397.4 379.6 392.45 383.25C387.65 386.8 382.3 389.7 376.5 391.35C365.6 394.4 353.05 392.05 345.7 383C345.15 382.25 344.1 383.3 344.7 384.05Z" fill="#161616"/>
<path d="M399.3 326.7C401.75 341.35 404.15 356 405 370.8C405.05 371.75 406.55 371.75 406.5 370.8C405.6 355.85 403.2 341.05 400.75 326.3C400.6 325.35 399.15 325.75 399.3 326.7Z" fill="#161616"/>
<path opacity="0.13" d="M350.6 261.25C356.15 267.8 363.75 278 370.1 291.8C379.4 312 381.25 329.45 382.65 344.3C383.75 355.6 384.35 371.35 382.15 390.15C386.4 388.3 392.4 385.1 398.2 379.55C401.4 376.45 403.8 373.35 405.6 370.65C403.95 356.7 402.3 342.7 400.65 328.75C400.95 317.25 399.15 307.95 397.45 301.65C392.2 282.15 382.1 269.6 378.7 265.65C374.05 260.2 369.5 256.2 366.15 253.55C360.95 256.15 355.8 258.7 350.6 261.25Z" fill="#3F3F3F"/>
<path opacity="0.14" d="M387.85 278.75C386.95 279 389.05 287.15 391.05 299.2C391.05 299.2 394.1 317.5 394.75 335.2C395.2 346.9 394.6 364 389.35 385.25C391.75 384.05 394.7 382.3 397.75 379.85C401.45 376.85 404.1 373.7 405.9 371.2C405.25 351.05 403.55 340.6 401.95 334.7C401.65 333.55 400.85 330.85 400.2 327.05C399 319.95 399.6 316.9 398.95 311C398.45 306.3 397.5 303.2 395.75 297.45C393.1 288.8 388.85 278.45 387.85 278.75Z" fill="#3F3F3F"/>
<path d="M329 188.25C325.7 190.1 321.5 192.9 317.45 197.15C309.05 206.1 306.35 216.1 305.4 221.05C304.65 220.95 302.6 220.8 300.95 222.1C298.5 224 298.45 227.75 299.4 229.95C299.75 230.75 300.25 231.4 301.3 232.7C302.55 234.25 303.35 235.2 304.65 235.75C305.2 236 306.45 236.35 308.25 235.95C308.8 237.6 309.7 239.9 311.05 242.55C312.8 245.95 315.45 251 320.75 255.4C322.3 256.7 324.7 258.4 327.95 259.95C329.15 261.5 331.35 264.75 331.6 269.15C332.1 276.9 326.45 283.35 321.1 286.2C311.8 291.15 301.7 286.2 298 284.35C296 283.35 285.95 278.15 281.75 266.75C276.65 253 283.3 239.25 287.25 231.05C291.25 222.8 293.1 223.35 296.15 215.3C300.2 204.65 298.05 200.9 302.7 192.75C304.5 189.55 308.15 183.15 315.8 180.15C322.35 177.6 328.4 178.9 331 179.65C333.15 178.35 336.95 176.5 341.75 176.5C353.15 176.5 360.45 187.3 362.2 189.9C367.4 197.55 364.65 199.9 369.3 210.65C375.15 224.2 380.85 223.4 386.1 236.1C388.65 242.3 392.9 252.55 388.2 262.35C383.35 272.45 372.3 275.4 370.9 275.75C368.35 276.4 361.5 278.1 354.65 274.45C354 274.1 345.4 269.4 344.7 261.35C344.45 258.4 345.3 255.65 345.5 255.05C346.55 251.8 348.35 249.7 348.9 249C351.05 246.35 353.65 241.45 355.45 231.7C356.3 231.65 357.7 231.45 359.1 230.65C362.05 228.95 363.45 225.5 363.3 222.5C363.25 221.8 363.05 217.8 360.15 216.45C358.95 215.9 357.7 216.05 357 216.2C347.7 206.8 338.35 197.55 329 188.25Z" fill="#5222D0"/>
<path d="M329 188.2C323.45 191.45 319.6 195.05 317.15 197.7C309 206.55 306.4 215.8 305.85 217.95C305.5 219.3 305.25 220.4 305.15 221.2C304.6 221 303.35 220.65 302.1 221.2C300.2 222.05 299.8 224.35 299.6 225.5C299.1 228.15 300.1 230.25 300.5 231.05C301.05 232.2 301.95 234.05 304.1 235C305.85 235.8 307.5 235.5 308.2 235.35C308.9 237.15 309.9 239.65 311.45 242.5C313.8 247 316 251.15 320.25 254.85C321.9 256.3 324.6 258.3 328.5 259.85C329.3 261.1 330.4 263.05 331 265.6C331.5 267.6 331.6 269.3 331.55 270.6C332.85 271.25 335.3 272.25 338.35 272.2C344.2 272.1 348.05 268.45 348.95 267.55C348 264.7 347.15 261.2 346.8 257.15C346.65 255.3 346.6 253.55 346.6 251.95C348.15 250.3 350.05 247.95 351.6 244.8C354.35 239.35 354.8 234.3 354.85 231.35C355.55 231.45 356.95 231.6 358.45 231C360.55 230.15 361.5 228.3 362.05 227.25C362.2 227 364.3 222.7 362.4 218.45C361.95 217.5 361.2 215.75 359.7 215.6C358.6 215.5 357.7 216.35 357.35 216.7C355.3 214.25 351.45 209.7 346.05 203.45C341.4 198 338.45 194.6 333.5 191.1C331.7 189.8 330.1 188.85 329 188.2Z" fill="white"/>
<path d="M322.1 241.25C321.6 242.4 323.95 244.45 325.05 245.3C327.35 247 329.8 247.25 330.7 247.3C331.75 247.4 335.2 247.65 338.35 245.4C339.1 244.85 341.2 243.4 342 240.7C342.55 238.75 342.4 236.05 341.35 235.6C340.55 235.3 339.8 236.3 338.1 237.5C335.1 239.55 332 240.05 329.35 240.45C324.85 241.15 322.6 240.25 322.1 241.25Z" fill="black"/>
<path d="M306.25 229.7C308.05 237.2 310.95 244.55 315.75 250.65C320 256.1 326.3 261.35 333.65 260.65C340.45 260 346 254.7 349.6 249.3C353.85 243 355.9 235.45 355.7 227.85C355.65 226.9 354.15 226.9 354.2 227.85C354.4 234.8 352.6 241.6 348.95 247.5C345.5 253.05 339.8 258.9 332.85 259.2C325.5 259.5 319.45 253.5 315.55 247.9C311.65 242.3 309.25 235.85 307.65 229.25C307.45 228.35 306 228.75 306.25 229.7Z" fill="#161616"/>
<path d="M327.5 259.95C329.6 263.15 330.65 266.65 330.65 270.5C330.65 271.45 332.15 271.45 332.15 270.5C332.15 266.45 331 262.6 328.8 259.2C328.3 258.35 327 259.1 327.5 259.95Z" fill="#161616"/>
<path d="M331.35 271.1C337.45 274.6 345.35 272.9 349.5 267.3C350.1 266.55 348.8 265.8 348.2 266.55C344.5 271.5 337.4 272.9 332.1 269.8C331.25 269.35 330.5 270.65 331.35 271.1Z" fill="#161616"/>
<path d="M345.75 253.25C345.8 257.8 346.5 262.3 347.95 266.65C348.25 267.55 349.7 267.15 349.4 266.25C348.05 262 347.3 257.7 347.25 253.25C347.25 252.25 345.75 252.25 345.75 253.25Z" fill="#161616"/>
<path d="M307.75 234.45C307.1 235.15 305.5 234.9 304.75 234.5C304.15 234.2 303.6 233.75 303.15 233.3C302.15 232.35 301.35 231.2 300.85 229.95C299.85 227.6 299.4 220.85 303.85 222.05C304.8 222.3 305.2 220.85 304.25 220.6C298.75 219.15 297.9 226.45 299.3 230.1C300.4 233.05 305.45 239.15 308.85 235.5C309.45 234.8 308.4 233.75 307.75 234.45Z" fill="#161616"/>
<path d="M358 216.95C358.6 214.95 361.2 218.8 361.5 219.5C362.1 221.1 362.3 222.85 362.05 224.55C361.65 227.95 358.95 231.2 355.2 230.25C354.25 230 353.85 231.45 354.8 231.7C360.85 233.25 364.1 226.95 363.55 221.8C363.3 219.55 362.4 216.65 360.25 215.45C358.85 214.7 357.05 214.9 356.55 216.5C356.25 217.5 357.7 217.85 358 216.95Z" fill="#161616"/>
<path d="M313.1 206.35C314.75 203.2 317.65 201.15 321.15 200.65C322.1 200.5 321.7 199.05 320.75 199.2C316.9 199.75 313.6 202.15 311.8 205.6C311.35 206.45 312.65 207.2 313.1 206.35Z" fill="#161616"/>
<path d="M336.2 198.65C340.4 197.65 344.6 199.75 346.5 203.55C346.95 204.4 348.2 203.65 347.8 202.8C345.6 198.35 340.6 196.05 335.8 197.2C334.85 197.45 335.25 198.9 336.2 198.65Z" fill="#161616"/>
<path d="M325.3 204.8C326.25 210.1 326.5 215.55 325.95 220.95C325.75 222.6 324.95 224.95 325.7 226.6C326.5 228.4 328.65 229.95 330 231.35C330.65 232.05 331.75 231 331.05 230.3C330.15 229.35 329.25 228.45 328.35 227.5C326.95 226.05 326.8 225.6 327.1 223.5C327.35 221.6 327.6 219.65 327.7 217.7C327.9 213.25 327.55 208.8 326.75 204.45C326.6 203.45 325.15 203.85 325.3 204.8Z" fill="#161616"/>
<path d="M319 217.65C318.25 216.45 317.9 215.15 318 213.75C318 213.45 318.2 212.15 318.45 212.1C318.6 212.1 318.85 213.85 318.9 214.05C319 214.7 319.05 215.4 319.05 216.05C319.05 216.25 319 217.9 319 216.9C318.95 215.45 319.05 214 319.1 212.55C318.6 212.6 318.1 212.7 317.65 212.75C317.9 214.3 318.05 215.85 318.05 217.45C318.55 217.45 319.05 217.45 319.55 217.45C319.55 217.25 319.55 217.05 319.55 216.85C319.55 215.9 318.05 215.9 318.05 216.85C318.05 217.05 318.05 217.25 318.05 217.45C318.05 218.4 319.55 218.4 319.55 217.45C319.55 215.75 319.4 214.05 319.1 212.35C318.95 211.5 317.65 211.75 317.65 212.55C317.6 214.15 317.4 215.9 317.6 217.5C317.7 218.25 318.05 218.95 318.9 219.1C321.4 219.6 320.65 214.7 320.45 213.5C320.3 212.55 320.15 211.1 319.25 210.55C318.5 210.1 317.7 210.55 317.25 211.25C316 213.35 316.7 216.45 317.85 218.35C318.2 219.2 319.5 218.45 319 217.65Z" fill="#161616"/>
<path d="M342.1 215C341.35 213.8 341 212.5 341.1 211.1C341.1 210.8 341.3 209.5 341.55 209.45C341.7 209.45 341.95 211.2 342 211.4C342.1 212.05 342.15 212.75 342.15 213.4C342.15 213.6 342.1 215.25 342.1 214.25C342.05 212.8 342.15 211.35 342.2 209.9C341.7 209.95 341.2 210.05 340.75 210.1C341 211.65 341.15 213.2 341.15 214.8C341.65 214.8 342.15 214.8 342.65 214.8C342.65 214.6 342.65 214.4 342.65 214.2C342.65 213.25 341.15 213.25 341.15 214.2C341.15 214.4 341.15 214.6 341.15 214.8C341.15 215.75 342.65 215.75 342.65 214.8C342.65 213.1 342.5 211.4 342.2 209.7C342.05 208.85 340.75 209.1 340.75 209.9C340.7 211.5 340.5 213.25 340.7 214.85C340.8 215.6 341.15 216.3 342 216.45C344.5 216.95 343.75 212.05 343.55 210.85C343.4 209.9 343.25 208.45 342.35 207.9C341.6 207.45 340.8 207.9 340.35 208.6C339.1 210.7 339.8 213.8 340.95 215.7C341.3 216.6 342.6 215.85 342.1 215Z" fill="#161616"/>
<path d="M311.6 222.25C312.55 222.25 312.55 220.75 311.6 220.75C310.65 220.75 310.65 222.25 311.6 222.25Z" fill="#161616"/>
<path d="M317.5 223.35C317.55 223.35 317.6 223.35 317.7 223.35C318.1 223.35 318.45 223 318.45 222.6C318.45 222.2 318.1 221.85 317.7 221.85C317.65 221.85 317.6 221.85 317.5 221.85C317.1 221.85 316.75 222.2 316.75 222.6C316.75 223 317.05 223.35 317.5 223.35Z" fill="#161616"/>
<path d="M314 227.95C314.95 227.95 314.95 226.45 314 226.45C313.05 226.45 313 227.95 314 227.95Z" fill="#161616"/>
<path d="M342.4 221.5C342.45 221.5 342.5 221.5 342.6 221.5C343 221.5 343.35 221.15 343.35 220.75C343.35 220.35 343 220 342.6 220C342.55 220 342.5 220 342.4 220C342 220 341.65 220.35 341.65 220.75C341.65 221.15 341.95 221.5 342.4 221.5Z" fill="#161616"/>
<path d="M347.9 217.8C348.85 217.8 348.85 216.3 347.9 216.3C346.95 216.3 346.95 217.8 347.9 217.8Z" fill="#161616"/>
<path d="M347.15 221.85C347.2 221.85 347.25 221.85 347.35 221.85C347.75 221.85 348.1 221.5 348.1 221.1C348.1 220.7 347.75 220.35 347.35 220.35C347.3 220.35 347.25 220.35 347.15 220.35C346.75 220.35 346.4 220.7 346.4 221.1C346.45 221.5 346.75 221.85 347.15 221.85Z" fill="#161616"/>
<path d="M323.35 242.4C322.55 241.25 321.25 239.6 321.8 238.1C322.45 236.4 324.5 236.65 325.85 236.85C327.5 237.1 328.85 237.4 330.45 236.9C331.75 236.5 332.9 235.65 334.1 235C336.95 233.4 340.3 233.25 341.2 237C343.75 247.25 325.65 250.15 322.85 241.15C322.55 240.25 321.1 240.6 321.4 241.55C324.85 252.6 346.25 248.5 342.5 236.25C341.85 234.2 340.3 232.45 338.1 232.2C334.5 231.85 332.15 235.45 328.7 235.7C326.15 235.9 323.05 233.95 321 236.35C319.15 238.5 320.65 241.25 322 243.15C322.6 243.95 323.9 243.2 323.35 242.4Z" fill="#161616"/>
<path d="M320.45 239.55C321.55 242.6 327.05 241.65 329.45 241.3C334.05 240.6 338.25 238.6 341.8 235.65C342.55 235.05 341.5 233.95 340.75 234.6C338.15 236.8 335.15 238.4 331.85 239.3C330.4 239.7 322.75 241.4 321.95 239.2C321.55 238.25 320.1 238.65 320.45 239.55Z" fill="#161616"/>
<path d="M329.35 261.5C335.2 263 343 259.3 346.3 254.45C346.85 253.65 345.55 252.9 345 253.7C342.1 257.95 334.85 261.35 329.75 260.05C328.8 259.8 328.4 261.25 329.35 261.5Z" fill="#161616"/>
<path d="M329.9 261.95C335.1 265.2 343.65 260.6 346.15 255.65C346.6 254.8 345.3 254.05 344.85 254.9C342.75 259.1 335.1 263.45 330.65 260.7C329.8 260.15 329.05 261.45 329.9 261.95Z" fill="#161616"/>
<path opacity="0.2" d="M350.65 208.95C351 210.75 351.45 213.6 351.75 217.05C352.45 226.25 353.65 241.65 344.35 251.9C342.35 254.1 338.1 258 330.25 260.2C332.75 260.1 335.8 259.8 339.1 258.95C340.75 258.55 342.25 258.05 343.6 257.5C343.8 261.95 343.95 266.4 344.15 270.85C345.85 269.75 347.5 268.7 349.2 267.6C346.9 262.5 346.9 258.55 347.2 256.05C347.65 252.55 348.95 249.7 350.25 246.85C351.4 244.35 352.6 242.35 353.55 240.95C353.65 242 353.9 243.1 354.6 244.15C357.65 248.7 367.2 249.15 373.2 245.25C378.75 241.65 381.45 234.35 380.05 226.85C381 227.65 382 228.6 382.95 229.75C383.7 230.65 385.65 233.25 388.35 242.4C389.2 245.25 389.6 246.7 389.85 248.15C390.15 250.15 390.7 253.95 389.65 258.25C387.85 265.65 382.5 269.9 380.9 271.1C379.75 271.95 376.25 274.5 371 275.7C368.5 276.25 361 278.05 353.95 273.95C351.3 272.4 349.85 271.25 349.05 269.85C348.2 268.3 348.1 266.85 348 265.75C347.55 258.9 347.35 255.45 347.8 253.1C349.15 246.3 352.2 245.6 353.9 237.85C354.5 235.05 354.65 232.7 354.7 231.2C355.35 231.3 356.35 231.4 357.55 231.1C360.05 230.45 361.3 228.4 361.75 227.65C363.55 224.8 364.35 219.7 361.55 217.35C361.15 217 359.75 215.95 357.05 216.15C355 213.75 352.85 211.35 350.65 208.95Z" fill="#3F3F3F"/>
<path opacity="0.13" d="M326.95 225.15C329.5 225.9 332.1 226.7 334.65 227.45C334 228.05 333.35 228.6 332.65 229.2C332 229.75 331.4 230.2 330.75 230.7C329.95 230.1 328.8 229.05 327.9 227.45C327.4 226.6 327.1 225.8 326.95 225.15Z" fill="#3F3F3F"/>
<path opacity="0.16" d="M286.85 231.4C281.4 250.65 285.45 266.2 293.6 269.6C300 272.25 311.55 268.5 313.7 261.95C314 261.1 314.3 259.6 313.15 255C312.15 250.95 310.1 244.85 305.5 237.9C304.7 237.4 303.65 236.6 302.65 235.4C300.9 233.25 300.4 230.95 300.25 229.85C301.7 231.35 303.8 233.25 305.15 232.65C306.45 232.05 307.25 230.25 306.8 228.45C307.25 230.75 307.95 233.9 309.25 237.55C310.95 242.4 312.65 247.1 316.6 251.55C318.4 253.6 321.95 256.95 327.95 259.35C328.95 260.6 330.8 263.3 331.4 267.25C331.5 267.85 331.85 270.6 330.95 274.05C330.75 274.85 329.55 279.2 325.6 282.95C321 287.35 315.5 288.15 313.7 288.4C300.15 290.2 289.65 278.35 287.8 276.3C285.95 274.2 282.9 270.7 281.15 265.3C278.35 256.7 280.5 248.95 282.05 243.3C283.5 238 285.45 234 286.85 231.4Z" fill="#3F3F3F"/>
</svg>
