<?xml version="1.0" standalone="no"?>
<!DOCTYPE svg PUBLIC "-//W3C//DTD SVG 20010904//EN"
 "http://www.w3.org/TR/2001/REC-SVG-20010904/DTD/svg10.dtd">
<svg version="1.0" xmlns="http://www.w3.org/2000/svg"
 width="1112.000000pt" height="1280.000000pt" viewBox="0 0 1112.000000 1280.000000"
 preserveAspectRatio="xMidYMid meet">
<metadata>
Created by potrace 1.15, written by Peter Selinger 2001-2017
</metadata>
<g transform="translate(0.000000,1280.000000) scale(0.100000,-0.100000)"
fill="#2196f3" stroke="none">
<path d="M5215 12689 c-527 -99 -582 -111 -601 -132 -40 -46 -1590 -2002
-1606 -2027 -15 -23 -12 -68 52 -670 107 -1002 155 -1445 225 -2110 36 -338
88 -824 115 -1080 27 -256 86 -807 130 -1225 44 -418 96 -904 115 -1079 19
-176 33 -321 32 -322 -2 -2 -30 21 -64 51 l-61 55 -67 -25 c-37 -14 -70 -24
-72 -21 -5 4 -47 314 -285 2086 l-103 765 -405 313 c-365 282 -434 330 -696
492 -161 99 -303 185 -318 191 -24 11 -33 7 -108 -43 -46 -30 -232 -152 -415
-272 -182 -120 -334 -223 -336 -230 -3 -6 -171 -268 -373 -581 -240 -372 -368
-579 -368 -595 0 -14 199 -518 443 -1120 443 -1095 683 -1690 1153 -2855 361
-895 358 -888 376 -907 9 -9 235 -154 501 -323 311 -196 492 -305 505 -303 14
2 72 76 186 240 91 130 168 234 171 230 3 -4 113 -248 244 -542 131 -294 243
-540 249 -546 15 -16 427 -108 436 -97 5 4 56 159 114 343 l105 335 -10 123
c-6 68 -9 130 -7 137 2 10 86 -20 298 -105 162 -66 304 -120 315 -120 12 0 26
5 32 11 17 17 288 148 291 140 1 -3 85 -145 186 -316 124 -209 190 -311 203
-313 15 -2 746 268 758 280 2 1 44 107 95 233 51 127 93 231 94 232 1 2 53
-52 116 -120 210 -226 271 -287 288 -287 10 0 271 201 582 448 l564 447 439
755 c241 415 878 1510 1414 2433 l975 1678 -60 292 c-34 161 -111 531 -172
822 -61 292 -129 618 -151 725 -23 107 -45 202 -50 212 -11 21 28 10 -449 118
-223 50 -441 100 -485 111 -44 10 -92 19 -106 19 -21 0 -241 -203 -1090 -1000
-585 -550 -1072 -1010 -1081 -1023 -12 -16 -69 -320 -198 -1052 -100 -566
-183 -1031 -185 -1033 -2 -2 -94 0 -204 4 -185 6 -201 8 -201 25 0 19 11 115
130 1099 124 1031 427 3465 580 4655 33 259 65 516 72 572 l11 101 -49 55
c-27 30 -398 438 -824 906 -564 620 -780 851 -795 850 -11 -1 -281 -50 -600
-110z"/>
</g>
</svg>
