<svg width="21" height="20" viewBox="0 0 21 20" fill="none" xmlns="http://www.w3.org/2000/svg">
<mask id="path-1-inside-1" fill="white">
<path fill-rule="evenodd" clip-rule="evenodd" d="M8.03044 1.89769C8.20195 0.805111 9.14332 0 10.2493 0C11.3552 0 12.2966 0.80511 12.4681 1.89769L12.5839 2.63542C13.0276 2.77512 13.4538 2.95357 13.8584 3.16675L14.4942 2.70714C15.3865 2.0621 16.6213 2.15623 17.403 2.92889C18.1847 3.70155 18.2799 4.9221 17.6273 5.8041L17.1261 6.48159C17.3191 6.86322 17.4806 7.26316 17.6071 7.67808L18.4894 7.8134C19.569 7.97899 20.3662 8.90775 20.3662 9.99999C20.3662 11.0922 19.569 12.021 18.4894 12.1866L17.5204 12.3352C17.3909 12.7088 17.2329 13.0692 17.0488 13.4139L17.6273 14.1958C18.2799 15.0778 18.1847 16.2984 17.403 17.071C16.6213 17.8437 15.3865 17.9378 14.4942 17.2928L13.6527 16.6845C13.3231 16.8458 12.9801 16.9843 12.6258 17.0981L12.4681 18.1023C12.2966 19.1949 11.3552 20 10.2493 20C9.14332 20 8.20196 19.1949 8.03044 18.1023L7.8728 17.0981C7.51848 16.9843 7.17545 16.8458 6.84581 16.6845L6.00437 17.2928C5.11206 17.9379 3.87725 17.8437 3.09555 17.0711C2.31386 16.2984 2.21863 15.0778 2.87121 14.1958L3.44976 13.4139C3.26566 13.0692 3.10761 12.7088 2.97819 12.3352L2.00918 12.1866C0.929557 12.021 0.132389 11.0922 0.132389 9.99999C0.132389 8.90775 0.929558 7.97899 2.00918 7.81339L2.89144 7.67807C3.01797 7.26317 3.17944 6.86324 3.37247 6.48162L2.87121 5.80414C2.21862 4.92214 2.31386 3.70159 3.09555 2.92893C3.87724 2.15627 5.11205 2.06213 6.00437 2.70718L6.64013 3.16677C7.04475 2.95358 7.47094 2.77512 7.91462 2.63542L8.03044 1.89769Z"/>
</mask>
<path d="M8.03044 1.89769L10.0062 2.20786V2.20786L8.03044 1.89769ZM12.4681 1.89769L10.4923 2.20786V2.20786L12.4681 1.89769ZM12.5839 2.63542L10.6081 2.94559L10.8004 4.17065L11.9833 4.54309L12.5839 2.63542ZM13.8584 3.16675L12.9261 4.93618L14.0242 5.51473L15.0301 4.78759L13.8584 3.16675ZM14.4942 2.70714L13.3225 1.0863V1.0863L14.4942 2.70714ZM17.403 2.92889L15.997 4.3513L15.997 4.3513L17.403 2.92889ZM17.6273 5.8041L19.2351 6.99367L17.6273 5.8041ZM17.1261 6.48159L15.5183 5.29202L14.7846 6.2836L15.3414 7.3843L17.1261 6.48159ZM17.6071 7.67808L15.6941 8.26149L16.0609 9.46431L17.3039 9.65496L17.6071 7.67808ZM18.4894 7.8134L18.7926 5.83652V5.83652L18.4894 7.8134ZM18.4894 12.1866L18.1862 10.2097L18.4894 12.1866ZM17.5204 12.3352L17.2171 10.3583L16.0253 10.5411L15.6306 11.6805L17.5204 12.3352ZM17.0488 13.4139L15.2846 12.4718L14.689 13.5871L15.441 14.6035L17.0488 13.4139ZM17.6273 14.1958L19.2351 13.0063V13.0063L17.6273 14.1958ZM17.403 17.071L15.997 15.6486L17.403 17.071ZM14.4942 17.2928L15.6659 15.672L14.4942 17.2928ZM13.6527 16.6845L14.8244 15.0637L13.8519 14.3607L12.7739 14.888L13.6527 16.6845ZM12.6258 17.0981L12.0142 15.1939L10.8411 15.5707L10.65 16.7879L12.6258 17.0981ZM12.4681 18.1023L14.4439 18.4125L12.4681 18.1023ZM8.03044 18.1023L10.0062 17.7921L8.03044 18.1023ZM7.8728 17.0981L9.8486 16.788L9.65751 15.5707L8.48436 15.1939L7.8728 17.0981ZM6.84581 16.6845L7.72461 14.888L6.64663 14.3607L5.67411 15.0637L6.84581 16.6845ZM6.00437 17.2928L4.83268 15.672H4.83268L6.00437 17.2928ZM3.09555 17.0711L1.68958 18.4935L1.68958 18.4935L3.09555 17.0711ZM2.87121 14.1958L1.26345 13.0063L1.26345 13.0063L2.87121 14.1958ZM3.44976 13.4139L5.05753 14.6035L5.80957 13.5871L5.21394 12.4718L3.44976 13.4139ZM2.97819 12.3352L4.86799 11.6805L4.47326 10.5411L3.2814 10.3583L2.97819 12.3352ZM2.00918 12.1866L1.70596 14.1635H1.70596L2.00918 12.1866ZM2.00918 7.81339L2.31239 9.79028H2.31239L2.00918 7.81339ZM2.89144 7.67807L3.19465 9.65495L4.43763 9.46431L4.80446 8.26148L2.89144 7.67807ZM3.37247 6.48162L5.15716 7.38432L5.71389 6.28362L4.98023 5.29204L3.37247 6.48162ZM2.87121 5.80414L1.26344 6.99371L1.26344 6.99371L2.87121 5.80414ZM6.00437 2.70718L4.83267 4.32802L4.83267 4.32802L6.00437 2.70718ZM6.64013 3.16677L5.46843 4.78761L6.47431 5.51475L7.5724 4.93619L6.64013 3.16677ZM7.91462 2.63542L8.51529 4.54309L9.69811 4.17065L9.89042 2.94559L7.91462 2.63542ZM10.2493 -2C8.1585 -2 6.37889 -0.477965 6.05463 1.58751L10.0062 2.20786C10.025 2.08819 10.1281 2 10.2493 2V-2ZM14.4439 1.58751C14.1197 -0.477967 12.3401 -2 10.2493 -2V2C10.3704 2 10.4735 2.08819 10.4923 2.20786L14.4439 1.58751ZM14.5597 2.32525L14.4439 1.58751L10.4923 2.20786L10.6081 2.94559L14.5597 2.32525ZM14.7906 1.39732C14.2808 1.12871 13.7438 0.903816 13.1846 0.727754L11.9833 4.54309C12.3114 4.64642 12.6267 4.77843 12.9261 4.93618L14.7906 1.39732ZM15.0301 4.78759L15.6659 4.32798L13.3225 1.0863L12.6867 1.54591L15.0301 4.78759ZM15.6659 4.32798C15.768 4.25412 15.9124 4.26769 15.997 4.3513L18.809 1.50649C17.3302 0.0447686 15.0049 -0.129932 13.3225 1.0863L15.6659 4.32798ZM15.997 4.3513C16.0731 4.42654 16.0789 4.53438 16.0196 4.61453L19.2351 6.99367C20.481 5.30982 20.2962 2.97656 18.809 1.50648L15.997 4.3513ZM16.0196 4.61453L15.5183 5.29202L18.7338 7.67117L19.2351 6.99367L16.0196 4.61453ZM19.5201 7.09467C19.3597 6.56859 19.1551 6.06189 18.9108 5.57888L15.3414 7.3843C15.4831 7.66455 15.6015 7.95774 15.6941 8.26149L19.5201 7.09467ZM18.7926 5.83652L17.9103 5.70119L17.3039 9.65496L18.1862 9.79028L18.7926 5.83652ZM22.3662 9.99999C22.3662 7.92026 20.8483 6.15182 18.7926 5.83652L18.1862 9.79028C18.2897 9.80616 18.3662 9.89524 18.3662 9.99999H22.3662ZM18.7926 14.1635C20.8483 13.8482 22.3662 12.0797 22.3662 9.99999H18.3662C18.3662 10.1047 18.2897 10.1938 18.1862 10.2097L18.7926 14.1635ZM17.8236 14.3121L18.7926 14.1635L18.1862 10.2097L17.2171 10.3583L17.8236 14.3121ZM18.813 14.3561C19.0459 13.9199 19.2461 13.4635 19.4102 12.9899L15.6306 11.6805C15.5358 11.9541 15.4199 12.2185 15.2846 12.4718L18.813 14.3561ZM19.2351 13.0063L18.6566 12.2243L15.441 14.6035L16.0196 15.3854L19.2351 13.0063ZM18.809 18.4935C20.2962 17.0234 20.481 14.6901 19.2351 13.0063L16.0196 15.3854C16.0789 15.4656 16.0731 15.5734 15.997 15.6486L18.809 18.4935ZM13.3225 18.9136C15.0049 20.1299 17.3302 19.9552 18.809 18.4935L15.997 15.6486C15.9124 15.7323 15.768 15.7458 15.6659 15.672L13.3225 18.9136ZM12.481 18.3054L13.3225 18.9136L15.6659 15.672L14.8244 15.0637L12.481 18.3054ZM13.2373 19.0023C13.6839 18.8589 14.1162 18.6843 14.5315 18.4811L12.7739 14.888C12.5301 15.0073 12.2763 15.1097 12.0142 15.1939L13.2373 19.0023ZM14.4439 18.4125L14.6016 17.4083L10.65 16.7879L10.4923 17.7921L14.4439 18.4125ZM10.2493 22C12.3401 22 14.1197 20.478 14.4439 18.4125L10.4923 17.7921C10.4735 17.9118 10.3704 18 10.2493 18V22ZM6.05464 18.4125C6.37889 20.478 8.15851 22 10.2493 22V18C10.1281 18 10.025 17.9118 10.0062 17.7921L6.05464 18.4125ZM5.897 17.4083L6.05464 18.4125L10.0062 17.7921L9.8486 16.788L5.897 17.4083ZM5.96701 18.4811C6.3824 18.6843 6.81471 18.8589 7.26124 19.0023L8.48436 15.1939C8.22225 15.1097 7.9685 15.0073 7.72461 14.888L5.96701 18.4811ZM7.17607 18.9136L8.0175 18.3054L5.67411 15.0637L4.83268 15.672L7.17607 18.9136ZM1.68958 18.4935C3.16838 19.9552 5.49362 20.1299 7.17607 18.9136L4.83268 15.672C4.7305 15.7458 4.58611 15.7323 4.50153 15.6486L1.68958 18.4935ZM1.26345 13.0063C0.0175751 14.6901 0.20232 17.0234 1.68958 18.4935L4.50153 15.6487C4.4254 15.5734 4.41968 15.4656 4.47898 15.3854L1.26345 13.0063ZM1.84199 12.2243L1.26345 13.0063L4.47898 15.3854L5.05753 14.6035L1.84199 12.2243ZM1.08839 12.9899C1.25244 13.4635 1.45265 13.9199 1.68557 14.3561L5.21394 12.4718C5.07866 12.2185 4.96277 11.9541 4.86799 11.6805L1.08839 12.9899ZM1.70596 14.1635L2.67498 14.3121L3.2814 10.3583L2.31239 10.2097L1.70596 14.1635ZM-1.86761 9.99999C-1.86761 12.0797 -0.349729 13.8482 1.70596 14.1635L2.31239 10.2097C2.20884 10.1938 2.13239 10.1047 2.13239 9.99999H-1.86761ZM1.70596 5.83651C-0.349728 6.15181 -1.86761 7.92026 -1.86761 9.99999H2.13239C2.13239 9.89523 2.20884 9.80616 2.31239 9.79028L1.70596 5.83651ZM2.58823 5.70119L1.70596 5.83651L2.31239 9.79028L3.19465 9.65495L2.58823 5.70119ZM1.58777 5.57891C1.34347 6.06191 1.13886 6.56859 0.978423 7.09466L4.80446 8.26148C4.89709 7.95775 5.01541 7.66456 5.15716 7.38432L1.58777 5.57891ZM1.26344 6.99371L1.7647 7.67119L4.98023 5.29204L4.47897 4.61457L1.26344 6.99371ZM1.68958 1.50652C0.202316 2.9766 0.0175685 5.30986 1.26344 6.99371L4.47897 4.61457C4.41967 4.53442 4.4254 4.42658 4.50152 4.35134L1.68958 1.50652ZM7.17606 1.08634C5.49361 -0.129895 3.16838 0.0448113 1.68958 1.50652L4.50152 4.35134C4.58611 4.26773 4.7305 4.25416 4.83267 4.32802L7.17606 1.08634ZM7.81182 1.54593L7.17606 1.08634L4.83267 4.32802L5.46843 4.78761L7.81182 1.54593ZM7.31395 0.727752C6.75478 0.903819 6.21768 1.12873 5.70785 1.39734L7.5724 4.93619C7.87182 4.77843 8.1871 4.64643 8.51529 4.54309L7.31395 0.727752ZM6.05463 1.58751L5.93882 2.32525L9.89042 2.94559L10.0062 2.20786L6.05463 1.58751Z" fill="#5222D0" mask="url(#path-1-inside-1)"/>
<path d="M13.9464 10C13.9464 12.001 12.3021 13.6429 10.2493 13.6429C8.19642 13.6429 6.55215 12.001 6.55215 10C6.55215 7.99906 8.19642 6.35718 10.2493 6.35718C12.3021 6.35718 13.9464 7.99906 13.9464 10Z" stroke="#5222D0" stroke-width="2" stroke-linecap="round"/>
</svg>
