<svg width="42" height="55" viewBox="0 0 42 55" fill="none" xmlns="http://www.w3.org/2000/svg">
<path d="M30.5909 12.3287C30.5909 17.803 26.2512 22.1573 21 22.1573C15.7487 22.1573 11.4091 17.803 11.4091 12.3287C11.4091 6.85432 15.7487 2.5 21 2.5C26.2512 2.5 30.5909 6.85432 30.5909 12.3287Z" stroke="#5222D0" stroke-width="5"/>
<path d="M39.5 43.3527C39.5 45.9949 38.9753 47.6882 38.249 48.8139C37.5398 49.9132 36.4874 50.706 34.9681 51.2782C33.4043 51.8671 31.4245 52.1908 29.0087 52.351C26.7451 52.5011 24.2563 52.5005 21.5338 52.4999C21.3568 52.4998 21.1789 52.4998 21 52.4998C20.8211 52.4998 20.6432 52.4998 20.4662 52.4999C17.7437 52.5005 15.2549 52.5011 12.9913 52.351C10.5755 52.1908 8.59568 51.8671 7.0319 51.2782C5.51256 50.706 4.46023 49.9132 3.75102 48.8139C3.02475 47.6882 2.5 45.9949 2.5 43.3527C2.5 32.8397 10.8319 24.4073 21 24.4073C31.1681 24.4073 39.5 32.8397 39.5 43.3527Z" stroke="#5222D0" stroke-width="5"/>
</svg>
